<?xml version="1.0" encoding="UTF-8" standalone="no"?>
<!DOCTYPE svg PUBLIC "-//W3C//DTD SVG 1.1//EN"
 "http://www.w3.org/Graphics/SVG/1.1/DTD/svg11.dtd">
<!-- Generated by graphviz version 2.38.0 (20140413.2041)
 -->
<!-- Title: network_graph Pages: 1 -->
<svg width="1286pt" height="921pt"
 viewBox="0.00 0.00 1286.00 921.00" xmlns="http://www.w3.org/2000/svg" xmlns:xlink="http://www.w3.org/1999/xlink">
<g id="graph0" class="graph" transform="scale(1 1) rotate(0) translate(4 917)">
<title>network_graph</title>
<polygon fill="white" stroke="none" points="-4,4 -4,-917 1282,-917 1282,4 -4,4"/>
<!-- Block1481 -->
<g id="node1" class="node"><title>Block1481</title>
<polygon fill="lightgray" stroke="black" stroke-width="4" points="173,-191 79,-191 79,-119 173,-119 173,-191"/>
<text text-anchor="middle" x="126" y="-151.9" font-family="Times,serif" font-size="12.00">Dense</text>
</g>
<!-- Block1481_Output_0 -->
<g id="node5" class="node"><title>Block1481_Output_0</title>
<polygon fill="lightgray" stroke="black" stroke-width="4" points="130.633,-0.0986735 133.701,-0.29575 136.737,-0.590689 139.729,-0.982683 142.664,-1.47066 145.532,-2.05327 148.32,-2.72894 151.018,-3.49579 153.615,-4.35174 156.103,-5.29443 158.471,-6.32129 160.713,-7.42949 162.819,-8.616 164.784,-9.87757 166.602,-11.2107 168.268,-12.6119 169.777,-14.0771 171.126,-15.6024 172.314,-17.1836 173.338,-18.8164 174.198,-20.4963 174.895,-22.2187 175.428,-23.9788 175.799,-25.7719 176.012,-27.5931 176.07,-29.4373 175.975,-31.2994 175.733,-33.1745 175.348,-35.0573 174.826,-36.9427 174.172,-38.8255 173.392,-40.7006 172.493,-42.5627 171.481,-44.4069 170.364,-46.2281 169.147,-48.0212 167.837,-49.7813 166.442,-51.5037 164.968,-53.1836 163.421,-54.8164 161.809,-56.3976 160.136,-57.9229 158.41,-59.3881 156.635,-60.7893 154.817,-62.1224 152.961,-63.384 151.072,-64.5705 149.154,-65.6787 147.21,-66.7056 145.245,-67.6483 143.261,-68.5042 141.262,-69.2711 139.251,-69.9467 137.228,-70.5293 135.197,-71.0173 133.16,-71.4093 131.118,-71.7042 129.072,-71.9013 127.024,-72 124.976,-72 122.928,-71.9013 120.882,-71.7042 118.84,-71.4093 116.803,-71.0173 114.772,-70.5293 112.749,-69.9467 110.738,-69.2711 108.739,-68.5042 106.755,-67.6483 104.79,-66.7056 102.846,-65.6787 100.928,-64.5705 99.0386,-63.384 97.1827,-62.1224 95.3649,-60.7893 93.5901,-59.3881 91.8637,-57.9229 90.1912,-56.3976 88.5786,-54.8164 87.0321,-53.1836 85.5579,-51.5037 84.1628,-49.7813 82.8533,-48.0212 81.6363,-46.2281 80.5186,-44.4069 79.5069,-42.5627 78.608,-40.7006 77.8284,-38.8255 77.1743,-36.9427 76.652,-35.0573 76.267,-33.1745 76.0248,-31.2994 75.9302,-29.4373 75.9875,-27.5931 76.2005,-25.7719 76.5723,-23.9788 77.1055,-22.2187 77.8016,-20.4963 78.6616,-18.8164 79.6859,-17.1836 80.8735,-15.6024 82.2232,-14.0771 83.7324,-12.6119 85.398,-11.2107 87.2158,-9.87757 89.1809,-8.616 91.2873,-7.42949 93.5285,-6.32129 95.897,-5.29443 98.3845,-4.35174 100.982,-3.49579 103.68,-2.72894 106.468,-2.05327 109.336,-1.47066 112.271,-0.982683 115.263,-0.590689 118.299,-0.29575 121.367,-0.0986735 124.453,-3.62377e-13 127.547,-3.69482e-13 130.633,-0.0986735"/>
<text text-anchor="middle" x="126" y="-25.9" font-family="Times,serif" font-size="12.00">[#](69,)</text>
</g>
<!-- Block1481&#45;&gt;Block1481_Output_0 -->
<g id="edge4" class="edge"><title>Block1481&#45;&gt;Block1481_Output_0</title>
<path fill="none" stroke="black" d="M126,-118.896C126,-107.327 126,-94.2965 126,-82.0893"/>
<polygon fill="black" stroke="black" points="129.5,-82.079 126,-72.0791 122.5,-82.0791 129.5,-82.079"/>
<text text-anchor="middle" x="141.5" y="-93" font-family="Times,serif" font-size="10.00">[#](69,)</text>
</g>
<!-- Parameter1454 -->
<g id="node2" class="node"><title>Parameter1454</title>
<polygon fill="lightgray" stroke="black" points="72,-306.5 0,-306.5 0,-263.5 72,-263.5 72,-306.5"/>
<text text-anchor="middle" x="36" y="-288.4" font-family="Times,serif" font-size="12.00">W</text>
<text text-anchor="middle" x="36" y="-275.4" font-family="Times,serif" font-size="12.00">(512, 69)</text>
</g>
<!-- Parameter1454&#45;&gt;Block1481 -->
<g id="edge1" class="edge"><title>Parameter1454&#45;&gt;Block1481</title>
<path fill="none" stroke="black" d="M48.8775,-263.332C58.5176,-248.101 72.193,-226.994 85,-209 87.2872,-205.786 89.6878,-202.494 92.1316,-199.201"/>
<polygon fill="black" stroke="black" points="95.0435,-201.152 98.2553,-191.056 89.4484,-196.946 95.0435,-201.152"/>
<text text-anchor="middle" x="103.5" y="-223" font-family="Times,serif" font-size="10.00">W</text>
<text text-anchor="middle" x="103.5" y="-212" font-family="Times,serif" font-size="10.00">(512, 69)</text>
</g>
<!-- Parameter1455 -->
<g id="node3" class="node"><title>Parameter1455</title>
<polygon fill="lightgray" stroke="black" points="162,-306.5 90,-306.5 90,-263.5 162,-263.5 162,-306.5"/>
<text text-anchor="middle" x="126" y="-288.4" font-family="Times,serif" font-size="12.00">b</text>
<text text-anchor="middle" x="126" y="-275.4" font-family="Times,serif" font-size="12.00">(69,)</text>
</g>
<!-- Parameter1455&#45;&gt;Block1481 -->
<g id="edge2" class="edge"><title>Parameter1455&#45;&gt;Block1481</title>
<path fill="none" stroke="black" d="M126,-263.435C126,-246.673 126,-222.385 126,-201.141"/>
<polygon fill="black" stroke="black" points="129.5,-201.003 126,-191.003 122.5,-201.003 129.5,-201.003"/>
<text text-anchor="middle" x="135.5" y="-223" font-family="Times,serif" font-size="10.00">b</text>
<text text-anchor="middle" x="135.5" y="-212" font-family="Times,serif" font-size="10.00">(69,)</text>
</g>
<!-- Block1445 -->
<g id="node4" class="node"><title>Block1445</title>
<polygon fill="lightgray" stroke="black" stroke-width="4" points="274,-321 180,-321 180,-249 274,-249 274,-321"/>
<text text-anchor="middle" x="227" y="-281.9" font-family="Times,serif" font-size="12.00">Sequence::Slice</text>
</g>
<!-- Block1445&#45;&gt;Block1481 -->
<g id="edge3" class="edge"><title>Block1445&#45;&gt;Block1481</title>
<path fill="none" stroke="black" d="M199.134,-248.685C187.101,-233.435 172.907,-215.446 160.24,-199.393"/>
<polygon fill="black" stroke="black" points="162.717,-196.882 153.775,-191.2 157.222,-201.219 162.717,-196.882"/>
<text text-anchor="middle" x="228.5" y="-223" font-family="Times,serif" font-size="10.00">Block1445_Output_0</text>
<text text-anchor="middle" x="228.5" y="-212" font-family="Times,serif" font-size="10.00">[#](512,)</text>
</g>
<!-- NoOp1344 -->
<g id="node6" class="node"><title>NoOp1344</title>
<ellipse fill="lightgray" stroke="black" stroke-width="4" cx="227" cy="-400.5" rx="14.5" ry="14.5"/>
<text text-anchor="middle" x="227" y="-397.4" font-family="Times,serif" font-size="12.00">NoOp</text>
</g>
<!-- NoOp1344&#45;&gt;Block1445 -->
<g id="edge5" class="edge"><title>NoOp1344&#45;&gt;Block1445</title>
<path fill="none" stroke="black" d="M227,-385.583C227,-372.135 227,-351.017 227,-331.681"/>
<polygon fill="black" stroke="black" points="230.5,-331.484 227,-321.484 223.5,-331.484 230.5,-331.484"/>
<text text-anchor="middle" x="248.5" y="-353" font-family="Times,serif" font-size="10.00">cifg_lstm</text>
<text text-anchor="middle" x="248.5" y="-342" font-family="Times,serif" font-size="10.00">[#,*](512,)</text>
</g>
<!-- Block1322 -->
<g id="node7" class="node"><title>Block1322</title>
<polygon fill="lightgray" stroke="black" stroke-width="4" points="502,-552 408,-552 408,-480 502,-480 502,-552"/>
<text text-anchor="middle" x="455" y="-512.9" font-family="Times,serif" font-size="12.00">LSTM</text>
</g>
<!-- Block1322&#45;&gt;NoOp1344 -->
<g id="edge6" class="edge"><title>Block1322&#45;&gt;NoOp1344</title>
<path fill="none" stroke="black" d="M407.747,-512.265C365.381,-507.623 303.524,-495.19 261,-462 248.709,-452.407 240.156,-437.053 234.703,-424.214"/>
<polygon fill="black" stroke="black" points="237.86,-422.673 230.982,-414.614 231.333,-425.203 237.86,-422.673"/>
<text text-anchor="middle" x="306.5" y="-454" font-family="Times,serif" font-size="10.00">Block1322_Output_0</text>
<text text-anchor="middle" x="306.5" y="-443" font-family="Times,serif" font-size="10.00">[#,*](512,)</text>
</g>
<!-- PastValue1174 -->
<g id="node11" class="node"><title>PastValue1174</title>
<polygon fill="lightgray" stroke="black" stroke-width="4" points="749.5,-422 684.5,-422 684.5,-379 749.5,-379 749.5,-422"/>
<text text-anchor="middle" x="717" y="-397.4" font-family="Times,serif" font-size="12.00">PastValue</text>
</g>
<!-- Block1322&#45;&gt;PastValue1174 -->
<g id="edge13" class="edge"><title>Block1322&#45;&gt;PastValue1174</title>
<path fill="none" stroke="black" d="M502.129,-509.99C563.621,-502.565 666.722,-486.786 695,-462 703.816,-454.273 709.101,-442.721 712.268,-431.776"/>
<polygon fill="black" stroke="black" points="715.678,-432.564 714.622,-422.022 708.874,-430.922 715.678,-432.564"/>
<text text-anchor="middle" x="755.5" y="-454" font-family="Times,serif" font-size="10.00">Block1322_Output_0</text>
<text text-anchor="middle" x="755.5" y="-443" font-family="Times,serif" font-size="10.00">[#,*](512,)</text>
</g>
<!-- PastValue1177 -->
<g id="node12" class="node"><title>PastValue1177</title>
<polygon fill="lightgray" stroke="black" stroke-width="4" points="487.5,-422 422.5,-422 422.5,-379 487.5,-379 487.5,-422"/>
<text text-anchor="middle" x="455" y="-397.4" font-family="Times,serif" font-size="12.00">PastValue</text>
</g>
<!-- Block1322&#45;&gt;PastValue1177 -->
<g id="edge15" class="edge"><title>Block1322&#45;&gt;PastValue1177</title>
<path fill="none" stroke="black" d="M407.958,-499.451C376.168,-486.26 342.858,-465.444 360,-440 371.77,-422.53 392.965,-412.985 412.354,-407.77"/>
<polygon fill="black" stroke="black" points="413.346,-411.132 422.269,-405.419 411.731,-404.321 413.346,-411.132"/>
<text text-anchor="middle" x="405.5" y="-454" font-family="Times,serif" font-size="10.00">Block1322_Output_1</text>
<text text-anchor="middle" x="405.5" y="-443" font-family="Times,serif" font-size="10.00">[#,*](512,)</text>
</g>
<!-- Parameter441 -->
<g id="node8" class="node"><title>Parameter441</title>
<polygon fill="lightgray" stroke="black" points="357,-653 285,-653 285,-610 357,-610 357,-653"/>
<text text-anchor="middle" x="321" y="-634.9" font-family="Times,serif" font-size="12.00">b</text>
<text text-anchor="middle" x="321" y="-621.9" font-family="Times,serif" font-size="12.00">(2048,)</text>
</g>
<!-- Parameter441&#45;&gt;Block1322 -->
<g id="edge7" class="edge"><title>Parameter441&#45;&gt;Block1322</title>
<path fill="none" stroke="black" d="M343.724,-609.765C356.82,-597.947 373.675,-582.957 389,-570 393.457,-566.232 398.12,-562.357 402.818,-558.499"/>
<polygon fill="black" stroke="black" points="405.191,-561.08 410.726,-552.045 400.765,-555.656 405.191,-561.08"/>
<text text-anchor="middle" x="404" y="-584" font-family="Times,serif" font-size="10.00">b</text>
<text text-anchor="middle" x="404" y="-573" font-family="Times,serif" font-size="10.00">(2048,)</text>
</g>
<!-- Parameter442 -->
<g id="node9" class="node"><title>Parameter442</title>
<polygon fill="lightgray" stroke="black" points="447,-653 375,-653 375,-610 447,-610 447,-653"/>
<text text-anchor="middle" x="411" y="-634.9" font-family="Times,serif" font-size="12.00">W</text>
<text text-anchor="middle" x="411" y="-621.9" font-family="Times,serif" font-size="12.00">(512, 2048)</text>
</g>
<!-- Parameter442&#45;&gt;Block1322 -->
<g id="edge8" class="edge"><title>Parameter442&#45;&gt;Block1322</title>
<path fill="none" stroke="black" d="M416.735,-609.816C420.195,-598.014 424.911,-583.023 430,-570 431.112,-567.154 432.307,-564.247 433.551,-561.331"/>
<polygon fill="black" stroke="black" points="436.808,-562.62 437.644,-552.058 430.404,-559.793 436.808,-562.62"/>
<text text-anchor="middle" x="454" y="-584" font-family="Times,serif" font-size="10.00">W</text>
<text text-anchor="middle" x="454" y="-573" font-family="Times,serif" font-size="10.00">(512, 2048)</text>
</g>
<!-- Parameter443 -->
<g id="node10" class="node"><title>Parameter443</title>
<polygon fill="lightgray" stroke="black" points="537,-653 465,-653 465,-610 537,-610 537,-653"/>
<text text-anchor="middle" x="501" y="-634.9" font-family="Times,serif" font-size="12.00">H</text>
<text text-anchor="middle" x="501" y="-621.9" font-family="Times,serif" font-size="12.00">(512, 2048)</text>
</g>
<!-- Parameter443&#45;&gt;Block1322 -->
<g id="edge9" class="edge"><title>Parameter443&#45;&gt;Block1322</title>
<path fill="none" stroke="black" d="M493.462,-609.965C489.08,-598.212 483.378,-583.219 478,-570 476.902,-567.3 475.756,-564.53 474.588,-561.74"/>
<polygon fill="black" stroke="black" points="477.693,-560.097 470.569,-552.255 471.248,-562.828 477.693,-560.097"/>
<text text-anchor="middle" x="511" y="-584" font-family="Times,serif" font-size="10.00">H</text>
<text text-anchor="middle" x="511" y="-573" font-family="Times,serif" font-size="10.00">(512, 2048)</text>
</g>
<!-- PastValue1174&#45;&gt;Block1322 -->
<g id="edge10" class="edge"><title>PastValue1174&#45;&gt;Block1322</title>
<path fill="none" stroke="black" d="M684.302,-406.725C656.925,-412.113 617.543,-422.287 587,-440 574.763,-447.097 575.612,-453.921 564,-462 547.896,-473.205 529.064,-483.278 511.628,-491.557"/>
<polygon fill="black" stroke="black" points="509.712,-488.588 502.111,-495.968 512.655,-494.939 509.712,-488.588"/>
<text text-anchor="middle" x="641" y="-454" font-family="Times,serif" font-size="10.00">PastValue1174_Output_0</text>
<text text-anchor="middle" x="641" y="-443" font-family="Times,serif" font-size="10.00">[#,*](512,)</text>
</g>
<!-- PastValue1177&#45;&gt;Block1322 -->
<g id="edge11" class="edge"><title>PastValue1177&#45;&gt;Block1322</title>
<path fill="none" stroke="black" d="M455,-422.217C455,-435.497 455,-453.268 455,-469.702"/>
<polygon fill="black" stroke="black" points="451.5,-469.71 455,-479.71 458.5,-469.71 451.5,-469.71"/>
<text text-anchor="middle" x="509" y="-454" font-family="Times,serif" font-size="10.00">PastValue1177_Output_0</text>
<text text-anchor="middle" x="509" y="-443" font-family="Times,serif" font-size="10.00">[#,*](512,)</text>
</g>
<!-- NoOp1264 -->
<g id="node13" class="node"><title>NoOp1264</title>
<ellipse fill="lightgray" stroke="black" stroke-width="4" cx="571" cy="-631.5" rx="14.5" ry="14.5"/>
<text text-anchor="middle" x="571" y="-628.4" font-family="Times,serif" font-size="12.00">NoOp</text>
</g>
<!-- NoOp1264&#45;&gt;Block1322 -->
<g id="edge12" class="edge"><title>NoOp1264&#45;&gt;Block1322</title>
<path fill="none" stroke="black" d="M566.326,-617.241C561.19,-604.093 551.92,-583.946 539,-570 530.852,-561.205 520.933,-553.277 510.807,-546.395"/>
<polygon fill="black" stroke="black" points="512.58,-543.373 502.286,-540.864 508.768,-549.245 512.58,-543.373"/>
<text text-anchor="middle" x="576.5" y="-584" font-family="Times,serif" font-size="10.00">cifg_lstm</text>
<text text-anchor="middle" x="576.5" y="-573" font-family="Times,serif" font-size="10.00">[#,*](512,)</text>
</g>
<!-- Constant532 -->
<g id="node14" class="node"><title>Constant532</title>
<polygon fill="white" stroke="white" points="887,-527 851,-527 851,-505 887,-505 887,-527"/>
<text text-anchor="middle" x="869" y="-512.9" font-family="Times,serif" font-size="12.00">[ 0.]</text>
</g>
<!-- Constant532&#45;&gt;PastValue1174 -->
<g id="edge14" class="edge"><title>Constant532&#45;&gt;PastValue1174</title>
<path fill="none" stroke="black" d="M875.865,-504.831C885.483,-489.193 900.183,-459.055 885,-440 869.604,-420.677 804.165,-410.263 759.651,-405.305"/>
<polygon fill="black" stroke="black" points="759.977,-401.82 749.663,-404.244 759.237,-408.78 759.977,-401.82"/>
<text text-anchor="middle" x="918.5" y="-454" font-family="Times,serif" font-size="10.00">Constant532</text>
<text text-anchor="middle" x="918.5" y="-443" font-family="Times,serif" font-size="10.00">(1,)</text>
</g>
<!-- Constant532&#45;&gt;PastValue1177 -->
<g id="edge16" class="edge"><title>Constant532&#45;&gt;PastValue1177</title>
<path fill="none" stroke="black" d="M861.087,-504.919C845.648,-485.377 812.375,-443.905 805,-440 791.586,-432.897 588.271,-413.638 497.826,-405.363"/>
<polygon fill="black" stroke="black" points="497.909,-401.856 487.633,-404.433 497.273,-408.827 497.909,-401.856"/>
<text text-anchor="middle" x="851.5" y="-454" font-family="Times,serif" font-size="10.00">Constant532</text>
<text text-anchor="middle" x="851.5" y="-443" font-family="Times,serif" font-size="10.00">(1,)</text>
</g>
<!-- Block1242 -->
<g id="node15" class="node"><title>Block1242</title>
<polygon fill="lightgray" stroke="black" stroke-width="4" points="846,-783 752,-783 752,-711 846,-711 846,-783"/>
<text text-anchor="middle" x="799" y="-743.9" font-family="Times,serif" font-size="12.00">LSTM</text>
</g>
<!-- Block1242&#45;&gt;NoOp1264 -->
<g id="edge17" class="edge"><title>Block1242&#45;&gt;NoOp1264</title>
<path fill="none" stroke="black" d="M751.747,-743.265C709.381,-738.623 647.524,-726.19 605,-693 592.709,-683.407 584.156,-668.053 578.703,-655.214"/>
<polygon fill="black" stroke="black" points="581.86,-653.673 574.982,-645.614 575.333,-656.203 581.86,-653.673"/>
<text text-anchor="middle" x="650.5" y="-685" font-family="Times,serif" font-size="10.00">Block1242_Output_0</text>
<text text-anchor="middle" x="650.5" y="-674" font-family="Times,serif" font-size="10.00">[#,*](512,)</text>
</g>
<!-- PastValue1180 -->
<g id="node19" class="node"><title>PastValue1180</title>
<polygon fill="lightgray" stroke="black" stroke-width="4" points="1093.5,-653 1028.5,-653 1028.5,-610 1093.5,-610 1093.5,-653"/>
<text text-anchor="middle" x="1061" y="-628.4" font-family="Times,serif" font-size="12.00">PastValue</text>
</g>
<!-- Block1242&#45;&gt;PastValue1180 -->
<g id="edge24" class="edge"><title>Block1242&#45;&gt;PastValue1180</title>
<path fill="none" stroke="black" d="M846.129,-740.99C907.621,-733.565 1010.72,-717.786 1039,-693 1047.82,-685.273 1053.1,-673.721 1056.27,-662.776"/>
<polygon fill="black" stroke="black" points="1059.68,-663.564 1058.62,-653.022 1052.87,-661.922 1059.68,-663.564"/>
<text text-anchor="middle" x="1098.5" y="-685" font-family="Times,serif" font-size="10.00">Block1242_Output_0</text>
<text text-anchor="middle" x="1098.5" y="-674" font-family="Times,serif" font-size="10.00">[#,*](512,)</text>
</g>
<!-- PastValue1183 -->
<g id="node20" class="node"><title>PastValue1183</title>
<polygon fill="lightgray" stroke="black" stroke-width="4" points="831.5,-653 766.5,-653 766.5,-610 831.5,-610 831.5,-653"/>
<text text-anchor="middle" x="799" y="-628.4" font-family="Times,serif" font-size="12.00">PastValue</text>
</g>
<!-- Block1242&#45;&gt;PastValue1183 -->
<g id="edge26" class="edge"><title>Block1242&#45;&gt;PastValue1183</title>
<path fill="none" stroke="black" d="M751.958,-730.451C720.168,-717.26 686.858,-696.444 704,-671 715.77,-653.53 736.965,-643.985 756.354,-638.77"/>
<polygon fill="black" stroke="black" points="757.346,-642.132 766.269,-636.419 755.731,-635.321 757.346,-642.132"/>
<text text-anchor="middle" x="749.5" y="-685" font-family="Times,serif" font-size="10.00">Block1242_Output_1</text>
<text text-anchor="middle" x="749.5" y="-674" font-family="Times,serif" font-size="10.00">[#,*](512,)</text>
</g>
<!-- Parameter5 -->
<g id="node16" class="node"><title>Parameter5</title>
<polygon fill="lightgray" stroke="black" points="700,-898.5 628,-898.5 628,-855.5 700,-855.5 700,-898.5"/>
<text text-anchor="middle" x="664" y="-880.4" font-family="Times,serif" font-size="12.00">b</text>
<text text-anchor="middle" x="664" y="-867.4" font-family="Times,serif" font-size="12.00">(2048,)</text>
</g>
<!-- Parameter5&#45;&gt;Block1242 -->
<g id="edge18" class="edge"><title>Parameter5&#45;&gt;Block1242</title>
<path fill="none" stroke="black" d="M683.687,-855.203C698.364,-839.907 719.061,-818.776 738,-801 741.9,-797.34 745.991,-793.594 750.13,-789.87"/>
<polygon fill="black" stroke="black" points="752.464,-792.478 757.601,-783.212 747.807,-787.252 752.464,-792.478"/>
<text text-anchor="middle" x="753" y="-815" font-family="Times,serif" font-size="10.00">b</text>
<text text-anchor="middle" x="753" y="-804" font-family="Times,serif" font-size="10.00">(2048,)</text>
</g>
<!-- Parameter6 -->
<g id="node17" class="node"><title>Parameter6</title>
<polygon fill="lightgray" stroke="black" points="790,-898.5 718,-898.5 718,-855.5 790,-855.5 790,-898.5"/>
<text text-anchor="middle" x="754" y="-880.4" font-family="Times,serif" font-size="12.00">W</text>
<text text-anchor="middle" x="754" y="-867.4" font-family="Times,serif" font-size="12.00">(69, 2048)</text>
</g>
<!-- Parameter6&#45;&gt;Block1242 -->
<g id="edge19" class="edge"><title>Parameter6&#45;&gt;Block1242</title>
<path fill="none" stroke="black" d="M760.681,-855.233C765.596,-840.136 772.523,-819.236 779,-801 779.957,-798.307 780.954,-795.542 781.97,-792.756"/>
<polygon fill="black" stroke="black" points="785.288,-793.874 785.467,-783.281 778.721,-791.45 785.288,-793.874"/>
<text text-anchor="middle" x="800.5" y="-815" font-family="Times,serif" font-size="10.00">W</text>
<text text-anchor="middle" x="800.5" y="-804" font-family="Times,serif" font-size="10.00">(69, 2048)</text>
</g>
<!-- Parameter7 -->
<g id="node18" class="node"><title>Parameter7</title>
<polygon fill="lightgray" stroke="black" points="880,-898.5 808,-898.5 808,-855.5 880,-855.5 880,-898.5"/>
<text text-anchor="middle" x="844" y="-880.4" font-family="Times,serif" font-size="12.00">H</text>
<text text-anchor="middle" x="844" y="-867.4" font-family="Times,serif" font-size="12.00">(512, 2048)</text>
</g>
<!-- Parameter7&#45;&gt;Block1242 -->
<g id="edge20" class="edge"><title>Parameter7&#45;&gt;Block1242</title>
<path fill="none" stroke="black" d="M838.7,-855.406C834.611,-840.212 828.56,-819.118 822,-801 821.008,-798.259 819.944,-795.457 818.838,-792.644"/>
<polygon fill="black" stroke="black" points="821.969,-791.05 814.959,-783.106 815.484,-793.687 821.969,-791.05"/>
<text text-anchor="middle" x="853" y="-815" font-family="Times,serif" font-size="10.00">H</text>
<text text-anchor="middle" x="853" y="-804" font-family="Times,serif" font-size="10.00">(512, 2048)</text>
</g>
<!-- PastValue1180&#45;&gt;Block1242 -->
<g id="edge21" class="edge"><title>PastValue1180&#45;&gt;Block1242</title>
<path fill="none" stroke="black" d="M1028.3,-637.725C1000.93,-643.113 961.543,-653.287 931,-671 918.763,-678.097 919.612,-684.921 908,-693 891.896,-704.205 873.064,-714.278 855.628,-722.557"/>
<polygon fill="black" stroke="black" points="853.712,-719.588 846.111,-726.968 856.655,-725.939 853.712,-719.588"/>
<text text-anchor="middle" x="985" y="-685" font-family="Times,serif" font-size="10.00">PastValue1180_Output_0</text>
<text text-anchor="middle" x="985" y="-674" font-family="Times,serif" font-size="10.00">[#,*](512,)</text>
</g>
<!-- PastValue1183&#45;&gt;Block1242 -->
<g id="edge22" class="edge"><title>PastValue1183&#45;&gt;Block1242</title>
<path fill="none" stroke="black" d="M799,-653.217C799,-666.497 799,-684.268 799,-700.702"/>
<polygon fill="black" stroke="black" points="795.5,-700.71 799,-710.71 802.5,-700.71 795.5,-700.71"/>
<text text-anchor="middle" x="853" y="-685" font-family="Times,serif" font-size="10.00">PastValue1183_Output_0</text>
<text text-anchor="middle" x="853" y="-674" font-family="Times,serif" font-size="10.00">[#,*](512,)</text>
</g>
<!-- Input3 -->
<g id="node21" class="node"><title>Input3</title>
<polygon fill="lightgray" stroke="black" stroke-width="4" points="952.633,-841.099 955.701,-841.296 958.737,-841.591 961.729,-841.983 964.664,-842.471 967.532,-843.053 970.32,-843.729 973.018,-844.496 975.615,-845.352 978.103,-846.294 980.471,-847.321 982.713,-848.429 984.819,-849.616 986.784,-850.878 988.602,-852.211 990.268,-853.612 991.777,-855.077 993.126,-856.602 994.314,-858.184 995.338,-859.816 996.198,-861.496 996.895,-863.219 997.428,-864.979 997.799,-866.772 998.012,-868.593 998.07,-870.437 997.975,-872.299 997.733,-874.175 997.348,-876.057 996.826,-877.943 996.172,-879.825 995.392,-881.701 994.493,-883.563 993.481,-885.407 992.364,-887.228 991.147,-889.021 989.837,-890.781 988.442,-892.504 986.968,-894.184 985.421,-895.816 983.809,-897.398 982.136,-898.923 980.41,-900.388 978.635,-901.789 976.817,-903.122 974.961,-904.384 973.072,-905.571 971.154,-906.679 969.21,-907.706 967.245,-908.648 965.261,-909.504 963.262,-910.271 961.251,-910.947 959.228,-911.529 957.197,-912.017 955.16,-912.409 953.118,-912.704 951.072,-912.901 949.024,-913 946.976,-913 944.928,-912.901 942.882,-912.704 940.84,-912.409 938.803,-912.017 936.772,-911.529 934.749,-910.947 932.738,-910.271 930.739,-909.504 928.755,-908.648 926.79,-907.706 924.846,-906.679 922.928,-905.571 921.039,-904.384 919.183,-903.122 917.365,-901.789 915.59,-900.388 913.864,-898.923 912.191,-897.398 910.579,-895.816 909.032,-894.184 907.558,-892.504 906.163,-890.781 904.853,-889.021 903.636,-887.228 902.519,-885.407 901.507,-883.563 900.608,-881.701 899.828,-879.825 899.174,-877.943 898.652,-876.057 898.267,-874.175 898.025,-872.299 897.93,-870.437 897.988,-868.593 898.201,-866.772 898.572,-864.979 899.105,-863.219 899.802,-861.496 900.662,-859.816 901.686,-858.184 902.874,-856.602 904.223,-855.077 905.732,-853.612 907.398,-852.211 909.216,-850.878 911.181,-849.616 913.287,-848.429 915.529,-847.321 917.897,-846.294 920.385,-845.352 922.982,-844.496 925.68,-843.729 928.468,-843.053 931.336,-842.471 934.271,-841.983 937.263,-841.591 940.299,-841.296 943.367,-841.099 946.453,-841 949.547,-841 952.633,-841.099"/>
<text text-anchor="middle" x="948" y="-886.9" font-family="Times,serif" font-size="12.00">Input</text>
<text text-anchor="middle" x="948" y="-873.9" font-family="Times,serif" font-size="12.00">inputs</text>
<text text-anchor="middle" x="948" y="-860.9" font-family="Times,serif" font-size="12.00">[#,*](69,)</text>
</g>
<!-- Input3&#45;&gt;Block1242 -->
<g id="edge23" class="edge"><title>Input3&#45;&gt;Block1242</title>
<path fill="none" stroke="black" d="M922.986,-844.316C911.064,-830.228 896.124,-813.94 881,-801 872.815,-793.997 863.641,-787.205 854.473,-780.951"/>
<polygon fill="black" stroke="black" points="856.348,-777.994 846.084,-775.368 852.47,-783.822 856.348,-777.994"/>
<text text-anchor="middle" x="922" y="-815" font-family="Times,serif" font-size="10.00">inputs</text>
<text text-anchor="middle" x="922" y="-804" font-family="Times,serif" font-size="10.00">[#,*](69,)</text>
</g>
<!-- Constant96 -->
<g id="node22" class="node"><title>Constant96</title>
<polygon fill="white" stroke="white" points="1228,-758 1192,-758 1192,-736 1228,-736 1228,-758"/>
<text text-anchor="middle" x="1210" y="-743.9" font-family="Times,serif" font-size="12.00">[ 0.]</text>
</g>
<!-- Constant96&#45;&gt;PastValue1180 -->
<g id="edge25" class="edge"><title>Constant96&#45;&gt;PastValue1180</title>
<path fill="none" stroke="black" d="M1216.44,-735.819C1225.42,-720.166 1239.04,-690.008 1224,-671 1209.26,-652.371 1146.93,-641.838 1103.77,-636.656"/>
<polygon fill="black" stroke="black" points="1104.12,-633.174 1093.79,-635.511 1103.32,-640.128 1104.12,-633.174"/>
<text text-anchor="middle" x="1254" y="-685" font-family="Times,serif" font-size="10.00">Constant96</text>
<text text-anchor="middle" x="1254" y="-674" font-family="Times,serif" font-size="10.00">(1,)</text>
</g>
<!-- Constant96&#45;&gt;PastValue1183 -->
<g id="edge27" class="edge"><title>Constant96&#45;&gt;PastValue1183</title>
<path fill="none" stroke="black" d="M1202.99,-735.726C1190.01,-717.039 1162.27,-678.703 1148,-671 1134.68,-663.811 931.915,-644.599 841.712,-636.35"/>
<polygon fill="black" stroke="black" points="841.822,-632.846 831.546,-635.423 841.187,-639.817 841.822,-632.846"/>
<text text-anchor="middle" x="1193" y="-685" font-family="Times,serif" font-size="10.00">Constant96</text>
<text text-anchor="middle" x="1193" y="-674" font-family="Times,serif" font-size="10.00">(1,)</text>
</g>
</g>
</svg>
