<?xml version="1.0" encoding="UTF-8" standalone="no"?>
<!DOCTYPE svg PUBLIC "-//W3C//DTD SVG 1.1//EN"
 "http://www.w3.org/Graphics/SVG/1.1/DTD/svg11.dtd">
<!-- Generated by graphviz version 2.38.0 (20140413.2041)
 -->
<!-- Title: network_graph Pages: 1 -->
<svg width="702pt" height="921pt"
 viewBox="0.00 0.00 702.03 921.00" xmlns="http://www.w3.org/2000/svg" xmlns:xlink="http://www.w3.org/1999/xlink">
<g id="graph0" class="graph" transform="scale(1 1) rotate(0) translate(4 917)">
<title>network_graph</title>
<polygon fill="white" stroke="none" points="-4,4 -4,-917 698.035,-917 698.035,4 -4,4"/>
<!-- Block1546 -->
<g id="node1" class="node"><title>Block1546</title>
<polygon fill="lightgray" stroke="black" stroke-width="4" points="293,-191 199,-191 199,-119 293,-119 293,-191"/>
<text text-anchor="middle" x="246" y="-151.9" font-family="Times,serif" font-size="12.00">Dense</text>
</g>
<!-- Block1546_Output_0 -->
<g id="node5" class="node"><title>Block1546_Output_0</title>
<polygon fill="lightgray" stroke="black" stroke-width="4" points="250.633,-0.0986735 253.701,-0.29575 256.737,-0.590689 259.729,-0.982683 262.664,-1.47066 265.532,-2.05327 268.32,-2.72894 271.018,-3.49579 273.615,-4.35174 276.103,-5.29443 278.471,-6.32129 280.713,-7.42949 282.819,-8.616 284.784,-9.87757 286.602,-11.2107 288.268,-12.6119 289.777,-14.0771 291.126,-15.6024 292.314,-17.1836 293.338,-18.8164 294.198,-20.4963 294.895,-22.2187 295.428,-23.9788 295.799,-25.7719 296.012,-27.5931 296.07,-29.4373 295.975,-31.2994 295.733,-33.1745 295.348,-35.0573 294.826,-36.9427 294.172,-38.8255 293.392,-40.7006 292.493,-42.5627 291.481,-44.4069 290.364,-46.2281 289.147,-48.0212 287.837,-49.7813 286.442,-51.5037 284.968,-53.1836 283.421,-54.8164 281.809,-56.3976 280.136,-57.9229 278.41,-59.3881 276.635,-60.7893 274.817,-62.1224 272.961,-63.384 271.072,-64.5705 269.154,-65.6787 267.21,-66.7056 265.245,-67.6483 263.261,-68.5042 261.262,-69.2711 259.251,-69.9467 257.228,-70.5293 255.197,-71.0173 253.16,-71.4093 251.118,-71.7042 249.072,-71.9013 247.024,-72 244.976,-72 242.928,-71.9013 240.882,-71.7042 238.84,-71.4093 236.803,-71.0173 234.772,-70.5293 232.749,-69.9467 230.738,-69.2711 228.739,-68.5042 226.755,-67.6483 224.79,-66.7056 222.846,-65.6787 220.928,-64.5705 219.039,-63.384 217.183,-62.1224 215.365,-60.7893 213.59,-59.3881 211.864,-57.9229 210.191,-56.3976 208.579,-54.8164 207.032,-53.1836 205.558,-51.5037 204.163,-49.7813 202.853,-48.0212 201.636,-46.2281 200.519,-44.4069 199.507,-42.5627 198.608,-40.7006 197.828,-38.8255 197.174,-36.9427 196.652,-35.0573 196.267,-33.1745 196.025,-31.2994 195.93,-29.4373 195.988,-27.5931 196.201,-25.7719 196.572,-23.9788 197.105,-22.2187 197.802,-20.4963 198.662,-18.8164 199.686,-17.1836 200.874,-15.6024 202.223,-14.0771 203.732,-12.6119 205.398,-11.2107 207.216,-9.87757 209.181,-8.616 211.287,-7.42949 213.529,-6.32129 215.897,-5.29443 218.385,-4.35174 220.982,-3.49579 223.68,-2.72894 226.468,-2.05327 229.336,-1.47066 232.271,-0.982683 235.263,-0.590689 238.299,-0.29575 241.367,-0.0986735 244.453,-3.62377e-13 247.547,-3.69482e-13 250.633,-0.0986735"/>
<text text-anchor="middle" x="246" y="-25.9" font-family="Times,serif" font-size="12.00">[#](69,)</text>
</g>
<!-- Block1546&#45;&gt;Block1546_Output_0 -->
<g id="edge4" class="edge"><title>Block1546&#45;&gt;Block1546_Output_0</title>
<path fill="none" stroke="black" d="M246,-118.896C246,-107.327 246,-94.2965 246,-82.0893"/>
<polygon fill="black" stroke="black" points="249.5,-82.079 246,-72.0791 242.5,-82.0791 249.5,-82.079"/>
<text text-anchor="middle" x="261.5" y="-93" font-family="Times,serif" font-size="10.00">[#](69,)</text>
</g>
<!-- Parameter1513 -->
<g id="node2" class="node"><title>Parameter1513</title>
<polygon fill="lightgray" stroke="black" points="192,-306.5 120,-306.5 120,-263.5 192,-263.5 192,-306.5"/>
<text text-anchor="middle" x="156" y="-288.4" font-family="Times,serif" font-size="12.00">W</text>
<text text-anchor="middle" x="156" y="-275.4" font-family="Times,serif" font-size="12.00">(512, 69)</text>
</g>
<!-- Parameter1513&#45;&gt;Block1546 -->
<g id="edge1" class="edge"><title>Parameter1513&#45;&gt;Block1546</title>
<path fill="none" stroke="black" d="M168.878,-263.332C178.518,-248.101 192.193,-226.994 205,-209 207.287,-205.786 209.688,-202.494 212.132,-199.201"/>
<polygon fill="black" stroke="black" points="215.044,-201.152 218.255,-191.056 209.448,-196.946 215.044,-201.152"/>
<text text-anchor="middle" x="223.5" y="-223" font-family="Times,serif" font-size="10.00">W</text>
<text text-anchor="middle" x="223.5" y="-212" font-family="Times,serif" font-size="10.00">(512, 69)</text>
</g>
<!-- Parameter1514 -->
<g id="node3" class="node"><title>Parameter1514</title>
<polygon fill="lightgray" stroke="black" points="282,-306.5 210,-306.5 210,-263.5 282,-263.5 282,-306.5"/>
<text text-anchor="middle" x="246" y="-288.4" font-family="Times,serif" font-size="12.00">b</text>
<text text-anchor="middle" x="246" y="-275.4" font-family="Times,serif" font-size="12.00">(69,)</text>
</g>
<!-- Parameter1514&#45;&gt;Block1546 -->
<g id="edge2" class="edge"><title>Parameter1514&#45;&gt;Block1546</title>
<path fill="none" stroke="black" d="M246,-263.435C246,-246.673 246,-222.385 246,-201.141"/>
<polygon fill="black" stroke="black" points="249.5,-201.003 246,-191.003 242.5,-201.003 249.5,-201.003"/>
<text text-anchor="middle" x="255.5" y="-223" font-family="Times,serif" font-size="10.00">b</text>
<text text-anchor="middle" x="255.5" y="-212" font-family="Times,serif" font-size="10.00">(69,)</text>
</g>
<!-- Block1504 -->
<g id="node4" class="node"><title>Block1504</title>
<polygon fill="lightgray" stroke="black" stroke-width="4" points="394,-321 300,-321 300,-249 394,-249 394,-321"/>
<text text-anchor="middle" x="347" y="-281.9" font-family="Times,serif" font-size="12.00">Sequence::Slice</text>
</g>
<!-- Block1504&#45;&gt;Block1546 -->
<g id="edge3" class="edge"><title>Block1504&#45;&gt;Block1546</title>
<path fill="none" stroke="black" d="M319.134,-248.685C307.101,-233.435 292.907,-215.446 280.24,-199.393"/>
<polygon fill="black" stroke="black" points="282.717,-196.882 273.775,-191.2 277.222,-201.219 282.717,-196.882"/>
<text text-anchor="middle" x="348.5" y="-223" font-family="Times,serif" font-size="10.00">Block1504_Output_0</text>
<text text-anchor="middle" x="348.5" y="-212" font-family="Times,serif" font-size="10.00">[#](512,)</text>
</g>
<!-- NoOp1393 -->
<g id="node6" class="node"><title>NoOp1393</title>
<ellipse fill="lightgray" stroke="black" stroke-width="4" cx="347" cy="-400.5" rx="14.5" ry="14.5"/>
<text text-anchor="middle" x="347" y="-397.4" font-family="Times,serif" font-size="12.00">NoOp</text>
</g>
<!-- NoOp1393&#45;&gt;Block1504 -->
<g id="edge5" class="edge"><title>NoOp1393&#45;&gt;Block1504</title>
<path fill="none" stroke="black" d="M347,-385.583C347,-372.135 347,-351.017 347,-331.681"/>
<polygon fill="black" stroke="black" points="350.5,-331.484 347,-321.484 343.5,-331.484 350.5,-331.484"/>
<text text-anchor="middle" x="368.5" y="-353" font-family="Times,serif" font-size="10.00">gru</text>
<text text-anchor="middle" x="368.5" y="-342" font-family="Times,serif" font-size="10.00">[#,*](512,)</text>
</g>
<!-- Block1369 -->
<g id="node7" class="node"><title>Block1369</title>
<polygon fill="lightgray" stroke="black" stroke-width="4" points="263,-552 169,-552 169,-480 263,-480 263,-552"/>
<text text-anchor="middle" x="216" y="-512.9" font-family="Times,serif" font-size="12.00">GRU</text>
</g>
<!-- Block1369&#45;&gt;NoOp1393 -->
<g id="edge6" class="edge"><title>Block1369&#45;&gt;NoOp1393</title>
<path fill="none" stroke="black" d="M263.089,-498.642C282.325,-490.105 303.618,-478.038 319,-462 329.014,-451.559 335.924,-436.89 340.375,-424.611"/>
<polygon fill="black" stroke="black" points="343.735,-425.597 343.548,-415.004 337.088,-423.402 343.735,-425.597"/>
<text text-anchor="middle" x="379.5" y="-454" font-family="Times,serif" font-size="10.00">Block1369_Output_0</text>
<text text-anchor="middle" x="379.5" y="-443" font-family="Times,serif" font-size="10.00">[#,*](512,)</text>
</g>
<!-- PastValue1203 -->
<g id="node12" class="node"><title>PastValue1203</title>
<polygon fill="lightgray" stroke="black" stroke-width="4" points="134.5,-422 69.5,-422 69.5,-379 134.5,-379 134.5,-422"/>
<text text-anchor="middle" x="102" y="-397.4" font-family="Times,serif" font-size="12.00">PastValue</text>
</g>
<!-- Block1369&#45;&gt;PastValue1203 -->
<g id="edge13" class="edge"><title>Block1369&#45;&gt;PastValue1203</title>
<path fill="none" stroke="black" d="M168.804,-506.406C143.49,-499.135 114.408,-485.895 99,-462 93.4167,-453.341 92.546,-442.449 93.5988,-432.302"/>
<polygon fill="black" stroke="black" points="97.1039,-432.557 95.2753,-422.121 90.1969,-431.419 97.1039,-432.557"/>
<text text-anchor="middle" x="144.5" y="-454" font-family="Times,serif" font-size="10.00">Block1369_Output_0</text>
<text text-anchor="middle" x="144.5" y="-443" font-family="Times,serif" font-size="10.00">[#,*](512,)</text>
</g>
<!-- Parameter438 -->
<g id="node8" class="node"><title>Parameter438</title>
<polygon fill="lightgray" stroke="black" points="72,-653 0,-653 0,-610 72,-610 72,-653"/>
<text text-anchor="middle" x="36" y="-634.9" font-family="Times,serif" font-size="12.00">b</text>
<text text-anchor="middle" x="36" y="-621.9" font-family="Times,serif" font-size="12.00">(1536,)</text>
</g>
<!-- Parameter438&#45;&gt;Block1369 -->
<g id="edge7" class="edge"><title>Parameter438&#45;&gt;Block1369</title>
<path fill="none" stroke="black" d="M61.1891,-609.801C76.5786,-597.578 96.9102,-582.167 116,-570 129.859,-561.167 145.336,-552.449 159.896,-544.712"/>
<polygon fill="black" stroke="black" points="161.59,-547.776 168.819,-540.03 158.338,-541.577 161.59,-547.776"/>
<text text-anchor="middle" x="131" y="-584" font-family="Times,serif" font-size="10.00">b</text>
<text text-anchor="middle" x="131" y="-573" font-family="Times,serif" font-size="10.00">(1536,)</text>
</g>
<!-- Parameter439 -->
<g id="node9" class="node"><title>Parameter439</title>
<polygon fill="lightgray" stroke="black" points="162,-653 90,-653 90,-610 162,-610 162,-653"/>
<text text-anchor="middle" x="126" y="-634.9" font-family="Times,serif" font-size="12.00">W</text>
<text text-anchor="middle" x="126" y="-621.9" font-family="Times,serif" font-size="12.00">(512, 1536)</text>
</g>
<!-- Parameter439&#45;&gt;Block1369 -->
<g id="edge8" class="edge"><title>Parameter439&#45;&gt;Block1369</title>
<path fill="none" stroke="black" d="M137.457,-609.876C144.513,-597.822 154.085,-582.558 164,-570 166.651,-566.642 169.489,-563.265 172.42,-559.928"/>
<polygon fill="black" stroke="black" points="175.26,-562.007 179.386,-552.248 170.075,-557.304 175.26,-562.007"/>
<text text-anchor="middle" x="188" y="-584" font-family="Times,serif" font-size="10.00">W</text>
<text text-anchor="middle" x="188" y="-573" font-family="Times,serif" font-size="10.00">(512, 1536)</text>
</g>
<!-- Parameter440 -->
<g id="node10" class="node"><title>Parameter440</title>
<polygon fill="lightgray" stroke="black" points="252,-653 180,-653 180,-610 252,-610 252,-653"/>
<text text-anchor="middle" x="216" y="-634.9" font-family="Times,serif" font-size="12.00">H</text>
<text text-anchor="middle" x="216" y="-621.9" font-family="Times,serif" font-size="12.00">(512, 1024)</text>
</g>
<!-- Parameter440&#45;&gt;Block1369 -->
<g id="edge9" class="edge"><title>Parameter440&#45;&gt;Block1369</title>
<path fill="none" stroke="black" d="M216,-609.946C216,-596.615 216,-578.71 216,-562.174"/>
<polygon fill="black" stroke="black" points="219.5,-562.108 216,-552.108 212.5,-562.108 219.5,-562.108"/>
<text text-anchor="middle" x="240" y="-584" font-family="Times,serif" font-size="10.00">H</text>
<text text-anchor="middle" x="240" y="-573" font-family="Times,serif" font-size="10.00">(512, 1024)</text>
</g>
<!-- Parameter441 -->
<g id="node11" class="node"><title>Parameter441</title>
<polygon fill="lightgray" stroke="black" points="342,-653 270,-653 270,-610 342,-610 342,-653"/>
<text text-anchor="middle" x="306" y="-634.9" font-family="Times,serif" font-size="12.00">H1</text>
<text text-anchor="middle" x="306" y="-621.9" font-family="Times,serif" font-size="12.00">(512, 512)</text>
</g>
<!-- Parameter441&#45;&gt;Block1369 -->
<g id="edge10" class="edge"><title>Parameter441&#45;&gt;Block1369</title>
<path fill="none" stroke="black" d="M294.543,-609.876C287.487,-597.822 277.915,-582.558 268,-570 265.349,-566.642 262.511,-563.265 259.58,-559.928"/>
<polygon fill="black" stroke="black" points="261.925,-557.304 252.614,-552.248 256.74,-562.007 261.925,-557.304"/>
<text text-anchor="middle" x="304.5" y="-584" font-family="Times,serif" font-size="10.00">H1</text>
<text text-anchor="middle" x="304.5" y="-573" font-family="Times,serif" font-size="10.00">(512, 512)</text>
</g>
<!-- PastValue1203&#45;&gt;Block1369 -->
<g id="edge11" class="edge"><title>PastValue1203&#45;&gt;Block1369</title>
<path fill="none" stroke="black" d="M134.672,-407.737C154.413,-413.117 178.645,-422.838 194,-440 201.482,-448.362 206.425,-459.147 209.69,-469.917"/>
<polygon fill="black" stroke="black" points="206.338,-470.935 212.241,-479.733 213.113,-469.175 206.338,-470.935"/>
<text text-anchor="middle" x="261" y="-454" font-family="Times,serif" font-size="10.00">PastValue1203_Output_0</text>
<text text-anchor="middle" x="261" y="-443" font-family="Times,serif" font-size="10.00">[#,*](512,)</text>
</g>
<!-- NoOp1300 -->
<g id="node13" class="node"><title>NoOp1300</title>
<ellipse fill="lightgray" stroke="black" stroke-width="4" cx="491" cy="-631.5" rx="14.5" ry="14.5"/>
<text text-anchor="middle" x="491" y="-628.4" font-family="Times,serif" font-size="12.00">NoOp</text>
</g>
<!-- NoOp1300&#45;&gt;Block1369 -->
<g id="edge12" class="edge"><title>NoOp1300&#45;&gt;Block1369</title>
<path fill="none" stroke="black" d="M477.736,-625.026C441.28,-609.979 337.935,-567.326 272.54,-540.335"/>
<polygon fill="black" stroke="black" points="273.758,-537.052 263.179,-536.472 271.087,-543.522 273.758,-537.052"/>
<text text-anchor="middle" x="416.5" y="-584" font-family="Times,serif" font-size="10.00">gru</text>
<text text-anchor="middle" x="416.5" y="-573" font-family="Times,serif" font-size="10.00">[#,*](512,)</text>
</g>
<!-- Constant534 -->
<g id="node14" class="node"><title>Constant534</title>
<polygon fill="white" stroke="white" points="42.5,-527 9.5,-527 9.5,-505 42.5,-505 42.5,-527"/>
<text text-anchor="middle" x="26" y="-512.9" font-family="Times,serif" font-size="12.00">[0.]</text>
</g>
<!-- Constant534&#45;&gt;PastValue1203 -->
<g id="edge14" class="edge"><title>Constant534&#45;&gt;PastValue1203</title>
<path fill="none" stroke="black" d="M23.0722,-504.872C19.2754,-489.553 14.5127,-460.143 27,-440 34.5086,-427.888 47.155,-419.42 59.9447,-413.576"/>
<polygon fill="black" stroke="black" points="61.2911,-416.807 69.2116,-409.77 58.6316,-410.332 61.2911,-416.807"/>
<text text-anchor="middle" x="53.5" y="-454" font-family="Times,serif" font-size="10.00">Constant534</text>
<text text-anchor="middle" x="53.5" y="-443" font-family="Times,serif" font-size="10.00">(1,)</text>
</g>
<!-- Block1276 -->
<g id="node15" class="node"><title>Block1276</title>
<polygon fill="lightgray" stroke="black" stroke-width="4" points="497,-783 403,-783 403,-711 497,-711 497,-783"/>
<text text-anchor="middle" x="450" y="-743.9" font-family="Times,serif" font-size="12.00">GRU</text>
</g>
<!-- Block1276&#45;&gt;NoOp1300 -->
<g id="edge15" class="edge"><title>Block1276&#45;&gt;NoOp1300</title>
<path fill="none" stroke="black" d="M497.137,-735.526C519.99,-727.819 545.383,-714.762 559,-693 564.186,-684.711 563.924,-679.447 559,-671 549.472,-654.656 530.146,-644.694 514.524,-639.011"/>
<polygon fill="black" stroke="black" points="515.526,-635.656 504.934,-635.87 513.348,-642.308 515.526,-635.656"/>
<text text-anchor="middle" x="608.5" y="-685" font-family="Times,serif" font-size="10.00">Block1276_Output_0</text>
<text text-anchor="middle" x="608.5" y="-674" font-family="Times,serif" font-size="10.00">[#,*](512,)</text>
</g>
<!-- PastValue1206 -->
<g id="node20" class="node"><title>PastValue1206</title>
<polygon fill="lightgray" stroke="black" stroke-width="4" points="425.5,-653 360.5,-653 360.5,-610 425.5,-610 425.5,-653"/>
<text text-anchor="middle" x="393" y="-628.4" font-family="Times,serif" font-size="12.00">PastValue</text>
</g>
<!-- Block1276&#45;&gt;PastValue1206 -->
<g id="edge22" class="edge"><title>Block1276&#45;&gt;PastValue1206</title>
<path fill="none" stroke="black" d="M402.804,-737.406C377.49,-730.135 348.408,-716.895 333,-693 327.701,-684.783 328.311,-679.58 333,-671 335.496,-666.432 342.83,-660.709 351.553,-655.084"/>
<polygon fill="black" stroke="black" points="353.536,-657.974 360.229,-649.761 349.875,-652.007 353.536,-657.974"/>
<text text-anchor="middle" x="378.5" y="-685" font-family="Times,serif" font-size="10.00">Block1276_Output_0</text>
<text text-anchor="middle" x="378.5" y="-674" font-family="Times,serif" font-size="10.00">[#,*](512,)</text>
</g>
<!-- Parameter5 -->
<g id="node16" class="node"><title>Parameter5</title>
<polygon fill="lightgray" stroke="black" points="306,-898.5 234,-898.5 234,-855.5 306,-855.5 306,-898.5"/>
<text text-anchor="middle" x="270" y="-880.4" font-family="Times,serif" font-size="12.00">b</text>
<text text-anchor="middle" x="270" y="-867.4" font-family="Times,serif" font-size="12.00">(1536,)</text>
</g>
<!-- Parameter5&#45;&gt;Block1276 -->
<g id="edge16" class="edge"><title>Parameter5&#45;&gt;Block1276</title>
<path fill="none" stroke="black" d="M290.946,-855.225C307.532,-839.358 331.708,-817.486 355,-801 367.149,-792.401 380.822,-784.073 393.929,-776.665"/>
<polygon fill="black" stroke="black" points="395.843,-779.605 402.886,-771.691 392.445,-773.485 395.843,-779.605"/>
<text text-anchor="middle" x="370" y="-815" font-family="Times,serif" font-size="10.00">b</text>
<text text-anchor="middle" x="370" y="-804" font-family="Times,serif" font-size="10.00">(1536,)</text>
</g>
<!-- Parameter6 -->
<g id="node17" class="node"><title>Parameter6</title>
<polygon fill="lightgray" stroke="black" points="396,-898.5 324,-898.5 324,-855.5 396,-855.5 396,-898.5"/>
<text text-anchor="middle" x="360" y="-880.4" font-family="Times,serif" font-size="12.00">W</text>
<text text-anchor="middle" x="360" y="-867.4" font-family="Times,serif" font-size="12.00">(69, 1536)</text>
</g>
<!-- Parameter6&#45;&gt;Block1276 -->
<g id="edge17" class="edge"><title>Parameter6&#45;&gt;Block1276</title>
<path fill="none" stroke="black" d="M370.418,-855.25C378.527,-839.79 390.476,-818.43 403,-801 405.422,-797.629 408.022,-794.226 410.711,-790.858"/>
<polygon fill="black" stroke="black" points="413.451,-793.037 417.107,-783.092 408.048,-788.586 413.451,-793.037"/>
<text text-anchor="middle" x="424.5" y="-815" font-family="Times,serif" font-size="10.00">W</text>
<text text-anchor="middle" x="424.5" y="-804" font-family="Times,serif" font-size="10.00">(69, 1536)</text>
</g>
<!-- Parameter7 -->
<g id="node18" class="node"><title>Parameter7</title>
<polygon fill="lightgray" stroke="black" points="486,-898.5 414,-898.5 414,-855.5 486,-855.5 486,-898.5"/>
<text text-anchor="middle" x="450" y="-880.4" font-family="Times,serif" font-size="12.00">H</text>
<text text-anchor="middle" x="450" y="-867.4" font-family="Times,serif" font-size="12.00">(512, 1024)</text>
</g>
<!-- Parameter7&#45;&gt;Block1276 -->
<g id="edge18" class="edge"><title>Parameter7&#45;&gt;Block1276</title>
<path fill="none" stroke="black" d="M450,-855.435C450,-838.673 450,-814.385 450,-793.141"/>
<polygon fill="black" stroke="black" points="453.5,-793.003 450,-783.003 446.5,-793.003 453.5,-793.003"/>
<text text-anchor="middle" x="474" y="-815" font-family="Times,serif" font-size="10.00">H</text>
<text text-anchor="middle" x="474" y="-804" font-family="Times,serif" font-size="10.00">(512, 1024)</text>
</g>
<!-- Parameter8 -->
<g id="node19" class="node"><title>Parameter8</title>
<polygon fill="lightgray" stroke="black" points="576,-898.5 504,-898.5 504,-855.5 576,-855.5 576,-898.5"/>
<text text-anchor="middle" x="540" y="-880.4" font-family="Times,serif" font-size="12.00">H1</text>
<text text-anchor="middle" x="540" y="-867.4" font-family="Times,serif" font-size="12.00">(512, 512)</text>
</g>
<!-- Parameter8&#45;&gt;Block1276 -->
<g id="edge19" class="edge"><title>Parameter8&#45;&gt;Block1276</title>
<path fill="none" stroke="black" d="M531.581,-855.301C524.746,-839.673 514.254,-818.078 502,-801 499.548,-797.583 496.877,-794.176 494.081,-790.833"/>
<polygon fill="black" stroke="black" points="496.597,-788.393 487.379,-783.17 491.328,-793.001 496.597,-788.393"/>
<text text-anchor="middle" x="537.5" y="-815" font-family="Times,serif" font-size="10.00">H1</text>
<text text-anchor="middle" x="537.5" y="-804" font-family="Times,serif" font-size="10.00">(512, 512)</text>
</g>
<!-- PastValue1206&#45;&gt;Block1276 -->
<g id="edge20" class="edge"><title>PastValue1206&#45;&gt;Block1276</title>
<path fill="none" stroke="black" d="M414.866,-653.135C419.718,-658.576 424.462,-664.699 428,-671 433.185,-680.236 437.254,-690.812 440.404,-701.052"/>
<polygon fill="black" stroke="black" points="437.049,-702.051 443.15,-710.713 443.783,-700.137 437.049,-702.051"/>
<text text-anchor="middle" x="492" y="-685" font-family="Times,serif" font-size="10.00">PastValue1206_Output_0</text>
<text text-anchor="middle" x="492" y="-674" font-family="Times,serif" font-size="10.00">[#,*](512,)</text>
</g>
<!-- Input3 -->
<g id="node21" class="node"><title>Input3</title>
<polygon fill="lightgray" stroke="black" stroke-width="4" points="648.633,-841.099 651.701,-841.296 654.737,-841.591 657.729,-841.983 660.664,-842.471 663.532,-843.053 666.32,-843.729 669.018,-844.496 671.615,-845.352 674.103,-846.294 676.471,-847.321 678.713,-848.429 680.819,-849.616 682.784,-850.878 684.602,-852.211 686.268,-853.612 687.777,-855.077 689.126,-856.602 690.314,-858.184 691.338,-859.816 692.198,-861.496 692.895,-863.219 693.428,-864.979 693.799,-866.772 694.012,-868.593 694.07,-870.437 693.975,-872.299 693.733,-874.175 693.348,-876.057 692.826,-877.943 692.172,-879.825 691.392,-881.701 690.493,-883.563 689.481,-885.407 688.364,-887.228 687.147,-889.021 685.837,-890.781 684.442,-892.504 682.968,-894.184 681.421,-895.816 679.809,-897.398 678.136,-898.923 676.41,-900.388 674.635,-901.789 672.817,-903.122 670.961,-904.384 669.072,-905.571 667.154,-906.679 665.21,-907.706 663.245,-908.648 661.261,-909.504 659.262,-910.271 657.251,-910.947 655.228,-911.529 653.197,-912.017 651.16,-912.409 649.118,-912.704 647.072,-912.901 645.024,-913 642.976,-913 640.928,-912.901 638.882,-912.704 636.84,-912.409 634.803,-912.017 632.772,-911.529 630.749,-910.947 628.738,-910.271 626.739,-909.504 624.755,-908.648 622.79,-907.706 620.846,-906.679 618.928,-905.571 617.039,-904.384 615.183,-903.122 613.365,-901.789 611.59,-900.388 609.864,-898.923 608.191,-897.398 606.579,-895.816 605.032,-894.184 603.558,-892.504 602.163,-890.781 600.853,-889.021 599.636,-887.228 598.519,-885.407 597.507,-883.563 596.608,-881.701 595.828,-879.825 595.174,-877.943 594.652,-876.057 594.267,-874.175 594.025,-872.299 593.93,-870.437 593.988,-868.593 594.201,-866.772 594.572,-864.979 595.105,-863.219 595.802,-861.496 596.662,-859.816 597.686,-858.184 598.874,-856.602 600.223,-855.077 601.732,-853.612 603.398,-852.211 605.216,-850.878 607.181,-849.616 609.287,-848.429 611.529,-847.321 613.897,-846.294 616.385,-845.352 618.982,-844.496 621.68,-843.729 624.468,-843.053 627.336,-842.471 630.271,-841.983 633.263,-841.591 636.299,-841.296 639.367,-841.099 642.453,-841 645.547,-841 648.633,-841.099"/>
<text text-anchor="middle" x="644" y="-886.9" font-family="Times,serif" font-size="12.00">Input</text>
<text text-anchor="middle" x="644" y="-873.9" font-family="Times,serif" font-size="12.00">inputs</text>
<text text-anchor="middle" x="644" y="-860.9" font-family="Times,serif" font-size="12.00">[#,*](69,)</text>
</g>
<!-- Input3&#45;&gt;Block1276 -->
<g id="edge21" class="edge"><title>Input3&#45;&gt;Block1276</title>
<path fill="none" stroke="black" d="M615.487,-845.498C600.748,-830.843 581.916,-813.741 563,-801 545.55,-789.246 525.081,-778.784 506.394,-770.325"/>
<polygon fill="black" stroke="black" points="507.659,-767.057 497.098,-766.212 504.827,-773.459 507.659,-767.057"/>
<text text-anchor="middle" x="609" y="-815" font-family="Times,serif" font-size="10.00">inputs</text>
<text text-anchor="middle" x="609" y="-804" font-family="Times,serif" font-size="10.00">[#,*](69,)</text>
</g>
<!-- Constant101 -->
<g id="node22" class="node"><title>Constant101</title>
<polygon fill="white" stroke="white" points="276.5,-758 243.5,-758 243.5,-736 276.5,-736 276.5,-758"/>
<text text-anchor="middle" x="260" y="-743.9" font-family="Times,serif" font-size="12.00">[0.]</text>
</g>
<!-- Constant101&#45;&gt;PastValue1206 -->
<g id="edge23" class="edge"><title>Constant101&#45;&gt;PastValue1206</title>
<path fill="none" stroke="black" d="M258.568,-735.991C256.89,-720.017 256.196,-688.757 273,-671 295.543,-647.177 314.31,-662.076 350.657,-652.375"/>
<polygon fill="black" stroke="black" points="351.804,-655.684 360.29,-649.34 349.7,-649.007 351.804,-655.684"/>
<text text-anchor="middle" x="299.5" y="-685" font-family="Times,serif" font-size="10.00">Constant101</text>
<text text-anchor="middle" x="299.5" y="-674" font-family="Times,serif" font-size="10.00">(1,)</text>
</g>
</g>
</svg>
