<?xml version="1.0" encoding="UTF-8" standalone="no"?>
<!DOCTYPE svg PUBLIC "-//W3C//DTD SVG 1.1//EN"
 "http://www.w3.org/Graphics/SVG/1.1/DTD/svg11.dtd">
<!-- Generated by graphviz version 2.38.0 (20140413.2041)
 -->
<!-- Title: network_graph Pages: 1 -->
<svg width="756pt" height="1095pt"
 viewBox="0.00 0.00 756.00 1095.00" xmlns="http://www.w3.org/2000/svg" xmlns:xlink="http://www.w3.org/1999/xlink">
<g id="graph0" class="graph" transform="scale(1 1) rotate(0) translate(4 1091)">
<title>network_graph</title>
<polygon fill="white" stroke="none" points="-4,4 -4,-1091 752,-1091 752,4 -4,4"/>
<!-- Block1269 -->
<g id="node1" class="node"><title>Block1269</title>
<polygon fill="lightgray" stroke="black" stroke-width="4" points="173,-191 79,-191 79,-119 173,-119 173,-191"/>
<text text-anchor="middle" x="126" y="-151.9" font-family="Times,serif" font-size="12.00">Dense</text>
</g>
<!-- Block1269_Output_0 -->
<g id="node5" class="node"><title>Block1269_Output_0</title>
<polygon fill="lightgray" stroke="black" stroke-width="4" points="130.633,-0.0986735 133.701,-0.29575 136.737,-0.590689 139.729,-0.982683 142.664,-1.47066 145.532,-2.05327 148.32,-2.72894 151.018,-3.49579 153.615,-4.35174 156.103,-5.29443 158.471,-6.32129 160.713,-7.42949 162.819,-8.616 164.784,-9.87757 166.602,-11.2107 168.268,-12.6119 169.777,-14.0771 171.126,-15.6024 172.314,-17.1836 173.338,-18.8164 174.198,-20.4963 174.895,-22.2187 175.428,-23.9788 175.799,-25.7719 176.012,-27.5931 176.07,-29.4373 175.975,-31.2994 175.733,-33.1745 175.348,-35.0573 174.826,-36.9427 174.172,-38.8255 173.392,-40.7006 172.493,-42.5627 171.481,-44.4069 170.364,-46.2281 169.147,-48.0212 167.837,-49.7813 166.442,-51.5037 164.968,-53.1836 163.421,-54.8164 161.809,-56.3976 160.136,-57.9229 158.41,-59.3881 156.635,-60.7893 154.817,-62.1224 152.961,-63.384 151.072,-64.5705 149.154,-65.6787 147.21,-66.7056 145.245,-67.6483 143.261,-68.5042 141.262,-69.2711 139.251,-69.9467 137.228,-70.5293 135.197,-71.0173 133.16,-71.4093 131.118,-71.7042 129.072,-71.9013 127.024,-72 124.976,-72 122.928,-71.9013 120.882,-71.7042 118.84,-71.4093 116.803,-71.0173 114.772,-70.5293 112.749,-69.9467 110.738,-69.2711 108.739,-68.5042 106.755,-67.6483 104.79,-66.7056 102.846,-65.6787 100.928,-64.5705 99.0386,-63.384 97.1827,-62.1224 95.3649,-60.7893 93.5901,-59.3881 91.8637,-57.9229 90.1912,-56.3976 88.5786,-54.8164 87.0321,-53.1836 85.5579,-51.5037 84.1628,-49.7813 82.8533,-48.0212 81.6363,-46.2281 80.5186,-44.4069 79.5069,-42.5627 78.608,-40.7006 77.8284,-38.8255 77.1743,-36.9427 76.652,-35.0573 76.267,-33.1745 76.0248,-31.2994 75.9302,-29.4373 75.9875,-27.5931 76.2005,-25.7719 76.5723,-23.9788 77.1055,-22.2187 77.8016,-20.4963 78.6616,-18.8164 79.6859,-17.1836 80.8735,-15.6024 82.2232,-14.0771 83.7324,-12.6119 85.398,-11.2107 87.2158,-9.87757 89.1809,-8.616 91.2873,-7.42949 93.5285,-6.32129 95.897,-5.29443 98.3845,-4.35174 100.982,-3.49579 103.68,-2.72894 106.468,-2.05327 109.336,-1.47066 112.271,-0.982683 115.263,-0.590689 118.299,-0.29575 121.367,-0.0986735 124.453,-3.62377e-13 127.547,-3.69482e-13 130.633,-0.0986735"/>
<text text-anchor="middle" x="126" y="-25.9" font-family="Times,serif" font-size="12.00">[#](69,)</text>
</g>
<!-- Block1269&#45;&gt;Block1269_Output_0 -->
<g id="edge4" class="edge"><title>Block1269&#45;&gt;Block1269_Output_0</title>
<path fill="none" stroke="black" d="M126,-118.896C126,-107.327 126,-94.2965 126,-82.0893"/>
<polygon fill="black" stroke="black" points="129.5,-82.079 126,-72.0791 122.5,-82.0791 129.5,-82.079"/>
<text text-anchor="middle" x="141.5" y="-93" font-family="Times,serif" font-size="10.00">[#](69,)</text>
</g>
<!-- Parameter1236 -->
<g id="node2" class="node"><title>Parameter1236</title>
<polygon fill="lightgray" stroke="black" points="72,-306.5 0,-306.5 0,-263.5 72,-263.5 72,-306.5"/>
<text text-anchor="middle" x="36" y="-288.4" font-family="Times,serif" font-size="12.00">W</text>
<text text-anchor="middle" x="36" y="-275.4" font-family="Times,serif" font-size="12.00">(512, 69)</text>
</g>
<!-- Parameter1236&#45;&gt;Block1269 -->
<g id="edge1" class="edge"><title>Parameter1236&#45;&gt;Block1269</title>
<path fill="none" stroke="black" d="M48.8775,-263.332C58.5176,-248.101 72.193,-226.994 85,-209 87.2872,-205.786 89.6878,-202.494 92.1316,-199.201"/>
<polygon fill="black" stroke="black" points="95.0435,-201.152 98.2553,-191.056 89.4484,-196.946 95.0435,-201.152"/>
<text text-anchor="middle" x="103.5" y="-223" font-family="Times,serif" font-size="10.00">W</text>
<text text-anchor="middle" x="103.5" y="-212" font-family="Times,serif" font-size="10.00">(512, 69)</text>
</g>
<!-- Parameter1237 -->
<g id="node3" class="node"><title>Parameter1237</title>
<polygon fill="lightgray" stroke="black" points="162,-306.5 90,-306.5 90,-263.5 162,-263.5 162,-306.5"/>
<text text-anchor="middle" x="126" y="-288.4" font-family="Times,serif" font-size="12.00">b</text>
<text text-anchor="middle" x="126" y="-275.4" font-family="Times,serif" font-size="12.00">(69,)</text>
</g>
<!-- Parameter1237&#45;&gt;Block1269 -->
<g id="edge2" class="edge"><title>Parameter1237&#45;&gt;Block1269</title>
<path fill="none" stroke="black" d="M126,-263.435C126,-246.673 126,-222.385 126,-201.141"/>
<polygon fill="black" stroke="black" points="129.5,-201.003 126,-191.003 122.5,-201.003 129.5,-201.003"/>
<text text-anchor="middle" x="135.5" y="-223" font-family="Times,serif" font-size="10.00">b</text>
<text text-anchor="middle" x="135.5" y="-212" font-family="Times,serif" font-size="10.00">(69,)</text>
</g>
<!-- Block1227 -->
<g id="node4" class="node"><title>Block1227</title>
<polygon fill="lightgray" stroke="black" stroke-width="4" points="274,-321 180,-321 180,-249 274,-249 274,-321"/>
<text text-anchor="middle" x="227" y="-281.9" font-family="Times,serif" font-size="12.00">Sequence::Slice</text>
</g>
<!-- Block1227&#45;&gt;Block1269 -->
<g id="edge3" class="edge"><title>Block1227&#45;&gt;Block1269</title>
<path fill="none" stroke="black" d="M199.134,-248.685C187.101,-233.435 172.907,-215.446 160.24,-199.393"/>
<polygon fill="black" stroke="black" points="162.717,-196.882 153.775,-191.2 157.222,-201.219 162.717,-196.882"/>
<text text-anchor="middle" x="227.5" y="-223" font-family="Times,serif" font-size="10.00">Block1227_Output_0</text>
<text text-anchor="middle" x="227.5" y="-212" font-family="Times,serif" font-size="10.00">[#](512,)</text>
</g>
<!-- Plus1206 -->
<g id="node6" class="node"><title>Plus1206</title>
<ellipse fill="lightgray" stroke="black" stroke-width="4" cx="227" cy="-393.5" rx="14.5" ry="14.5"/>
<text text-anchor="middle" x="227" y="-388.5" font-family="Times,serif" font-size="20.00">+</text>
</g>
<!-- Plus1206&#45;&gt;Block1227 -->
<g id="edge5" class="edge"><title>Plus1206&#45;&gt;Block1227</title>
<path fill="none" stroke="black" d="M227,-378.577C227,-366.53 227,-348.417 227,-331.397"/>
<polygon fill="black" stroke="black" points="230.5,-331.006 227,-321.006 223.5,-331.006 230.5,-331.006"/>
<text text-anchor="middle" x="269" y="-353" font-family="Times,serif" font-size="10.00">Plus1206_Output_0</text>
<text text-anchor="middle" x="269" y="-342" font-family="Times,serif" font-size="10.00">[#,*](512,)</text>
</g>
<!-- ElementTimes1203 -->
<g id="node7" class="node"><title>ElementTimes1203</title>
<ellipse fill="lightgray" stroke="black" stroke-width="4" cx="392" cy="-480.5" rx="14.5" ry="14.5"/>
<text text-anchor="middle" x="392" y="-475.5" font-family="Times,serif" font-size="20.00">*</text>
</g>
<!-- ElementTimes1203&#45;&gt;Plus1206 -->
<g id="edge6" class="edge"><title>ElementTimes1203&#45;&gt;Plus1206</title>
<path fill="none" stroke="black" d="M379.327,-472.971C351.304,-458.535 283.801,-423.761 248.828,-405.744"/>
<polygon fill="black" stroke="black" points="249.983,-402.403 239.491,-400.935 246.778,-408.626 249.983,-402.403"/>
<text text-anchor="middle" x="391.5" y="-440" font-family="Times,serif" font-size="10.00">ElementTimes1203_Output_0</text>
<text text-anchor="middle" x="391.5" y="-429" font-family="Times,serif" font-size="10.00">[#,*](512,)</text>
</g>
<!-- NoOp533 -->
<g id="node8" class="node"><title>NoOp533</title>
<ellipse fill="lightgray" stroke="black" stroke-width="4" cx="218" cy="-805.5" rx="14.5" ry="14.5"/>
<text text-anchor="middle" x="218" y="-802.4" font-family="Times,serif" font-size="12.00">NoOp</text>
</g>
<!-- NoOp533&#45;&gt;Plus1206 -->
<g id="edge7" class="edge"><title>NoOp533&#45;&gt;Plus1206</title>
<path fill="none" stroke="black" d="M208.753,-794.082C192.847,-775.047 162,-732.748 162,-691 162,-691 162,-691 162,-479.5 162,-449.536 187.804,-423.587 206.895,-408.489"/>
<polygon fill="black" stroke="black" points="209.186,-411.145 215.078,-402.34 204.981,-405.549 209.186,-411.145"/>
<text text-anchor="middle" x="183.5" y="-577.5" font-family="Times,serif" font-size="10.00">gru</text>
<text text-anchor="middle" x="183.5" y="-566.5" font-family="Times,serif" font-size="10.00">[#,*](512,)</text>
</g>
<!-- Block1085 -->
<g id="node11" class="node"><title>Block1085</title>
<polygon fill="lightgray" stroke="black" stroke-width="4" points="436,-726 342,-726 342,-654 436,-654 436,-726"/>
<text text-anchor="middle" x="389" y="-686.9" font-family="Times,serif" font-size="12.00">GRU</text>
</g>
<!-- NoOp533&#45;&gt;Block1085 -->
<g id="edge16" class="edge"><title>NoOp533&#45;&gt;Block1085</title>
<path fill="none" stroke="black" d="M224.861,-792.326C232.947,-778.921 247.519,-757.487 265,-744 284.95,-728.609 310.042,-716.791 332.426,-708.263"/>
<polygon fill="black" stroke="black" points="333.651,-711.542 341.831,-704.809 331.237,-704.971 333.651,-711.542"/>
<text text-anchor="middle" x="286.5" y="-758" font-family="Times,serif" font-size="10.00">gru</text>
<text text-anchor="middle" x="286.5" y="-747" font-family="Times,serif" font-size="10.00">[#,*](512,)</text>
</g>
<!-- Constant1202 -->
<g id="node9" class="node"><title>Constant1202</title>
<polygon fill="white" stroke="white" points="408,-585.5 376,-585.5 376,-563.5 408,-563.5 408,-585.5"/>
<text text-anchor="middle" x="392" y="-571.4" font-family="Times,serif" font-size="12.00">0.3</text>
</g>
<!-- Constant1202&#45;&gt;ElementTimes1203 -->
<g id="edge8" class="edge"><title>Constant1202&#45;&gt;ElementTimes1203</title>
<path fill="none" stroke="black" d="M392,-563.303C392,-549.38 392,-524.006 392,-505.196"/>
<polygon fill="black" stroke="black" points="395.5,-505.016 392,-495.016 388.5,-505.016 395.5,-505.016"/>
<text text-anchor="middle" x="421" y="-527" font-family="Times,serif" font-size="10.00">Constant1202</text>
<text text-anchor="middle" x="421" y="-516" font-family="Times,serif" font-size="10.00">()</text>
</g>
<!-- NoOp1109 -->
<g id="node10" class="node"><title>NoOp1109</title>
<ellipse fill="lightgray" stroke="black" stroke-width="4" cx="509" cy="-574.5" rx="14.5" ry="14.5"/>
<text text-anchor="middle" x="509" y="-571.4" font-family="Times,serif" font-size="12.00">NoOp</text>
</g>
<!-- NoOp1109&#45;&gt;ElementTimes1203 -->
<g id="edge9" class="edge"><title>NoOp1109&#45;&gt;ElementTimes1203</title>
<path fill="none" stroke="black" d="M500.693,-562.095C490.723,-548.997 472.963,-527.461 454,-513 442.075,-503.905 427.125,-496.22 414.893,-490.718"/>
<polygon fill="black" stroke="black" points="415.953,-487.364 405.384,-486.626 413.186,-493.794 415.953,-487.364"/>
<text text-anchor="middle" x="498.5" y="-527" font-family="Times,serif" font-size="10.00">gru</text>
<text text-anchor="middle" x="498.5" y="-516" font-family="Times,serif" font-size="10.00">[#,*](512,)</text>
</g>
<!-- Block1085&#45;&gt;NoOp1109 -->
<g id="edge10" class="edge"><title>Block1085&#45;&gt;NoOp1109</title>
<path fill="none" stroke="black" d="M436.125,-672.944C454.815,-664.509 475.117,-652.437 489,-636 497.833,-625.541 502.8,-611.057 505.574,-598.883"/>
<polygon fill="black" stroke="black" points="509.035,-599.419 507.49,-588.938 502.162,-598.095 509.035,-599.419"/>
<text text-anchor="middle" x="545.5" y="-628" font-family="Times,serif" font-size="10.00">Block1085_Output_0</text>
<text text-anchor="middle" x="545.5" y="-617" font-family="Times,serif" font-size="10.00">[#,*](512,)</text>
</g>
<!-- PastValue1015 -->
<g id="node16" class="node"><title>PastValue1015</title>
<polygon fill="lightgray" stroke="black" stroke-width="4" points="309.5,-596 244.5,-596 244.5,-553 309.5,-553 309.5,-596"/>
<text text-anchor="middle" x="277" y="-571.4" font-family="Times,serif" font-size="12.00">PastValue</text>
</g>
<!-- Block1085&#45;&gt;PastValue1015 -->
<g id="edge17" class="edge"><title>Block1085&#45;&gt;PastValue1015</title>
<path fill="none" stroke="black" d="M395.547,-653.757C396.16,-640.163 394.278,-625.22 386,-614 370.691,-593.25 343.292,-583.63 319.795,-579.196"/>
<polygon fill="black" stroke="black" points="320.104,-575.7 309.672,-577.548 318.98,-582.609 320.104,-575.7"/>
<text text-anchor="middle" x="439.5" y="-628" font-family="Times,serif" font-size="10.00">Block1085_Output_0</text>
<text text-anchor="middle" x="439.5" y="-617" font-family="Times,serif" font-size="10.00">[#,*](512,)</text>
</g>
<!-- Parameter581 -->
<g id="node12" class="node"><title>Parameter581</title>
<polygon fill="lightgray" stroke="black" points="593,-827 521,-827 521,-784 593,-784 593,-827"/>
<text text-anchor="middle" x="557" y="-808.9" font-family="Times,serif" font-size="12.00">b</text>
<text text-anchor="middle" x="557" y="-795.9" font-family="Times,serif" font-size="12.00">(1536,)</text>
</g>
<!-- Parameter581&#45;&gt;Block1085 -->
<g id="edge11" class="edge"><title>Parameter581&#45;&gt;Block1085</title>
<path fill="none" stroke="black" d="M538.473,-783.811C526.573,-771.294 510.334,-755.57 494,-744 479.096,-733.443 461.788,-723.793 445.577,-715.705"/>
<polygon fill="black" stroke="black" points="446.707,-712.362 436.184,-711.128 443.641,-718.655 446.707,-712.362"/>
<text text-anchor="middle" x="534" y="-758" font-family="Times,serif" font-size="10.00">b</text>
<text text-anchor="middle" x="534" y="-747" font-family="Times,serif" font-size="10.00">(1536,)</text>
</g>
<!-- Parameter582 -->
<g id="node13" class="node"><title>Parameter582</title>
<polygon fill="lightgray" stroke="black" points="323,-827 251,-827 251,-784 323,-784 323,-827"/>
<text text-anchor="middle" x="287" y="-808.9" font-family="Times,serif" font-size="12.00">W</text>
<text text-anchor="middle" x="287" y="-795.9" font-family="Times,serif" font-size="12.00">(512, 1536)</text>
</g>
<!-- Parameter582&#45;&gt;Block1085 -->
<g id="edge12" class="edge"><title>Parameter582&#45;&gt;Block1085</title>
<path fill="none" stroke="black" d="M299.479,-783.984C307.294,-771.826 317.952,-756.419 329,-744 332.181,-740.424 335.593,-736.851 339.114,-733.345"/>
<polygon fill="black" stroke="black" points="341.69,-735.723 346.46,-726.262 336.831,-730.684 341.69,-735.723"/>
<text text-anchor="middle" x="353" y="-758" font-family="Times,serif" font-size="10.00">W</text>
<text text-anchor="middle" x="353" y="-747" font-family="Times,serif" font-size="10.00">(512, 1536)</text>
</g>
<!-- Parameter583 -->
<g id="node14" class="node"><title>Parameter583</title>
<polygon fill="lightgray" stroke="black" points="413,-827 341,-827 341,-784 413,-784 413,-827"/>
<text text-anchor="middle" x="377" y="-808.9" font-family="Times,serif" font-size="12.00">H</text>
<text text-anchor="middle" x="377" y="-795.9" font-family="Times,serif" font-size="12.00">(512, 1024)</text>
</g>
<!-- Parameter583&#45;&gt;Block1085 -->
<g id="edge13" class="edge"><title>Parameter583&#45;&gt;Block1085</title>
<path fill="none" stroke="black" d="M379.173,-783.946C380.583,-770.615 382.476,-752.71 384.224,-736.174"/>
<polygon fill="black" stroke="black" points="387.717,-736.421 385.288,-726.108 380.756,-735.685 387.717,-736.421"/>
<text text-anchor="middle" x="407" y="-758" font-family="Times,serif" font-size="10.00">H</text>
<text text-anchor="middle" x="407" y="-747" font-family="Times,serif" font-size="10.00">(512, 1024)</text>
</g>
<!-- Parameter584 -->
<g id="node15" class="node"><title>Parameter584</title>
<polygon fill="lightgray" stroke="black" points="503,-827 431,-827 431,-784 503,-784 503,-827"/>
<text text-anchor="middle" x="467" y="-808.9" font-family="Times,serif" font-size="12.00">H1</text>
<text text-anchor="middle" x="467" y="-795.9" font-family="Times,serif" font-size="12.00">(512, 512)</text>
</g>
<!-- Parameter584&#45;&gt;Block1085 -->
<g id="edge14" class="edge"><title>Parameter584&#45;&gt;Block1085</title>
<path fill="none" stroke="black" d="M457.584,-783.941C451.721,-771.909 443.663,-756.645 435,-744 432.74,-740.702 430.304,-737.379 427.774,-734.091"/>
<polygon fill="black" stroke="black" points="430.311,-731.659 421.338,-726.025 424.84,-736.025 430.311,-731.659"/>
<text text-anchor="middle" x="468.5" y="-758" font-family="Times,serif" font-size="10.00">H1</text>
<text text-anchor="middle" x="468.5" y="-747" font-family="Times,serif" font-size="10.00">(512, 512)</text>
</g>
<!-- PastValue1015&#45;&gt;Block1085 -->
<g id="edge15" class="edge"><title>PastValue1015&#45;&gt;Block1085</title>
<path fill="none" stroke="black" d="M272.202,-596.12C270.475,-608.612 270.506,-624.333 278,-636 290.31,-655.165 311.631,-667.561 332.318,-675.501"/>
<polygon fill="black" stroke="black" points="331.149,-678.8 341.744,-678.844 333.489,-672.202 331.149,-678.8"/>
<text text-anchor="middle" x="332" y="-628" font-family="Times,serif" font-size="10.00">PastValue1015_Output_0</text>
<text text-anchor="middle" x="332" y="-617" font-family="Times,serif" font-size="10.00">[#,*](512,)</text>
</g>
<!-- Constant677 -->
<g id="node17" class="node"><title>Constant677</title>
<polygon fill="white" stroke="white" points="223.5,-701 190.5,-701 190.5,-679 223.5,-679 223.5,-701"/>
<text text-anchor="middle" x="207" y="-686.9" font-family="Times,serif" font-size="12.00">[0.]</text>
</g>
<!-- Constant677&#45;&gt;PastValue1015 -->
<g id="edge18" class="edge"><title>Constant677&#45;&gt;PastValue1015</title>
<path fill="none" stroke="black" d="M202.885,-678.904C197.371,-663.626 189.621,-634.269 202,-614 209.428,-601.838 222.055,-593.358 234.852,-587.519"/>
<polygon fill="black" stroke="black" points="236.201,-590.748 244.128,-583.718 233.547,-584.271 236.201,-590.748"/>
<text text-anchor="middle" x="228.5" y="-628" font-family="Times,serif" font-size="10.00">Constant677</text>
<text text-anchor="middle" x="228.5" y="-617" font-family="Times,serif" font-size="10.00">(1,)</text>
</g>
<!-- Block509 -->
<g id="node18" class="node"><title>Block509</title>
<polygon fill="lightgray" stroke="black" stroke-width="4" points="519,-957 425,-957 425,-885 519,-885 519,-957"/>
<text text-anchor="middle" x="472" y="-917.9" font-family="Times,serif" font-size="12.00">GRU</text>
</g>
<!-- Block509&#45;&gt;NoOp533 -->
<g id="edge19" class="edge"><title>Block509&#45;&gt;NoOp533</title>
<path fill="none" stroke="black" d="M424.977,-905.95C376.966,-890.49 301.278,-862.984 242,-827 240.021,-825.799 238.041,-824.435 236.115,-822.997"/>
<polygon fill="black" stroke="black" points="238.129,-820.121 228.183,-816.471 233.682,-825.527 238.129,-820.121"/>
<text text-anchor="middle" x="357" y="-859" font-family="Times,serif" font-size="10.00">Block509_Output_0</text>
<text text-anchor="middle" x="357" y="-848" font-family="Times,serif" font-size="10.00">[#,*](512,)</text>
</g>
<!-- PastValue439 -->
<g id="node23" class="node"><title>PastValue439</title>
<polygon fill="lightgray" stroke="black" stroke-width="4" points="676.5,-827 611.5,-827 611.5,-784 676.5,-784 676.5,-827"/>
<text text-anchor="middle" x="644" y="-802.4" font-family="Times,serif" font-size="12.00">PastValue</text>
</g>
<!-- Block509&#45;&gt;PastValue439 -->
<g id="edge26" class="edge"><title>Block509&#45;&gt;PastValue439</title>
<path fill="none" stroke="black" d="M460.924,-884.792C458.811,-870.881 459.654,-855.696 469,-845 487.053,-824.339 560.289,-833.78 601.432,-826.077"/>
<polygon fill="black" stroke="black" points="602.506,-829.417 611.389,-823.644 600.844,-822.617 602.506,-829.417"/>
<text text-anchor="middle" x="512" y="-859" font-family="Times,serif" font-size="10.00">Block509_Output_0</text>
<text text-anchor="middle" x="512" y="-848" font-family="Times,serif" font-size="10.00">[#,*](512,)</text>
</g>
<!-- Parameter5 -->
<g id="node19" class="node"><title>Parameter5</title>
<polygon fill="lightgray" stroke="black" points="328,-1072.5 256,-1072.5 256,-1029.5 328,-1029.5 328,-1072.5"/>
<text text-anchor="middle" x="292" y="-1054.4" font-family="Times,serif" font-size="12.00">b</text>
<text text-anchor="middle" x="292" y="-1041.4" font-family="Times,serif" font-size="12.00">(1536,)</text>
</g>
<!-- Parameter5&#45;&gt;Block509 -->
<g id="edge20" class="edge"><title>Parameter5&#45;&gt;Block509</title>
<path fill="none" stroke="black" d="M312.638,-1029.17C328.996,-1013.28 352.873,-991.394 376,-975 388.367,-966.234 402.328,-957.793 415.695,-950.324"/>
<polygon fill="black" stroke="black" points="417.743,-953.193 424.828,-945.316 414.377,-947.055 417.743,-953.193"/>
<text text-anchor="middle" x="391" y="-989" font-family="Times,serif" font-size="10.00">b</text>
<text text-anchor="middle" x="391" y="-978" font-family="Times,serif" font-size="10.00">(1536,)</text>
</g>
<!-- Parameter6 -->
<g id="node20" class="node"><title>Parameter6</title>
<polygon fill="lightgray" stroke="black" points="418,-1072.5 346,-1072.5 346,-1029.5 418,-1029.5 418,-1072.5"/>
<text text-anchor="middle" x="382" y="-1054.4" font-family="Times,serif" font-size="12.00">W</text>
<text text-anchor="middle" x="382" y="-1041.4" font-family="Times,serif" font-size="12.00">(69, 1536)</text>
</g>
<!-- Parameter6&#45;&gt;Block509 -->
<g id="edge21" class="edge"><title>Parameter6&#45;&gt;Block509</title>
<path fill="none" stroke="black" d="M392.418,-1029.25C400.527,-1013.79 412.476,-992.43 425,-975 427.422,-971.629 430.022,-968.226 432.711,-964.858"/>
<polygon fill="black" stroke="black" points="435.451,-967.037 439.107,-957.092 430.048,-962.586 435.451,-967.037"/>
<text text-anchor="middle" x="446.5" y="-989" font-family="Times,serif" font-size="10.00">W</text>
<text text-anchor="middle" x="446.5" y="-978" font-family="Times,serif" font-size="10.00">(69, 1536)</text>
</g>
<!-- Parameter7 -->
<g id="node21" class="node"><title>Parameter7</title>
<polygon fill="lightgray" stroke="black" points="508,-1072.5 436,-1072.5 436,-1029.5 508,-1029.5 508,-1072.5"/>
<text text-anchor="middle" x="472" y="-1054.4" font-family="Times,serif" font-size="12.00">H</text>
<text text-anchor="middle" x="472" y="-1041.4" font-family="Times,serif" font-size="12.00">(512, 1024)</text>
</g>
<!-- Parameter7&#45;&gt;Block509 -->
<g id="edge22" class="edge"><title>Parameter7&#45;&gt;Block509</title>
<path fill="none" stroke="black" d="M472,-1029.43C472,-1012.67 472,-988.385 472,-967.141"/>
<polygon fill="black" stroke="black" points="475.5,-967.003 472,-957.003 468.5,-967.003 475.5,-967.003"/>
<text text-anchor="middle" x="496" y="-989" font-family="Times,serif" font-size="10.00">H</text>
<text text-anchor="middle" x="496" y="-978" font-family="Times,serif" font-size="10.00">(512, 1024)</text>
</g>
<!-- Parameter8 -->
<g id="node22" class="node"><title>Parameter8</title>
<polygon fill="lightgray" stroke="black" points="598,-1072.5 526,-1072.5 526,-1029.5 598,-1029.5 598,-1072.5"/>
<text text-anchor="middle" x="562" y="-1054.4" font-family="Times,serif" font-size="12.00">H1</text>
<text text-anchor="middle" x="562" y="-1041.4" font-family="Times,serif" font-size="12.00">(512, 512)</text>
</g>
<!-- Parameter8&#45;&gt;Block509 -->
<g id="edge23" class="edge"><title>Parameter8&#45;&gt;Block509</title>
<path fill="none" stroke="black" d="M553.581,-1029.3C546.746,-1013.67 536.254,-992.078 524,-975 521.548,-971.583 518.877,-968.176 516.081,-964.833"/>
<polygon fill="black" stroke="black" points="518.597,-962.393 509.379,-957.17 513.328,-967.001 518.597,-962.393"/>
<text text-anchor="middle" x="558.5" y="-989" font-family="Times,serif" font-size="10.00">H1</text>
<text text-anchor="middle" x="558.5" y="-978" font-family="Times,serif" font-size="10.00">(512, 512)</text>
</g>
<!-- PastValue439&#45;&gt;Block509 -->
<g id="edge24" class="edge"><title>PastValue439&#45;&gt;Block509</title>
<path fill="none" stroke="black" d="M611.375,-822.711C600.26,-828.948 588.101,-836.608 578,-845 568.063,-853.256 568.858,-858.649 559,-867 549.523,-875.028 538.698,-882.64 527.979,-889.46"/>
<polygon fill="black" stroke="black" points="526.091,-886.512 519.432,-894.752 529.777,-892.463 526.091,-886.512"/>
<text text-anchor="middle" x="629.5" y="-859" font-family="Times,serif" font-size="10.00">PastValue439_Output_0</text>
<text text-anchor="middle" x="629.5" y="-848" font-family="Times,serif" font-size="10.00">[#,*](512,)</text>
</g>
<!-- Input3 -->
<g id="node24" class="node"><title>Input3</title>
<polygon fill="lightgray" stroke="black" stroke-width="4" points="670.633,-1015.1 673.701,-1015.3 676.737,-1015.59 679.729,-1015.98 682.664,-1016.47 685.532,-1017.05 688.32,-1017.73 691.018,-1018.5 693.615,-1019.35 696.103,-1020.29 698.471,-1021.32 700.713,-1022.43 702.819,-1023.62 704.784,-1024.88 706.602,-1026.21 708.268,-1027.61 709.777,-1029.08 711.126,-1030.6 712.314,-1032.18 713.338,-1033.82 714.198,-1035.5 714.895,-1037.22 715.428,-1038.98 715.799,-1040.77 716.012,-1042.59 716.07,-1044.44 715.975,-1046.3 715.733,-1048.17 715.348,-1050.06 714.826,-1051.94 714.172,-1053.83 713.392,-1055.7 712.493,-1057.56 711.481,-1059.41 710.364,-1061.23 709.147,-1063.02 707.837,-1064.78 706.442,-1066.5 704.968,-1068.18 703.421,-1069.82 701.809,-1071.4 700.136,-1072.92 698.41,-1074.39 696.635,-1075.79 694.817,-1077.12 692.961,-1078.38 691.072,-1079.57 689.154,-1080.68 687.21,-1081.71 685.245,-1082.65 683.261,-1083.5 681.262,-1084.27 679.251,-1084.95 677.228,-1085.53 675.197,-1086.02 673.16,-1086.41 671.118,-1086.7 669.072,-1086.9 667.024,-1087 664.976,-1087 662.928,-1086.9 660.882,-1086.7 658.84,-1086.41 656.803,-1086.02 654.772,-1085.53 652.749,-1084.95 650.738,-1084.27 648.739,-1083.5 646.755,-1082.65 644.79,-1081.71 642.846,-1080.68 640.928,-1079.57 639.039,-1078.38 637.183,-1077.12 635.365,-1075.79 633.59,-1074.39 631.864,-1072.92 630.191,-1071.4 628.579,-1069.82 627.032,-1068.18 625.558,-1066.5 624.163,-1064.78 622.853,-1063.02 621.636,-1061.23 620.519,-1059.41 619.507,-1057.56 618.608,-1055.7 617.828,-1053.83 617.174,-1051.94 616.652,-1050.06 616.267,-1048.17 616.025,-1046.3 615.93,-1044.44 615.988,-1042.59 616.201,-1040.77 616.572,-1038.98 617.105,-1037.22 617.802,-1035.5 618.662,-1033.82 619.686,-1032.18 620.874,-1030.6 622.223,-1029.08 623.732,-1027.61 625.398,-1026.21 627.216,-1024.88 629.181,-1023.62 631.287,-1022.43 633.529,-1021.32 635.897,-1020.29 638.385,-1019.35 640.982,-1018.5 643.68,-1017.73 646.468,-1017.05 649.336,-1016.47 652.271,-1015.98 655.263,-1015.59 658.299,-1015.3 661.367,-1015.1 664.453,-1015 667.547,-1015 670.633,-1015.1"/>
<text text-anchor="middle" x="666" y="-1060.9" font-family="Times,serif" font-size="12.00">Input</text>
<text text-anchor="middle" x="666" y="-1047.9" font-family="Times,serif" font-size="12.00">inputs</text>
<text text-anchor="middle" x="666" y="-1034.9" font-family="Times,serif" font-size="12.00">[#,*](69,)</text>
</g>
<!-- Input3&#45;&gt;Block509 -->
<g id="edge25" class="edge"><title>Input3&#45;&gt;Block509</title>
<path fill="none" stroke="black" d="M637.058,-1019.55C622.118,-1004.91 603.059,-987.8 584,-975 566.813,-963.457 546.72,-953.103 528.335,-944.675"/>
<polygon fill="black" stroke="black" points="529.741,-941.47 519.184,-940.571 526.877,-947.857 529.741,-941.47"/>
<text text-anchor="middle" x="629" y="-989" font-family="Times,serif" font-size="10.00">inputs</text>
<text text-anchor="middle" x="629" y="-978" font-family="Times,serif" font-size="10.00">[#,*](69,)</text>
</g>
<!-- Constant101 -->
<g id="node25" class="node"><title>Constant101</title>
<polygon fill="white" stroke="white" points="723.5,-932 690.5,-932 690.5,-910 723.5,-910 723.5,-932"/>
<text text-anchor="middle" x="707" y="-917.9" font-family="Times,serif" font-size="12.00">[0.]</text>
</g>
<!-- Constant101&#45;&gt;PastValue439 -->
<g id="edge27" class="edge"><title>Constant101&#45;&gt;PastValue439</title>
<path fill="none" stroke="black" d="M705.753,-909.848C703.533,-894.753 697.86,-865.925 685,-845 682.757,-841.35 680.078,-837.82 677.179,-834.477"/>
<polygon fill="black" stroke="black" points="679.542,-831.883 670.117,-827.045 674.468,-836.705 679.542,-831.883"/>
<text text-anchor="middle" x="721.5" y="-859" font-family="Times,serif" font-size="10.00">Constant101</text>
<text text-anchor="middle" x="721.5" y="-848" font-family="Times,serif" font-size="10.00">(1,)</text>
</g>
</g>
</svg>
