<?xml version="1.0" encoding="UTF-8" standalone="no"?>
<!DOCTYPE svg PUBLIC "-//W3C//DTD SVG 1.1//EN"
 "http://www.w3.org/Graphics/SVG/1.1/DTD/svg11.dtd">
<!-- Generated by graphviz version 2.38.0 (20140413.2041)
 -->
<!-- Title: network_graph Pages: 1 -->
<svg width="1162pt" height="1095pt"
 viewBox="0.00 0.00 1162.00 1095.00" xmlns="http://www.w3.org/2000/svg" xmlns:xlink="http://www.w3.org/1999/xlink">
<g id="graph0" class="graph" transform="scale(1 1) rotate(0) translate(4 1091)">
<title>network_graph</title>
<polygon fill="white" stroke="none" points="-4,4 -4,-1091 1158,-1091 1158,4 -4,4"/>
<!-- Block1234 -->
<g id="node1" class="node"><title>Block1234</title>
<polygon fill="lightgray" stroke="black" stroke-width="4" points="173,-191 79,-191 79,-119 173,-119 173,-191"/>
<text text-anchor="middle" x="126" y="-151.9" font-family="Times,serif" font-size="12.00">Dense</text>
</g>
<!-- Block1234_Output_0 -->
<g id="node5" class="node"><title>Block1234_Output_0</title>
<polygon fill="lightgray" stroke="black" stroke-width="4" points="130.633,-0.0986735 133.701,-0.29575 136.737,-0.590689 139.729,-0.982683 142.664,-1.47066 145.532,-2.05327 148.32,-2.72894 151.018,-3.49579 153.615,-4.35174 156.103,-5.29443 158.471,-6.32129 160.713,-7.42949 162.819,-8.616 164.784,-9.87757 166.602,-11.2107 168.268,-12.6119 169.777,-14.0771 171.126,-15.6024 172.314,-17.1836 173.338,-18.8164 174.198,-20.4963 174.895,-22.2187 175.428,-23.9788 175.799,-25.7719 176.012,-27.5931 176.07,-29.4373 175.975,-31.2994 175.733,-33.1745 175.348,-35.0573 174.826,-36.9427 174.172,-38.8255 173.392,-40.7006 172.493,-42.5627 171.481,-44.4069 170.364,-46.2281 169.147,-48.0212 167.837,-49.7813 166.442,-51.5037 164.968,-53.1836 163.421,-54.8164 161.809,-56.3976 160.136,-57.9229 158.41,-59.3881 156.635,-60.7893 154.817,-62.1224 152.961,-63.384 151.072,-64.5705 149.154,-65.6787 147.21,-66.7056 145.245,-67.6483 143.261,-68.5042 141.262,-69.2711 139.251,-69.9467 137.228,-70.5293 135.197,-71.0173 133.16,-71.4093 131.118,-71.7042 129.072,-71.9013 127.024,-72 124.976,-72 122.928,-71.9013 120.882,-71.7042 118.84,-71.4093 116.803,-71.0173 114.772,-70.5293 112.749,-69.9467 110.738,-69.2711 108.739,-68.5042 106.755,-67.6483 104.79,-66.7056 102.846,-65.6787 100.928,-64.5705 99.0386,-63.384 97.1827,-62.1224 95.3649,-60.7893 93.5901,-59.3881 91.8637,-57.9229 90.1912,-56.3976 88.5786,-54.8164 87.0321,-53.1836 85.5579,-51.5037 84.1628,-49.7813 82.8533,-48.0212 81.6363,-46.2281 80.5186,-44.4069 79.5069,-42.5627 78.608,-40.7006 77.8284,-38.8255 77.1743,-36.9427 76.652,-35.0573 76.267,-33.1745 76.0248,-31.2994 75.9302,-29.4373 75.9875,-27.5931 76.2005,-25.7719 76.5723,-23.9788 77.1055,-22.2187 77.8016,-20.4963 78.6616,-18.8164 79.6859,-17.1836 80.8735,-15.6024 82.2232,-14.0771 83.7324,-12.6119 85.398,-11.2107 87.2158,-9.87757 89.1809,-8.616 91.2873,-7.42949 93.5285,-6.32129 95.897,-5.29443 98.3845,-4.35174 100.982,-3.49579 103.68,-2.72894 106.468,-2.05327 109.336,-1.47066 112.271,-0.982683 115.263,-0.590689 118.299,-0.29575 121.367,-0.0986735 124.453,-3.62377e-13 127.547,-3.69482e-13 130.633,-0.0986735"/>
<text text-anchor="middle" x="126" y="-25.9" font-family="Times,serif" font-size="12.00">[#](69,)</text>
</g>
<!-- Block1234&#45;&gt;Block1234_Output_0 -->
<g id="edge4" class="edge"><title>Block1234&#45;&gt;Block1234_Output_0</title>
<path fill="none" stroke="black" d="M126,-118.896C126,-107.327 126,-94.2965 126,-82.0893"/>
<polygon fill="black" stroke="black" points="129.5,-82.079 126,-72.0791 122.5,-82.0791 129.5,-82.079"/>
<text text-anchor="middle" x="141.5" y="-93" font-family="Times,serif" font-size="10.00">[#](69,)</text>
</g>
<!-- Parameter1207 -->
<g id="node2" class="node"><title>Parameter1207</title>
<polygon fill="lightgray" stroke="black" points="72,-306.5 0,-306.5 0,-263.5 72,-263.5 72,-306.5"/>
<text text-anchor="middle" x="36" y="-288.4" font-family="Times,serif" font-size="12.00">W</text>
<text text-anchor="middle" x="36" y="-275.4" font-family="Times,serif" font-size="12.00">(512, 69)</text>
</g>
<!-- Parameter1207&#45;&gt;Block1234 -->
<g id="edge1" class="edge"><title>Parameter1207&#45;&gt;Block1234</title>
<path fill="none" stroke="black" d="M48.8775,-263.332C58.5176,-248.101 72.193,-226.994 85,-209 87.2872,-205.786 89.6878,-202.494 92.1316,-199.201"/>
<polygon fill="black" stroke="black" points="95.0435,-201.152 98.2553,-191.056 89.4484,-196.946 95.0435,-201.152"/>
<text text-anchor="middle" x="103.5" y="-223" font-family="Times,serif" font-size="10.00">W</text>
<text text-anchor="middle" x="103.5" y="-212" font-family="Times,serif" font-size="10.00">(512, 69)</text>
</g>
<!-- Parameter1208 -->
<g id="node3" class="node"><title>Parameter1208</title>
<polygon fill="lightgray" stroke="black" points="162,-306.5 90,-306.5 90,-263.5 162,-263.5 162,-306.5"/>
<text text-anchor="middle" x="126" y="-288.4" font-family="Times,serif" font-size="12.00">b</text>
<text text-anchor="middle" x="126" y="-275.4" font-family="Times,serif" font-size="12.00">(69,)</text>
</g>
<!-- Parameter1208&#45;&gt;Block1234 -->
<g id="edge2" class="edge"><title>Parameter1208&#45;&gt;Block1234</title>
<path fill="none" stroke="black" d="M126,-263.435C126,-246.673 126,-222.385 126,-201.141"/>
<polygon fill="black" stroke="black" points="129.5,-201.003 126,-191.003 122.5,-201.003 129.5,-201.003"/>
<text text-anchor="middle" x="135.5" y="-223" font-family="Times,serif" font-size="10.00">b</text>
<text text-anchor="middle" x="135.5" y="-212" font-family="Times,serif" font-size="10.00">(69,)</text>
</g>
<!-- Block1198 -->
<g id="node4" class="node"><title>Block1198</title>
<polygon fill="lightgray" stroke="black" stroke-width="4" points="274,-321 180,-321 180,-249 274,-249 274,-321"/>
<text text-anchor="middle" x="227" y="-281.9" font-family="Times,serif" font-size="12.00">Sequence::Slice</text>
</g>
<!-- Block1198&#45;&gt;Block1234 -->
<g id="edge3" class="edge"><title>Block1198&#45;&gt;Block1234</title>
<path fill="none" stroke="black" d="M199.134,-248.685C187.101,-233.435 172.907,-215.446 160.24,-199.393"/>
<polygon fill="black" stroke="black" points="162.717,-196.882 153.775,-191.2 157.222,-201.219 162.717,-196.882"/>
<text text-anchor="middle" x="228.5" y="-223" font-family="Times,serif" font-size="10.00">Block1198_Output_0</text>
<text text-anchor="middle" x="228.5" y="-212" font-family="Times,serif" font-size="10.00">[#](512,)</text>
</g>
<!-- Plus1177 -->
<g id="node6" class="node"><title>Plus1177</title>
<ellipse fill="lightgray" stroke="black" stroke-width="4" cx="227" cy="-393.5" rx="14.5" ry="14.5"/>
<text text-anchor="middle" x="227" y="-388.5" font-family="Times,serif" font-size="20.00">+</text>
</g>
<!-- Plus1177&#45;&gt;Block1198 -->
<g id="edge5" class="edge"><title>Plus1177&#45;&gt;Block1198</title>
<path fill="none" stroke="black" d="M227,-378.577C227,-366.53 227,-348.417 227,-331.397"/>
<polygon fill="black" stroke="black" points="230.5,-331.006 227,-321.006 223.5,-331.006 230.5,-331.006"/>
<text text-anchor="middle" x="269" y="-353" font-family="Times,serif" font-size="10.00">Plus1177_Output_0</text>
<text text-anchor="middle" x="269" y="-342" font-family="Times,serif" font-size="10.00">[#,*](512,)</text>
</g>
<!-- ElementTimes1174 -->
<g id="node7" class="node"><title>ElementTimes1174</title>
<ellipse fill="lightgray" stroke="black" stroke-width="4" cx="157" cy="-480.5" rx="14.5" ry="14.5"/>
<text text-anchor="middle" x="157" y="-475.5" font-family="Times,serif" font-size="20.00">*</text>
</g>
<!-- ElementTimes1174&#45;&gt;Plus1177 -->
<g id="edge6" class="edge"><title>ElementTimes1174&#45;&gt;Plus1177</title>
<path fill="none" stroke="black" d="M153.526,-466.031C151.354,-454.454 150.254,-437.807 158,-426 167.919,-410.881 187.048,-402.919 202.654,-398.785"/>
<polygon fill="black" stroke="black" points="203.763,-402.122 212.739,-396.494 202.212,-395.296 203.763,-402.122"/>
<text text-anchor="middle" x="220.5" y="-440" font-family="Times,serif" font-size="10.00">ElementTimes1174_Output_0</text>
<text text-anchor="middle" x="220.5" y="-429" font-family="Times,serif" font-size="10.00">[#,*](512,)</text>
</g>
<!-- NoOp526 -->
<g id="node8" class="node"><title>NoOp526</title>
<ellipse fill="lightgray" stroke="black" stroke-width="4" cx="386" cy="-805.5" rx="14.5" ry="14.5"/>
<text text-anchor="middle" x="386" y="-802.4" font-family="Times,serif" font-size="12.00">NoOp</text>
</g>
<!-- NoOp526&#45;&gt;Plus1177 -->
<g id="edge7" class="edge"><title>NoOp526&#45;&gt;Plus1177</title>
<path fill="none" stroke="black" d="M373.997,-797.053C349.704,-780.95 297,-740.33 297,-691 297,-691 297,-691 297,-479.5 297,-454.922 298.015,-445.459 283,-426 274.673,-415.208 261.535,-407.541 250.077,-402.475"/>
<polygon fill="black" stroke="black" points="251.188,-399.15 240.603,-398.68 248.584,-405.648 251.188,-399.15"/>
<text text-anchor="middle" x="318.5" y="-577.5" font-family="Times,serif" font-size="10.00">cifg_lstm</text>
<text text-anchor="middle" x="318.5" y="-566.5" font-family="Times,serif" font-size="10.00">[#,*](512,)</text>
</g>
<!-- Block1068 -->
<g id="node11" class="node"><title>Block1068</title>
<polygon fill="lightgray" stroke="black" stroke-width="4" points="592,-726 498,-726 498,-654 592,-654 592,-726"/>
<text text-anchor="middle" x="545" y="-686.9" font-family="Times,serif" font-size="12.00">LSTM</text>
</g>
<!-- NoOp526&#45;&gt;Block1068 -->
<g id="edge16" class="edge"><title>NoOp526&#45;&gt;Block1068</title>
<path fill="none" stroke="black" d="M394.105,-793.074C403.846,-779.958 421.239,-758.404 440,-744 454.759,-732.668 472.315,-722.688 488.807,-714.534"/>
<polygon fill="black" stroke="black" points="490.338,-717.681 497.835,-710.194 487.306,-711.372 490.338,-717.681"/>
<text text-anchor="middle" x="461.5" y="-758" font-family="Times,serif" font-size="10.00">cifg_lstm</text>
<text text-anchor="middle" x="461.5" y="-747" font-family="Times,serif" font-size="10.00">[#,*](512,)</text>
</g>
<!-- Constant1173 -->
<g id="node9" class="node"><title>Constant1173</title>
<polygon fill="white" stroke="white" points="221,-585.5 93,-585.5 93,-563.5 221,-563.5 221,-585.5"/>
<text text-anchor="middle" x="157" y="-571.4" font-family="Times,serif" font-size="12.00">0.30000001192092896</text>
</g>
<!-- Constant1173&#45;&gt;ElementTimes1174 -->
<g id="edge8" class="edge"><title>Constant1173&#45;&gt;ElementTimes1174</title>
<path fill="none" stroke="black" d="M157,-563.303C157,-549.38 157,-524.006 157,-505.196"/>
<polygon fill="black" stroke="black" points="160.5,-505.016 157,-495.016 153.5,-505.016 160.5,-505.016"/>
<text text-anchor="middle" x="186" y="-527" font-family="Times,serif" font-size="10.00">Constant1173</text>
<text text-anchor="middle" x="186" y="-516" font-family="Times,serif" font-size="10.00">()</text>
</g>
<!-- NoOp1090 -->
<g id="node10" class="node"><title>NoOp1090</title>
<ellipse fill="lightgray" stroke="black" stroke-width="4" cx="373" cy="-574.5" rx="14.5" ry="14.5"/>
<text text-anchor="middle" x="373" y="-571.4" font-family="Times,serif" font-size="12.00">NoOp</text>
</g>
<!-- NoOp1090&#45;&gt;ElementTimes1174 -->
<g id="edge9" class="edge"><title>NoOp1090&#45;&gt;ElementTimes1174</title>
<path fill="none" stroke="black" d="M362.128,-564.834C356.856,-560.893 350.31,-556.368 344,-553 287.904,-523.06 216.486,-499.398 180.291,-488.331"/>
<polygon fill="black" stroke="black" points="181.236,-484.96 170.651,-485.428 179.217,-491.663 181.236,-484.96"/>
<text text-anchor="middle" x="326.5" y="-527" font-family="Times,serif" font-size="10.00">cifg_lstm</text>
<text text-anchor="middle" x="326.5" y="-516" font-family="Times,serif" font-size="10.00">[#,*](512,)</text>
</g>
<!-- Block1068&#45;&gt;NoOp1090 -->
<g id="edge10" class="edge"><title>Block1068&#45;&gt;NoOp1090</title>
<path fill="none" stroke="black" d="M497.813,-681.439C450.576,-672.793 382.708,-657.067 367,-636 358.916,-625.158 360.427,-610.014 363.953,-597.59"/>
<polygon fill="black" stroke="black" points="367.326,-598.542 367.223,-587.948 360.697,-596.294 367.326,-598.542"/>
<text text-anchor="middle" x="412.5" y="-628" font-family="Times,serif" font-size="10.00">Block1068_Output_0</text>
<text text-anchor="middle" x="412.5" y="-617" font-family="Times,serif" font-size="10.00">[#,*](512,)</text>
</g>
<!-- PastValue1006 -->
<g id="node15" class="node"><title>PastValue1006</title>
<polygon fill="lightgray" stroke="black" stroke-width="4" points="932.5,-596 867.5,-596 867.5,-553 932.5,-553 932.5,-596"/>
<text text-anchor="middle" x="900" y="-571.4" font-family="Times,serif" font-size="12.00">PastValue</text>
</g>
<!-- Block1068&#45;&gt;PastValue1006 -->
<g id="edge17" class="edge"><title>Block1068&#45;&gt;PastValue1006</title>
<path fill="none" stroke="black" d="M592.26,-674.481C618.952,-665.305 652.392,-652.135 680,-636 693.364,-628.189 692.997,-620.597 707,-614 755.479,-591.159 817.002,-581.855 857.387,-578.073"/>
<polygon fill="black" stroke="black" points="857.768,-581.554 867.43,-577.206 857.166,-574.579 857.768,-581.554"/>
<text text-anchor="middle" x="752.5" y="-628" font-family="Times,serif" font-size="10.00">Block1068_Output_0</text>
<text text-anchor="middle" x="752.5" y="-617" font-family="Times,serif" font-size="10.00">[#,*](512,)</text>
</g>
<!-- PastValue1009 -->
<g id="node16" class="node"><title>PastValue1009</title>
<polygon fill="lightgray" stroke="black" stroke-width="4" points="611.5,-596 546.5,-596 546.5,-553 611.5,-553 611.5,-596"/>
<text text-anchor="middle" x="579" y="-571.4" font-family="Times,serif" font-size="12.00">PastValue</text>
</g>
<!-- Block1068&#45;&gt;PastValue1009 -->
<g id="edge19" class="edge"><title>Block1068&#45;&gt;PastValue1009</title>
<path fill="none" stroke="black" d="M497.95,-668.018C473.421,-654.044 451.306,-634.53 466,-614 481.956,-591.707 511.592,-582.173 536.511,-578.164"/>
<polygon fill="black" stroke="black" points="537.058,-581.622 546.494,-576.803 536.112,-574.686 537.058,-581.622"/>
<text text-anchor="middle" x="511.5" y="-628" font-family="Times,serif" font-size="10.00">Block1068_Output_1</text>
<text text-anchor="middle" x="511.5" y="-617" font-family="Times,serif" font-size="10.00">[#,*](512,)</text>
</g>
<!-- Parameter569 -->
<g id="node12" class="node"><title>Parameter569</title>
<polygon fill="lightgray" stroke="black" points="491,-827 419,-827 419,-784 491,-784 491,-827"/>
<text text-anchor="middle" x="455" y="-808.9" font-family="Times,serif" font-size="12.00">b</text>
<text text-anchor="middle" x="455" y="-795.9" font-family="Times,serif" font-size="12.00">(2048,)</text>
</g>
<!-- Parameter569&#45;&gt;Block1068 -->
<g id="edge11" class="edge"><title>Parameter569&#45;&gt;Block1068</title>
<path fill="none" stroke="black" d="M471.298,-783.946C482.268,-770.112 497.144,-751.352 510.659,-734.308"/>
<polygon fill="black" stroke="black" points="513.69,-736.118 517.161,-726.108 508.205,-731.769 513.69,-736.118"/>
<text text-anchor="middle" x="518" y="-758" font-family="Times,serif" font-size="10.00">b</text>
<text text-anchor="middle" x="518" y="-747" font-family="Times,serif" font-size="10.00">(2048,)</text>
</g>
<!-- Parameter570 -->
<g id="node13" class="node"><title>Parameter570</title>
<polygon fill="lightgray" stroke="black" points="581,-827 509,-827 509,-784 581,-784 581,-827"/>
<text text-anchor="middle" x="545" y="-808.9" font-family="Times,serif" font-size="12.00">W</text>
<text text-anchor="middle" x="545" y="-795.9" font-family="Times,serif" font-size="12.00">(512, 2048)</text>
</g>
<!-- Parameter570&#45;&gt;Block1068 -->
<g id="edge12" class="edge"><title>Parameter570&#45;&gt;Block1068</title>
<path fill="none" stroke="black" d="M545,-783.946C545,-770.615 545,-752.71 545,-736.174"/>
<polygon fill="black" stroke="black" points="548.5,-736.108 545,-726.108 541.5,-736.108 548.5,-736.108"/>
<text text-anchor="middle" x="569" y="-758" font-family="Times,serif" font-size="10.00">W</text>
<text text-anchor="middle" x="569" y="-747" font-family="Times,serif" font-size="10.00">(512, 2048)</text>
</g>
<!-- Parameter571 -->
<g id="node14" class="node"><title>Parameter571</title>
<polygon fill="lightgray" stroke="black" points="671,-827 599,-827 599,-784 671,-784 671,-827"/>
<text text-anchor="middle" x="635" y="-808.9" font-family="Times,serif" font-size="12.00">H</text>
<text text-anchor="middle" x="635" y="-795.9" font-family="Times,serif" font-size="12.00">(512, 2048)</text>
</g>
<!-- Parameter571&#45;&gt;Block1068 -->
<g id="edge13" class="edge"><title>Parameter571&#45;&gt;Block1068</title>
<path fill="none" stroke="black" d="M623.543,-783.876C616.487,-771.822 606.915,-756.558 597,-744 594.349,-740.642 591.511,-737.265 588.58,-733.928"/>
<polygon fill="black" stroke="black" points="590.925,-731.304 581.614,-726.248 585.74,-736.007 590.925,-731.304"/>
<text text-anchor="middle" x="636" y="-758" font-family="Times,serif" font-size="10.00">H</text>
<text text-anchor="middle" x="636" y="-747" font-family="Times,serif" font-size="10.00">(512, 2048)</text>
</g>
<!-- PastValue1006&#45;&gt;Block1068 -->
<g id="edge14" class="edge"><title>PastValue1006&#45;&gt;Block1068</title>
<path fill="none" stroke="black" d="M897.814,-596.247C895.28,-609.613 889.81,-626.254 878,-636 836.932,-669.89 686.082,-682.378 602.209,-686.768"/>
<polygon fill="black" stroke="black" points="601.889,-683.279 592.076,-687.276 602.239,-690.271 601.889,-683.279"/>
<text text-anchor="middle" x="946" y="-628" font-family="Times,serif" font-size="10.00">PastValue1006_Output_0</text>
<text text-anchor="middle" x="946" y="-617" font-family="Times,serif" font-size="10.00">[#,*](512,)</text>
</g>
<!-- PastValue1009&#45;&gt;Block1068 -->
<g id="edge15" class="edge"><title>PastValue1009&#45;&gt;Block1068</title>
<path fill="none" stroke="black" d="M572.794,-596.217C568.816,-609.497 563.492,-627.268 558.569,-643.702"/>
<polygon fill="black" stroke="black" points="555.088,-643.126 555.571,-653.71 561.794,-645.135 555.088,-643.126"/>
<text text-anchor="middle" x="622" y="-628" font-family="Times,serif" font-size="10.00">PastValue1009_Output_0</text>
<text text-anchor="middle" x="622" y="-617" font-family="Times,serif" font-size="10.00">[#,*](512,)</text>
</g>
<!-- Constant660 -->
<g id="node17" class="node"><title>Constant660</title>
<polygon fill="white" stroke="white" points="945,-701 909,-701 909,-679 945,-679 945,-701"/>
<text text-anchor="middle" x="927" y="-686.9" font-family="Times,serif" font-size="12.00">[ 0.]</text>
</g>
<!-- Constant660&#45;&gt;PastValue1006 -->
<g id="edge18" class="edge"><title>Constant660&#45;&gt;PastValue1006</title>
<path fill="none" stroke="black" d="M945.237,-682.394C975.327,-670.462 1030.06,-643.769 1009,-614 994.059,-592.876 966.522,-583.264 942.866,-578.927"/>
<polygon fill="black" stroke="black" points="943.094,-575.42 932.672,-577.327 942.009,-582.335 943.094,-575.42"/>
<text text-anchor="middle" x="1039.5" y="-628" font-family="Times,serif" font-size="10.00">Constant660</text>
<text text-anchor="middle" x="1039.5" y="-617" font-family="Times,serif" font-size="10.00">(1,)</text>
</g>
<!-- Constant660&#45;&gt;PastValue1009 -->
<g id="edge20" class="edge"><title>Constant660&#45;&gt;PastValue1009</title>
<path fill="none" stroke="black" d="M908.793,-681.435C887.671,-672.24 852.263,-655.513 825,-636 813.497,-627.767 814.631,-620.369 802,-614 744.274,-584.89 668.62,-577.296 621.938,-575.585"/>
<polygon fill="black" stroke="black" points="621.961,-572.084 611.863,-575.291 621.757,-579.081 621.961,-572.084"/>
<text text-anchor="middle" x="851.5" y="-628" font-family="Times,serif" font-size="10.00">Constant660</text>
<text text-anchor="middle" x="851.5" y="-617" font-family="Times,serif" font-size="10.00">(1,)</text>
</g>
<!-- Block504 -->
<g id="node18" class="node"><title>Block504</title>
<polygon fill="lightgray" stroke="black" stroke-width="4" points="739,-957 645,-957 645,-885 739,-885 739,-957"/>
<text text-anchor="middle" x="692" y="-917.9" font-family="Times,serif" font-size="12.00">LSTM</text>
</g>
<!-- Block504&#45;&gt;NoOp526 -->
<g id="edge21" class="edge"><title>Block504&#45;&gt;NoOp526</title>
<path fill="none" stroke="black" d="M644.931,-911.562C586.472,-899.55 485.269,-873.627 410,-827 408.032,-825.781 406.06,-824.406 404.138,-822.959"/>
<polygon fill="black" stroke="black" points="406.154,-820.085 396.212,-816.425 401.702,-825.486 406.154,-820.085"/>
<text text-anchor="middle" x="533" y="-859" font-family="Times,serif" font-size="10.00">Block504_Output_0</text>
<text text-anchor="middle" x="533" y="-848" font-family="Times,serif" font-size="10.00">[#,*](512,)</text>
</g>
<!-- PastValue442 -->
<g id="node22" class="node"><title>PastValue442</title>
<polygon fill="lightgray" stroke="black" stroke-width="4" points="1030.5,-827 965.5,-827 965.5,-784 1030.5,-784 1030.5,-827"/>
<text text-anchor="middle" x="998" y="-802.4" font-family="Times,serif" font-size="12.00">PastValue</text>
</g>
<!-- Block504&#45;&gt;PastValue442 -->
<g id="edge28" class="edge"><title>Block504&#45;&gt;PastValue442</title>
<path fill="none" stroke="black" d="M739.078,-900.756C757.771,-891.939 778.855,-880.44 796,-867 806.168,-859.029 803.872,-851.564 815,-845 858.199,-819.521 915.897,-810.772 954.867,-807.841"/>
<polygon fill="black" stroke="black" points="955.583,-811.302 965.334,-807.159 955.128,-804.317 955.583,-811.302"/>
<text text-anchor="middle" x="858" y="-859" font-family="Times,serif" font-size="10.00">Block504_Output_0</text>
<text text-anchor="middle" x="858" y="-848" font-family="Times,serif" font-size="10.00">[#,*](512,)</text>
</g>
<!-- PastValue445 -->
<g id="node23" class="node"><title>PastValue445</title>
<polygon fill="lightgray" stroke="black" stroke-width="4" points="754.5,-827 689.5,-827 689.5,-784 754.5,-784 754.5,-827"/>
<text text-anchor="middle" x="722" y="-802.4" font-family="Times,serif" font-size="12.00">PastValue</text>
</g>
<!-- Block504&#45;&gt;PastValue445 -->
<g id="edge30" class="edge"><title>Block504&#45;&gt;PastValue445</title>
<path fill="none" stroke="black" d="M644.748,-903.442C612.964,-889.695 580.051,-868.622 599,-845 620.273,-818.481 641.577,-835.904 679.335,-826.405"/>
<polygon fill="black" stroke="black" points="680.754,-829.631 689.299,-823.367 678.713,-822.936 680.754,-829.631"/>
<text text-anchor="middle" x="642" y="-859" font-family="Times,serif" font-size="10.00">Block504_Output_1</text>
<text text-anchor="middle" x="642" y="-848" font-family="Times,serif" font-size="10.00">[#,*](512,)</text>
</g>
<!-- Parameter5 -->
<g id="node19" class="node"><title>Parameter5</title>
<polygon fill="lightgray" stroke="black" points="593,-1072.5 521,-1072.5 521,-1029.5 593,-1029.5 593,-1072.5"/>
<text text-anchor="middle" x="557" y="-1054.4" font-family="Times,serif" font-size="12.00">b</text>
<text text-anchor="middle" x="557" y="-1041.4" font-family="Times,serif" font-size="12.00">(2048,)</text>
</g>
<!-- Parameter5&#45;&gt;Block504 -->
<g id="edge22" class="edge"><title>Parameter5&#45;&gt;Block504</title>
<path fill="none" stroke="black" d="M576.687,-1029.2C591.364,-1013.91 612.061,-992.776 631,-975 634.9,-971.34 638.991,-967.594 643.13,-963.87"/>
<polygon fill="black" stroke="black" points="645.464,-966.478 650.601,-957.212 640.807,-961.252 645.464,-966.478"/>
<text text-anchor="middle" x="646" y="-989" font-family="Times,serif" font-size="10.00">b</text>
<text text-anchor="middle" x="646" y="-978" font-family="Times,serif" font-size="10.00">(2048,)</text>
</g>
<!-- Parameter6 -->
<g id="node20" class="node"><title>Parameter6</title>
<polygon fill="lightgray" stroke="black" points="683,-1072.5 611,-1072.5 611,-1029.5 683,-1029.5 683,-1072.5"/>
<text text-anchor="middle" x="647" y="-1054.4" font-family="Times,serif" font-size="12.00">W</text>
<text text-anchor="middle" x="647" y="-1041.4" font-family="Times,serif" font-size="12.00">(69, 2048)</text>
</g>
<!-- Parameter6&#45;&gt;Block504 -->
<g id="edge23" class="edge"><title>Parameter6&#45;&gt;Block504</title>
<path fill="none" stroke="black" d="M653.681,-1029.23C658.596,-1014.14 665.523,-993.236 672,-975 672.957,-972.307 673.954,-969.542 674.97,-966.756"/>
<polygon fill="black" stroke="black" points="678.288,-967.874 678.467,-957.281 671.721,-965.45 678.288,-967.874"/>
<text text-anchor="middle" x="693.5" y="-989" font-family="Times,serif" font-size="10.00">W</text>
<text text-anchor="middle" x="693.5" y="-978" font-family="Times,serif" font-size="10.00">(69, 2048)</text>
</g>
<!-- Parameter7 -->
<g id="node21" class="node"><title>Parameter7</title>
<polygon fill="lightgray" stroke="black" points="773,-1072.5 701,-1072.5 701,-1029.5 773,-1029.5 773,-1072.5"/>
<text text-anchor="middle" x="737" y="-1054.4" font-family="Times,serif" font-size="12.00">H</text>
<text text-anchor="middle" x="737" y="-1041.4" font-family="Times,serif" font-size="12.00">(512, 2048)</text>
</g>
<!-- Parameter7&#45;&gt;Block504 -->
<g id="edge24" class="edge"><title>Parameter7&#45;&gt;Block504</title>
<path fill="none" stroke="black" d="M731.7,-1029.41C727.611,-1014.21 721.56,-993.118 715,-975 714.008,-972.259 712.944,-969.457 711.838,-966.644"/>
<polygon fill="black" stroke="black" points="714.969,-965.05 707.959,-957.106 708.484,-967.687 714.969,-965.05"/>
<text text-anchor="middle" x="745" y="-989" font-family="Times,serif" font-size="10.00">H</text>
<text text-anchor="middle" x="745" y="-978" font-family="Times,serif" font-size="10.00">(512, 2048)</text>
</g>
<!-- PastValue442&#45;&gt;Block504 -->
<g id="edge25" class="edge"><title>PastValue442&#45;&gt;Block504</title>
<path fill="none" stroke="black" d="M995.729,-827.146C993.158,-840.467 987.679,-857.098 976,-867 942.591,-895.327 822.571,-909.672 749.675,-915.928"/>
<polygon fill="black" stroke="black" points="748.953,-912.475 739.278,-916.793 749.534,-919.451 748.953,-912.475"/>
<text text-anchor="middle" x="1041.5" y="-859" font-family="Times,serif" font-size="10.00">PastValue442_Output_0</text>
<text text-anchor="middle" x="1041.5" y="-848" font-family="Times,serif" font-size="10.00">[#,*](512,)</text>
</g>
<!-- PastValue445&#45;&gt;Block504 -->
<g id="edge26" class="edge"><title>PastValue445&#45;&gt;Block504</title>
<path fill="none" stroke="black" d="M702.797,-827.089C698.81,-832.53 695.166,-838.666 693,-845 689.811,-854.328 688.42,-864.698 688.043,-874.677"/>
<polygon fill="black" stroke="black" points="684.542,-874.856 687.985,-884.876 691.542,-874.896 684.542,-874.856"/>
<text text-anchor="middle" x="744.5" y="-859" font-family="Times,serif" font-size="10.00">PastValue445_Output_0</text>
<text text-anchor="middle" x="744.5" y="-848" font-family="Times,serif" font-size="10.00">[#,*](512,)</text>
</g>
<!-- Input3 -->
<g id="node24" class="node"><title>Input3</title>
<polygon fill="lightgray" stroke="black" stroke-width="4" points="845.633,-1015.1 848.701,-1015.3 851.737,-1015.59 854.729,-1015.98 857.664,-1016.47 860.532,-1017.05 863.32,-1017.73 866.018,-1018.5 868.615,-1019.35 871.103,-1020.29 873.471,-1021.32 875.713,-1022.43 877.819,-1023.62 879.784,-1024.88 881.602,-1026.21 883.268,-1027.61 884.777,-1029.08 886.126,-1030.6 887.314,-1032.18 888.338,-1033.82 889.198,-1035.5 889.895,-1037.22 890.428,-1038.98 890.799,-1040.77 891.012,-1042.59 891.07,-1044.44 890.975,-1046.3 890.733,-1048.17 890.348,-1050.06 889.826,-1051.94 889.172,-1053.83 888.392,-1055.7 887.493,-1057.56 886.481,-1059.41 885.364,-1061.23 884.147,-1063.02 882.837,-1064.78 881.442,-1066.5 879.968,-1068.18 878.421,-1069.82 876.809,-1071.4 875.136,-1072.92 873.41,-1074.39 871.635,-1075.79 869.817,-1077.12 867.961,-1078.38 866.072,-1079.57 864.154,-1080.68 862.21,-1081.71 860.245,-1082.65 858.261,-1083.5 856.262,-1084.27 854.251,-1084.95 852.228,-1085.53 850.197,-1086.02 848.16,-1086.41 846.118,-1086.7 844.072,-1086.9 842.024,-1087 839.976,-1087 837.928,-1086.9 835.882,-1086.7 833.84,-1086.41 831.803,-1086.02 829.772,-1085.53 827.749,-1084.95 825.738,-1084.27 823.739,-1083.5 821.755,-1082.65 819.79,-1081.71 817.846,-1080.68 815.928,-1079.57 814.039,-1078.38 812.183,-1077.12 810.365,-1075.79 808.59,-1074.39 806.864,-1072.92 805.191,-1071.4 803.579,-1069.82 802.032,-1068.18 800.558,-1066.5 799.163,-1064.78 797.853,-1063.02 796.636,-1061.23 795.519,-1059.41 794.507,-1057.56 793.608,-1055.7 792.828,-1053.83 792.174,-1051.94 791.652,-1050.06 791.267,-1048.17 791.025,-1046.3 790.93,-1044.44 790.988,-1042.59 791.201,-1040.77 791.572,-1038.98 792.105,-1037.22 792.802,-1035.5 793.662,-1033.82 794.686,-1032.18 795.874,-1030.6 797.223,-1029.08 798.732,-1027.61 800.398,-1026.21 802.216,-1024.88 804.181,-1023.62 806.287,-1022.43 808.529,-1021.32 810.897,-1020.29 813.385,-1019.35 815.982,-1018.5 818.68,-1017.73 821.468,-1017.05 824.336,-1016.47 827.271,-1015.98 830.263,-1015.59 833.299,-1015.3 836.367,-1015.1 839.453,-1015 842.547,-1015 845.633,-1015.1"/>
<text text-anchor="middle" x="841" y="-1060.9" font-family="Times,serif" font-size="12.00">Input</text>
<text text-anchor="middle" x="841" y="-1047.9" font-family="Times,serif" font-size="12.00">inputs</text>
<text text-anchor="middle" x="841" y="-1034.9" font-family="Times,serif" font-size="12.00">[#,*](69,)</text>
</g>
<!-- Input3&#45;&gt;Block504 -->
<g id="edge27" class="edge"><title>Input3&#45;&gt;Block504</title>
<path fill="none" stroke="black" d="M815.507,-1018.38C803.387,-1004.31 788.236,-988.013 773,-975 765.156,-968.301 756.417,-961.767 747.662,-955.704"/>
<polygon fill="black" stroke="black" points="749.538,-952.747 739.293,-950.046 745.617,-958.547 749.538,-952.747"/>
<text text-anchor="middle" x="814" y="-989" font-family="Times,serif" font-size="10.00">inputs</text>
<text text-anchor="middle" x="814" y="-978" font-family="Times,serif" font-size="10.00">[#,*](69,)</text>
</g>
<!-- Constant96 -->
<g id="node25" class="node"><title>Constant96</title>
<polygon fill="white" stroke="white" points="1043,-932 1007,-932 1007,-910 1043,-910 1043,-932"/>
<text text-anchor="middle" x="1025" y="-917.9" font-family="Times,serif" font-size="12.00">[ 0.]</text>
</g>
<!-- Constant96&#45;&gt;PastValue442 -->
<g id="edge29" class="edge"><title>Constant96&#45;&gt;PastValue442</title>
<path fill="none" stroke="black" d="M1043.11,-912.833C1071.66,-900.458 1121.94,-873.641 1102,-845 1088.17,-825.131 1062.83,-815.492 1040.63,-810.827"/>
<polygon fill="black" stroke="black" points="1041.17,-807.368 1030.71,-809.015 1039.91,-814.254 1041.17,-807.368"/>
<text text-anchor="middle" x="1130" y="-859" font-family="Times,serif" font-size="10.00">Constant96</text>
<text text-anchor="middle" x="1130" y="-848" font-family="Times,serif" font-size="10.00">(1,)</text>
</g>
<!-- Constant96&#45;&gt;PastValue445 -->
<g id="edge31" class="edge"><title>Constant96&#45;&gt;PastValue445</title>
<path fill="none" stroke="black" d="M1007,-911.928C986.863,-902.51 953.71,-885.809 928,-867 916.583,-858.648 917.513,-851.598 905,-845 860.769,-821.676 803.519,-812.481 764.927,-808.857"/>
<polygon fill="black" stroke="black" points="764.824,-805.336 754.563,-807.975 764.23,-812.311 764.824,-805.336"/>
<text text-anchor="middle" x="952" y="-859" font-family="Times,serif" font-size="10.00">Constant96</text>
<text text-anchor="middle" x="952" y="-848" font-family="Times,serif" font-size="10.00">(1,)</text>
</g>
</g>
</svg>
