<?xml version="1.0" encoding="UTF-8" standalone="no"?>
<!DOCTYPE svg PUBLIC "-//W3C//DTD SVG 1.1//EN"
 "http://www.w3.org/Graphics/SVG/1.1/DTD/svg11.dtd">
<!-- Generated by graphviz version 2.38.0 (20140413.2041)
 -->
<!-- Title: network_graph Pages: 1 -->
<svg width="1091pt" height="1355pt"
 viewBox="0.00 0.00 1091.00 1355.00" xmlns="http://www.w3.org/2000/svg" xmlns:xlink="http://www.w3.org/1999/xlink">
<g id="graph0" class="graph" transform="scale(1 1) rotate(0) translate(4 1351)">
<title>network_graph</title>
<polygon fill="white" stroke="none" points="-4,4 -4,-1351 1087,-1351 1087,4 -4,4"/>
<!-- Block1454 -->
<g id="node1" class="node"><title>Block1454</title>
<polygon fill="lightgray" stroke="black" stroke-width="4" points="173,-191 79,-191 79,-119 173,-119 173,-191"/>
<text text-anchor="middle" x="126" y="-158.4" font-family="Times,serif" font-size="12.00">Dense</text>
<text text-anchor="middle" x="126" y="-145.4" font-family="Times,serif" font-size="12.00">y_out()</text>
</g>
<!-- Block1454_Output_0 -->
<g id="node5" class="node"><title>Block1454_Output_0</title>
<polygon fill="lightgray" stroke="black" stroke-width="4" points="130.633,-0.0986735 133.701,-0.29575 136.737,-0.590689 139.729,-0.982683 142.664,-1.47066 145.532,-2.05327 148.32,-2.72894 151.018,-3.49579 153.615,-4.35174 156.103,-5.29443 158.471,-6.32129 160.713,-7.42949 162.819,-8.616 164.784,-9.87757 166.602,-11.2107 168.268,-12.6119 169.777,-14.0771 171.126,-15.6024 172.314,-17.1836 173.338,-18.8164 174.198,-20.4963 174.895,-22.2187 175.428,-23.9788 175.799,-25.7719 176.012,-27.5931 176.07,-29.4373 175.975,-31.2994 175.733,-33.1745 175.348,-35.0573 174.826,-36.9427 174.172,-38.8255 173.392,-40.7006 172.493,-42.5627 171.481,-44.4069 170.364,-46.2281 169.147,-48.0212 167.837,-49.7813 166.442,-51.5037 164.968,-53.1836 163.421,-54.8164 161.809,-56.3976 160.136,-57.9229 158.41,-59.3881 156.635,-60.7893 154.817,-62.1224 152.961,-63.384 151.072,-64.5705 149.154,-65.6787 147.21,-66.7056 145.245,-67.6483 143.261,-68.5042 141.262,-69.2711 139.251,-69.9467 137.228,-70.5293 135.197,-71.0173 133.16,-71.4093 131.118,-71.7042 129.072,-71.9013 127.024,-72 124.976,-72 122.928,-71.9013 120.882,-71.7042 118.84,-71.4093 116.803,-71.0173 114.772,-70.5293 112.749,-69.9467 110.738,-69.2711 108.739,-68.5042 106.755,-67.6483 104.79,-66.7056 102.846,-65.6787 100.928,-64.5705 99.0386,-63.384 97.1827,-62.1224 95.3649,-60.7893 93.5901,-59.3881 91.8637,-57.9229 90.1912,-56.3976 88.5786,-54.8164 87.0321,-53.1836 85.5579,-51.5037 84.1628,-49.7813 82.8533,-48.0212 81.6363,-46.2281 80.5186,-44.4069 79.5069,-42.5627 78.608,-40.7006 77.8284,-38.8255 77.1743,-36.9427 76.652,-35.0573 76.267,-33.1745 76.0248,-31.2994 75.9302,-29.4373 75.9875,-27.5931 76.2005,-25.7719 76.5723,-23.9788 77.1055,-22.2187 77.8016,-20.4963 78.6616,-18.8164 79.6859,-17.1836 80.8735,-15.6024 82.2232,-14.0771 83.7324,-12.6119 85.398,-11.2107 87.2158,-9.87757 89.1809,-8.616 91.2873,-7.42949 93.5285,-6.32129 95.897,-5.29443 98.3845,-4.35174 100.982,-3.49579 103.68,-2.72894 106.468,-2.05327 109.336,-1.47066 112.271,-0.982683 115.263,-0.590689 118.299,-0.29575 121.367,-0.0986735 124.453,-3.62377e-13 127.547,-3.69482e-13 130.633,-0.0986735"/>
<text text-anchor="middle" x="126" y="-39.4" font-family="Times,serif" font-size="12.00">y_out</text>
<text text-anchor="middle" x="126" y="-26.4" font-family="Times,serif" font-size="12.00">[#](69,)</text>
</g>
<!-- Block1454&#45;&gt;Block1454_Output_0 -->
<g id="edge4" class="edge"><title>Block1454&#45;&gt;Block1454_Output_0</title>
<path fill="none" stroke="black" d="M126,-118.896C126,-107.327 126,-94.2965 126,-82.0893"/>
<polygon fill="black" stroke="black" points="129.5,-82.079 126,-72.0791 122.5,-82.0791 129.5,-82.079"/>
<text text-anchor="middle" x="141.5" y="-93" font-family="Times,serif" font-size="10.00">[#](69,)</text>
</g>
<!-- Parameter1421 -->
<g id="node2" class="node"><title>Parameter1421</title>
<polygon fill="lightgray" stroke="black" points="72,-306.5 0,-306.5 0,-263.5 72,-263.5 72,-306.5"/>
<text text-anchor="middle" x="36" y="-288.4" font-family="Times,serif" font-size="12.00">W</text>
<text text-anchor="middle" x="36" y="-275.4" font-family="Times,serif" font-size="12.00">(768, 69)</text>
</g>
<!-- Parameter1421&#45;&gt;Block1454 -->
<g id="edge1" class="edge"><title>Parameter1421&#45;&gt;Block1454</title>
<path fill="none" stroke="black" d="M48.8775,-263.332C58.5176,-248.101 72.193,-226.994 85,-209 87.2872,-205.786 89.6878,-202.494 92.1316,-199.201"/>
<polygon fill="black" stroke="black" points="95.0435,-201.152 98.2553,-191.056 89.4484,-196.946 95.0435,-201.152"/>
<text text-anchor="middle" x="103.5" y="-223" font-family="Times,serif" font-size="10.00">W</text>
<text text-anchor="middle" x="103.5" y="-212" font-family="Times,serif" font-size="10.00">(768, 69)</text>
</g>
<!-- Parameter1422 -->
<g id="node3" class="node"><title>Parameter1422</title>
<polygon fill="lightgray" stroke="black" points="162,-306.5 90,-306.5 90,-263.5 162,-263.5 162,-306.5"/>
<text text-anchor="middle" x="126" y="-288.4" font-family="Times,serif" font-size="12.00">b</text>
<text text-anchor="middle" x="126" y="-275.4" font-family="Times,serif" font-size="12.00">(69,)</text>
</g>
<!-- Parameter1422&#45;&gt;Block1454 -->
<g id="edge2" class="edge"><title>Parameter1422&#45;&gt;Block1454</title>
<path fill="none" stroke="black" d="M126,-263.435C126,-246.673 126,-222.385 126,-201.141"/>
<polygon fill="black" stroke="black" points="129.5,-201.003 126,-191.003 122.5,-201.003 129.5,-201.003"/>
<text text-anchor="middle" x="135.5" y="-223" font-family="Times,serif" font-size="10.00">b</text>
<text text-anchor="middle" x="135.5" y="-212" font-family="Times,serif" font-size="10.00">(69,)</text>
</g>
<!-- Block1412 -->
<g id="node4" class="node"><title>Block1412</title>
<polygon fill="lightgray" stroke="black" stroke-width="4" points="274,-321 180,-321 180,-249 274,-249 274,-321"/>
<text text-anchor="middle" x="227" y="-281.9" font-family="Times,serif" font-size="12.00">Sequence::Slice</text>
</g>
<!-- Block1412&#45;&gt;Block1454 -->
<g id="edge3" class="edge"><title>Block1412&#45;&gt;Block1454</title>
<path fill="none" stroke="black" d="M199.134,-248.685C187.101,-233.435 172.907,-215.446 160.24,-199.393"/>
<polygon fill="black" stroke="black" points="162.717,-196.882 153.775,-191.2 157.222,-201.219 162.717,-196.882"/>
<text text-anchor="middle" x="228.5" y="-223" font-family="Times,serif" font-size="10.00">Block1412_Output_0</text>
<text text-anchor="middle" x="228.5" y="-212" font-family="Times,serif" font-size="10.00">[#](768,)</text>
</g>
<!-- Plus1391 -->
<g id="node6" class="node"><title>Plus1391</title>
<ellipse fill="lightgray" stroke="black" stroke-width="4" cx="227" cy="-393.5" rx="14.5" ry="14.5"/>
<text text-anchor="middle" x="227" y="-388.5" font-family="Times,serif" font-size="20.00">+</text>
</g>
<!-- Plus1391&#45;&gt;Block1412 -->
<g id="edge5" class="edge"><title>Plus1391&#45;&gt;Block1412</title>
<path fill="none" stroke="black" d="M227,-378.577C227,-366.53 227,-348.417 227,-331.397"/>
<polygon fill="black" stroke="black" points="230.5,-331.006 227,-321.006 223.5,-331.006 230.5,-331.006"/>
<text text-anchor="middle" x="269" y="-353" font-family="Times,serif" font-size="10.00">Plus1391_Output_0</text>
<text text-anchor="middle" x="269" y="-342" font-family="Times,serif" font-size="10.00">[#,*](768,)</text>
</g>
<!-- ElementTimes1388 -->
<g id="node7" class="node"><title>ElementTimes1388</title>
<ellipse fill="lightgray" stroke="black" stroke-width="4" cx="157" cy="-480.5" rx="14.5" ry="14.5"/>
<text text-anchor="middle" x="157" y="-475.5" font-family="Times,serif" font-size="20.00">*</text>
</g>
<!-- ElementTimes1388&#45;&gt;Plus1391 -->
<g id="edge6" class="edge"><title>ElementTimes1388&#45;&gt;Plus1391</title>
<path fill="none" stroke="black" d="M153.526,-466.031C151.354,-454.454 150.254,-437.807 158,-426 167.919,-410.881 187.048,-402.919 202.654,-398.785"/>
<polygon fill="black" stroke="black" points="203.763,-402.122 212.739,-396.494 202.212,-395.296 203.763,-402.122"/>
<text text-anchor="middle" x="220.5" y="-440" font-family="Times,serif" font-size="10.00">ElementTimes1388_Output_0</text>
<text text-anchor="middle" x="220.5" y="-429" font-family="Times,serif" font-size="10.00">[#,*](768,)</text>
</g>
<!-- Block622 -->
<g id="node8" class="node"><title>Block622</title>
<polygon fill="lightgray" stroke="black" stroke-width="4" points="368,-986 274,-986 274,-914 368,-914 368,-986"/>
<text text-anchor="middle" x="321" y="-946.9" font-family="Times,serif" font-size="12.00">Dropout</text>
</g>
<!-- Block622&#45;&gt;Plus1391 -->
<g id="edge7" class="edge"><title>Block622&#45;&gt;Plus1391</title>
<path fill="none" stroke="black" d="M310.752,-913.744C304.229,-888.219 297,-852.766 297,-821 297,-821 297,-821 297,-479.5 297,-454.922 298.015,-445.459 283,-426 274.673,-415.208 261.535,-407.541 250.077,-402.475"/>
<polygon fill="black" stroke="black" points="251.188,-399.15 240.603,-398.68 248.584,-405.648 251.188,-399.15"/>
<text text-anchor="middle" x="340" y="-657" font-family="Times,serif" font-size="10.00">Block622_Output_0</text>
<text text-anchor="middle" x="340" y="-646" font-family="Times,serif" font-size="10.00">[#,*](768,)</text>
</g>
<!-- Block1259 -->
<g id="node12" class="node"><title>Block1259</title>
<polygon fill="lightgray" stroke="black" stroke-width="4" points="629,-856 535,-856 535,-784 629,-784 629,-856"/>
<text text-anchor="middle" x="582" y="-816.9" font-family="Times,serif" font-size="12.00">LSTM</text>
</g>
<!-- Block622&#45;&gt;Block1259 -->
<g id="edge17" class="edge"><title>Block622&#45;&gt;Block1259</title>
<path fill="none" stroke="black" d="M368.202,-916.454C389.816,-902.356 416.113,-886.302 441,-874 467.92,-860.693 499.06,-848.661 525.217,-839.436"/>
<polygon fill="black" stroke="black" points="526.683,-842.632 534.978,-836.041 524.384,-836.02 526.683,-842.632"/>
<text text-anchor="middle" x="484" y="-888" font-family="Times,serif" font-size="10.00">Block622_Output_0</text>
<text text-anchor="middle" x="484" y="-877" font-family="Times,serif" font-size="10.00">[#,*](768,)</text>
</g>
<!-- Constant1387 -->
<g id="node9" class="node"><title>Constant1387</title>
<polygon fill="white" stroke="white" points="126,-600 94,-600 94,-578 126,-578 126,-600"/>
<text text-anchor="middle" x="110" y="-585.9" font-family="Times,serif" font-size="12.00">0.1</text>
</g>
<!-- Constant1387&#45;&gt;ElementTimes1388 -->
<g id="edge8" class="edge"><title>Constant1387&#45;&gt;ElementTimes1388</title>
<path fill="none" stroke="black" d="M107.341,-577.81C103.978,-562.665 99.8691,-533.776 111,-513 116.089,-503.502 125.451,-496.307 134.407,-491.209"/>
<polygon fill="black" stroke="black" points="136.064,-494.294 143.398,-486.647 132.897,-488.051 136.064,-494.294"/>
<text text-anchor="middle" x="140" y="-527" font-family="Times,serif" font-size="10.00">Constant1387</text>
<text text-anchor="middle" x="140" y="-516" font-family="Times,serif" font-size="10.00">()</text>
</g>
<!-- Block1290 -->
<g id="node10" class="node"><title>Block1290</title>
<polygon fill="lightgray" stroke="black" stroke-width="4" points="436,-625 342,-625 342,-553 436,-553 436,-625"/>
<text text-anchor="middle" x="389" y="-585.9" font-family="Times,serif" font-size="12.00">Dropout</text>
</g>
<!-- Block1290&#45;&gt;ElementTimes1388 -->
<g id="edge9" class="edge"><title>Block1290&#45;&gt;ElementTimes1388</title>
<path fill="none" stroke="black" d="M341.772,-566.32C292.362,-543.638 216.9,-508.997 179.553,-491.853"/>
<polygon fill="black" stroke="black" points="180.631,-488.497 170.083,-487.506 177.711,-494.859 180.631,-488.497"/>
<text text-anchor="middle" x="318.5" y="-527" font-family="Times,serif" font-size="10.00">Block1290_Output_0</text>
<text text-anchor="middle" x="318.5" y="-516" font-family="Times,serif" font-size="10.00">[#,*](768,)</text>
</g>
<!-- NoOp1282 -->
<g id="node11" class="node"><title>NoOp1282</title>
<ellipse fill="lightgray" stroke="black" stroke-width="4" cx="387" cy="-704.5" rx="14.5" ry="14.5"/>
<text text-anchor="middle" x="387" y="-701.4" font-family="Times,serif" font-size="12.00">NoOp</text>
</g>
<!-- NoOp1282&#45;&gt;Block1290 -->
<g id="edge10" class="edge"><title>NoOp1282&#45;&gt;Block1290</title>
<path fill="none" stroke="black" d="M387.245,-689.583C387.482,-676.135 387.854,-655.017 388.195,-635.681"/>
<polygon fill="black" stroke="black" points="391.698,-635.544 388.375,-625.484 384.699,-635.421 391.698,-635.544"/>
<text text-anchor="middle" x="410" y="-657" font-family="Times,serif" font-size="10.00">basic_lstm</text>
<text text-anchor="middle" x="410" y="-646" font-family="Times,serif" font-size="10.00">[#,*](768,)</text>
</g>
<!-- Block1259&#45;&gt;NoOp1282 -->
<g id="edge11" class="edge"><title>Block1259&#45;&gt;NoOp1282</title>
<path fill="none" stroke="black" d="M534.636,-811.912C484.807,-803.425 411.126,-787.602 393,-766 384.604,-755.994 382.923,-741.524 383.427,-729.245"/>
<polygon fill="black" stroke="black" points="386.922,-729.455 384.319,-719.185 379.95,-728.837 386.922,-729.455"/>
<text text-anchor="middle" x="438.5" y="-758" font-family="Times,serif" font-size="10.00">Block1259_Output_0</text>
<text text-anchor="middle" x="438.5" y="-747" font-family="Times,serif" font-size="10.00">[#,*](768,)</text>
</g>
<!-- PastValue1194 -->
<g id="node16" class="node"><title>PastValue1194</title>
<polygon fill="lightgray" stroke="black" stroke-width="4" points="949.5,-726 884.5,-726 884.5,-683 949.5,-683 949.5,-726"/>
<text text-anchor="middle" x="917" y="-701.4" font-family="Times,serif" font-size="12.00">PastValue</text>
</g>
<!-- Block1259&#45;&gt;PastValue1194 -->
<g id="edge18" class="edge"><title>Block1259&#45;&gt;PastValue1194</title>
<path fill="none" stroke="black" d="M629.095,-802.309C652.219,-793.147 679.983,-780.664 703,-766 715.483,-758.047 714.746,-750.588 728,-744 774.657,-720.808 834.418,-711.585 874.118,-707.919"/>
<polygon fill="black" stroke="black" points="874.586,-711.392 884.256,-707.063 873.997,-704.417 874.586,-711.392"/>
<text text-anchor="middle" x="773.5" y="-758" font-family="Times,serif" font-size="10.00">Block1259_Output_0</text>
<text text-anchor="middle" x="773.5" y="-747" font-family="Times,serif" font-size="10.00">[#,*](768,)</text>
</g>
<!-- PastValue1197 -->
<g id="node17" class="node"><title>PastValue1197</title>
<polygon fill="lightgray" stroke="black" stroke-width="4" points="628.5,-726 563.5,-726 563.5,-683 628.5,-683 628.5,-726"/>
<text text-anchor="middle" x="596" y="-701.4" font-family="Times,serif" font-size="12.00">PastValue</text>
</g>
<!-- Block1259&#45;&gt;PastValue1197 -->
<g id="edge20" class="edge"><title>Block1259&#45;&gt;PastValue1197</title>
<path fill="none" stroke="black" d="M534.733,-801.509C505.612,-787.928 476.702,-767.492 493,-744 506.528,-724.502 531.205,-714.861 553.014,-710.103"/>
<polygon fill="black" stroke="black" points="553.931,-713.492 563.104,-708.19 552.627,-706.614 553.931,-713.492"/>
<text text-anchor="middle" x="538.5" y="-758" font-family="Times,serif" font-size="10.00">Block1259_Output_1</text>
<text text-anchor="middle" x="538.5" y="-747" font-family="Times,serif" font-size="10.00">[#,*](768,)</text>
</g>
<!-- Parameter673 -->
<g id="node13" class="node"><title>Parameter673</title>
<polygon fill="lightgray" stroke="black" points="528,-971.5 456,-971.5 456,-928.5 528,-928.5 528,-971.5"/>
<text text-anchor="middle" x="492" y="-953.4" font-family="Times,serif" font-size="12.00">b</text>
<text text-anchor="middle" x="492" y="-940.4" font-family="Times,serif" font-size="12.00">(3072,)</text>
</g>
<!-- Parameter673&#45;&gt;Block1259 -->
<g id="edge12" class="edge"><title>Parameter673&#45;&gt;Block1259</title>
<path fill="none" stroke="black" d="M506.46,-928.435C518.567,-911.216 536.259,-886.054 551.477,-864.41"/>
<polygon fill="black" stroke="black" points="554.5,-866.196 557.389,-856.003 548.774,-862.17 554.5,-866.196"/>
<text text-anchor="middle" x="557" y="-888" font-family="Times,serif" font-size="10.00">b</text>
<text text-anchor="middle" x="557" y="-877" font-family="Times,serif" font-size="10.00">(3072,)</text>
</g>
<!-- Parameter674 -->
<g id="node14" class="node"><title>Parameter674</title>
<polygon fill="lightgray" stroke="black" points="618,-971.5 546,-971.5 546,-928.5 618,-928.5 618,-971.5"/>
<text text-anchor="middle" x="582" y="-953.4" font-family="Times,serif" font-size="12.00">W</text>
<text text-anchor="middle" x="582" y="-940.4" font-family="Times,serif" font-size="12.00">(768, 3072)</text>
</g>
<!-- Parameter674&#45;&gt;Block1259 -->
<g id="edge13" class="edge"><title>Parameter674&#45;&gt;Block1259</title>
<path fill="none" stroke="black" d="M582,-928.435C582,-911.673 582,-887.385 582,-866.141"/>
<polygon fill="black" stroke="black" points="585.5,-866.003 582,-856.003 578.5,-866.003 585.5,-866.003"/>
<text text-anchor="middle" x="606" y="-888" font-family="Times,serif" font-size="10.00">W</text>
<text text-anchor="middle" x="606" y="-877" font-family="Times,serif" font-size="10.00">(768, 3072)</text>
</g>
<!-- Parameter675 -->
<g id="node15" class="node"><title>Parameter675</title>
<polygon fill="lightgray" stroke="black" points="708,-971.5 636,-971.5 636,-928.5 708,-928.5 708,-971.5"/>
<text text-anchor="middle" x="672" y="-953.4" font-family="Times,serif" font-size="12.00">H</text>
<text text-anchor="middle" x="672" y="-940.4" font-family="Times,serif" font-size="12.00">(768, 3072)</text>
</g>
<!-- Parameter675&#45;&gt;Block1259 -->
<g id="edge14" class="edge"><title>Parameter675&#45;&gt;Block1259</title>
<path fill="none" stroke="black" d="M663.581,-928.301C656.746,-912.673 646.254,-891.078 634,-874 631.548,-870.583 628.877,-867.176 626.081,-863.833"/>
<polygon fill="black" stroke="black" points="628.597,-861.393 619.379,-856.17 623.328,-866.001 628.597,-861.393"/>
<text text-anchor="middle" x="671" y="-888" font-family="Times,serif" font-size="10.00">H</text>
<text text-anchor="middle" x="671" y="-877" font-family="Times,serif" font-size="10.00">(768, 3072)</text>
</g>
<!-- PastValue1194&#45;&gt;Block1259 -->
<g id="edge15" class="edge"><title>PastValue1194&#45;&gt;Block1259</title>
<path fill="none" stroke="black" d="M914.782,-726.21C912.235,-739.559 906.761,-756.196 895,-766 857.067,-797.62 718.865,-810.942 639.361,-816.089"/>
<polygon fill="black" stroke="black" points="638.784,-812.619 629.022,-816.734 639.22,-819.605 638.784,-812.619"/>
<text text-anchor="middle" x="963" y="-758" font-family="Times,serif" font-size="10.00">PastValue1194_Output_0</text>
<text text-anchor="middle" x="963" y="-747" font-family="Times,serif" font-size="10.00">[#,*](768,)</text>
</g>
<!-- PastValue1197&#45;&gt;Block1259 -->
<g id="edge16" class="edge"><title>PastValue1197&#45;&gt;Block1259</title>
<path fill="none" stroke="black" d="M593.445,-726.217C591.806,-739.497 589.614,-757.268 587.587,-773.702"/>
<polygon fill="black" stroke="black" points="584.104,-773.357 586.353,-783.71 591.051,-774.214 584.104,-773.357"/>
<text text-anchor="middle" x="645" y="-758" font-family="Times,serif" font-size="10.00">PastValue1197_Output_0</text>
<text text-anchor="middle" x="645" y="-747" font-family="Times,serif" font-size="10.00">[#,*](768,)</text>
</g>
<!-- Constant764 -->
<g id="node18" class="node"><title>Constant764</title>
<polygon fill="white" stroke="white" points="960.5,-831 927.5,-831 927.5,-809 960.5,-809 960.5,-831"/>
<text text-anchor="middle" x="944" y="-816.9" font-family="Times,serif" font-size="12.00">[0.]</text>
</g>
<!-- Constant764&#45;&gt;PastValue1194 -->
<g id="edge19" class="edge"><title>Constant764&#45;&gt;PastValue1194</title>
<path fill="none" stroke="black" d="M960.823,-812.952C990.57,-801.308 1047.39,-774.241 1026,-744 1011.06,-722.876 983.522,-713.264 959.866,-708.927"/>
<polygon fill="black" stroke="black" points="960.094,-705.42 949.672,-707.327 959.009,-712.335 960.094,-705.42"/>
<text text-anchor="middle" x="1056.5" y="-758" font-family="Times,serif" font-size="10.00">Constant764</text>
<text text-anchor="middle" x="1056.5" y="-747" font-family="Times,serif" font-size="10.00">(1,)</text>
</g>
<!-- Constant764&#45;&gt;PastValue1197 -->
<g id="edge21" class="edge"><title>Constant764&#45;&gt;PastValue1197</title>
<path fill="none" stroke="black" d="M927.416,-813.079C905.519,-804.756 866.422,-788.106 838,-766 827.802,-758.068 830.246,-750.36 819,-744 788.899,-726.976 694.743,-715.16 638.864,-709.439"/>
<polygon fill="black" stroke="black" points="639.198,-705.955 628.899,-708.442 638.501,-712.92 639.198,-705.955"/>
<text text-anchor="middle" x="864.5" y="-758" font-family="Times,serif" font-size="10.00">Constant764</text>
<text text-anchor="middle" x="864.5" y="-747" font-family="Times,serif" font-size="10.00">(1,)</text>
</g>
<!-- NoOp614 -->
<g id="node19" class="node"><title>NoOp614</title>
<ellipse fill="lightgray" stroke="black" stroke-width="4" cx="321" cy="-1065.5" rx="14.5" ry="14.5"/>
<text text-anchor="middle" x="321" y="-1062.4" font-family="Times,serif" font-size="12.00">NoOp</text>
</g>
<!-- NoOp614&#45;&gt;Block622 -->
<g id="edge22" class="edge"><title>NoOp614&#45;&gt;Block622</title>
<path fill="none" stroke="black" d="M321,-1050.58C321,-1037.14 321,-1016.02 321,-996.681"/>
<polygon fill="black" stroke="black" points="324.5,-996.484 321,-986.484 317.5,-996.484 324.5,-996.484"/>
<text text-anchor="middle" x="343" y="-1018" font-family="Times,serif" font-size="10.00">basic_lstm</text>
<text text-anchor="middle" x="343" y="-1007" font-family="Times,serif" font-size="10.00">[#,*](768,)</text>
</g>
<!-- Block591 -->
<g id="node20" class="node"><title>Block591</title>
<polygon fill="lightgray" stroke="black" stroke-width="4" points="586,-1217 492,-1217 492,-1145 586,-1145 586,-1217"/>
<text text-anchor="middle" x="539" y="-1177.9" font-family="Times,serif" font-size="12.00">LSTM</text>
</g>
<!-- Block591&#45;&gt;NoOp614 -->
<g id="edge23" class="edge"><title>Block591&#45;&gt;NoOp614</title>
<path fill="none" stroke="black" d="M491.837,-1176.58C451.427,-1171.48 393.64,-1158.74 354,-1127 341.915,-1117.32 333.615,-1101.97 328.362,-1089.15"/>
<polygon fill="black" stroke="black" points="331.563,-1087.72 324.788,-1079.57 325.005,-1090.17 331.563,-1087.72"/>
<text text-anchor="middle" x="397" y="-1119" font-family="Times,serif" font-size="10.00">Block591_Output_0</text>
<text text-anchor="middle" x="397" y="-1108" font-family="Times,serif" font-size="10.00">[#,*](768,)</text>
</g>
<!-- PastValue526 -->
<g id="node24" class="node"><title>PastValue526</title>
<polygon fill="lightgray" stroke="black" stroke-width="4" points="877.5,-1087 812.5,-1087 812.5,-1044 877.5,-1044 877.5,-1087"/>
<text text-anchor="middle" x="845" y="-1062.4" font-family="Times,serif" font-size="12.00">PastValue</text>
</g>
<!-- Block591&#45;&gt;PastValue526 -->
<g id="edge30" class="edge"><title>Block591&#45;&gt;PastValue526</title>
<path fill="none" stroke="black" d="M586.232,-1159.54C604.642,-1150.66 625.483,-1139.43 643,-1127 654.535,-1118.81 653.502,-1111.63 666,-1105 708.998,-1082.2 764.59,-1072.9 802.332,-1069.11"/>
<polygon fill="black" stroke="black" points="802.84,-1072.58 812.479,-1068.18 802.201,-1065.61 802.84,-1072.58"/>
<text text-anchor="middle" x="709" y="-1119" font-family="Times,serif" font-size="10.00">Block591_Output_0</text>
<text text-anchor="middle" x="709" y="-1108" font-family="Times,serif" font-size="10.00">[#,*](768,)</text>
</g>
<!-- PastValue529 -->
<g id="node25" class="node"><title>PastValue529</title>
<polygon fill="lightgray" stroke="black" stroke-width="4" points="571.5,-1087 506.5,-1087 506.5,-1044 571.5,-1044 571.5,-1087"/>
<text text-anchor="middle" x="539" y="-1062.4" font-family="Times,serif" font-size="12.00">PastValue</text>
</g>
<!-- Block591&#45;&gt;PastValue529 -->
<g id="edge32" class="edge"><title>Block591&#45;&gt;PastValue529</title>
<path fill="none" stroke="black" d="M491.89,-1162.97C462.524,-1149.55 433.093,-1129.11 449,-1105 459.662,-1088.84 478.654,-1079.44 496.452,-1073.98"/>
<polygon fill="black" stroke="black" points="497.429,-1077.34 506.157,-1071.34 495.588,-1070.59 497.429,-1077.34"/>
<text text-anchor="middle" x="492" y="-1119" font-family="Times,serif" font-size="10.00">Block591_Output_1</text>
<text text-anchor="middle" x="492" y="-1108" font-family="Times,serif" font-size="10.00">[#,*](768,)</text>
</g>
<!-- Parameter5 -->
<g id="node21" class="node"><title>Parameter5</title>
<polygon fill="lightgray" stroke="black" points="440,-1332.5 368,-1332.5 368,-1289.5 440,-1289.5 440,-1332.5"/>
<text text-anchor="middle" x="404" y="-1314.4" font-family="Times,serif" font-size="12.00">b</text>
<text text-anchor="middle" x="404" y="-1301.4" font-family="Times,serif" font-size="12.00">(3072,)</text>
</g>
<!-- Parameter5&#45;&gt;Block591 -->
<g id="edge24" class="edge"><title>Parameter5&#45;&gt;Block591</title>
<path fill="none" stroke="black" d="M423.033,-1289.45C437.487,-1274.09 458.043,-1252.77 477,-1235 480.939,-1231.31 485.079,-1227.54 489.275,-1223.8"/>
<polygon fill="black" stroke="black" points="491.664,-1226.36 496.853,-1217.12 487.036,-1221.11 491.664,-1226.36"/>
<text text-anchor="middle" x="492" y="-1249" font-family="Times,serif" font-size="10.00">b</text>
<text text-anchor="middle" x="492" y="-1238" font-family="Times,serif" font-size="10.00">(3072,)</text>
</g>
<!-- Parameter6 -->
<g id="node22" class="node"><title>Parameter6</title>
<polygon fill="lightgray" stroke="black" points="530,-1332.5 458,-1332.5 458,-1289.5 530,-1289.5 530,-1332.5"/>
<text text-anchor="middle" x="494" y="-1314.4" font-family="Times,serif" font-size="12.00">W</text>
<text text-anchor="middle" x="494" y="-1301.4" font-family="Times,serif" font-size="12.00">(69, 3072)</text>
</g>
<!-- Parameter6&#45;&gt;Block591 -->
<g id="edge25" class="edge"><title>Parameter6&#45;&gt;Block591</title>
<path fill="none" stroke="black" d="M500.681,-1289.23C505.596,-1274.14 512.523,-1253.24 519,-1235 519.957,-1232.31 520.954,-1229.54 521.97,-1226.76"/>
<polygon fill="black" stroke="black" points="525.288,-1227.87 525.467,-1217.28 518.721,-1225.45 525.288,-1227.87"/>
<text text-anchor="middle" x="540.5" y="-1249" font-family="Times,serif" font-size="10.00">W</text>
<text text-anchor="middle" x="540.5" y="-1238" font-family="Times,serif" font-size="10.00">(69, 3072)</text>
</g>
<!-- Parameter7 -->
<g id="node23" class="node"><title>Parameter7</title>
<polygon fill="lightgray" stroke="black" points="620,-1332.5 548,-1332.5 548,-1289.5 620,-1289.5 620,-1332.5"/>
<text text-anchor="middle" x="584" y="-1314.4" font-family="Times,serif" font-size="12.00">H</text>
<text text-anchor="middle" x="584" y="-1301.4" font-family="Times,serif" font-size="12.00">(768, 3072)</text>
</g>
<!-- Parameter7&#45;&gt;Block591 -->
<g id="edge26" class="edge"><title>Parameter7&#45;&gt;Block591</title>
<path fill="none" stroke="black" d="M578.7,-1289.41C574.611,-1274.21 568.56,-1253.12 562,-1235 561.008,-1232.26 559.944,-1229.46 558.838,-1226.64"/>
<polygon fill="black" stroke="black" points="561.969,-1225.05 554.959,-1217.11 555.484,-1227.69 561.969,-1225.05"/>
<text text-anchor="middle" x="592" y="-1249" font-family="Times,serif" font-size="10.00">H</text>
<text text-anchor="middle" x="592" y="-1238" font-family="Times,serif" font-size="10.00">(768, 3072)</text>
</g>
<!-- PastValue526&#45;&gt;Block591 -->
<g id="edge27" class="edge"><title>PastValue526&#45;&gt;Block591</title>
<path fill="none" stroke="black" d="M842.729,-1087.15C840.158,-1100.47 834.679,-1117.1 823,-1127 789.591,-1155.33 669.571,-1169.67 596.675,-1175.93"/>
<polygon fill="black" stroke="black" points="595.953,-1172.48 586.278,-1176.79 596.534,-1179.45 595.953,-1172.48"/>
<text text-anchor="middle" x="888.5" y="-1119" font-family="Times,serif" font-size="10.00">PastValue526_Output_0</text>
<text text-anchor="middle" x="888.5" y="-1108" font-family="Times,serif" font-size="10.00">[#,*](768,)</text>
</g>
<!-- PastValue529&#45;&gt;Block591 -->
<g id="edge28" class="edge"><title>PastValue529&#45;&gt;Block591</title>
<path fill="none" stroke="black" d="M539,-1087.22C539,-1100.5 539,-1118.27 539,-1134.7"/>
<polygon fill="black" stroke="black" points="535.5,-1134.71 539,-1144.71 542.5,-1134.71 535.5,-1134.71"/>
<text text-anchor="middle" x="590.5" y="-1119" font-family="Times,serif" font-size="10.00">PastValue529_Output_0</text>
<text text-anchor="middle" x="590.5" y="-1108" font-family="Times,serif" font-size="10.00">[#,*](768,)</text>
</g>
<!-- Input3 -->
<g id="node26" class="node"><title>Input3</title>
<polygon fill="lightgray" stroke="black" stroke-width="4" points="692.633,-1275.1 695.701,-1275.3 698.737,-1275.59 701.729,-1275.98 704.664,-1276.47 707.532,-1277.05 710.32,-1277.73 713.018,-1278.5 715.615,-1279.35 718.103,-1280.29 720.471,-1281.32 722.713,-1282.43 724.819,-1283.62 726.784,-1284.88 728.602,-1286.21 730.268,-1287.61 731.777,-1289.08 733.126,-1290.6 734.314,-1292.18 735.338,-1293.82 736.198,-1295.5 736.895,-1297.22 737.428,-1298.98 737.799,-1300.77 738.012,-1302.59 738.07,-1304.44 737.975,-1306.3 737.733,-1308.17 737.348,-1310.06 736.826,-1311.94 736.172,-1313.83 735.392,-1315.7 734.493,-1317.56 733.481,-1319.41 732.364,-1321.23 731.147,-1323.02 729.837,-1324.78 728.442,-1326.5 726.968,-1328.18 725.421,-1329.82 723.809,-1331.4 722.136,-1332.92 720.41,-1334.39 718.635,-1335.79 716.817,-1337.12 714.961,-1338.38 713.072,-1339.57 711.154,-1340.68 709.21,-1341.71 707.245,-1342.65 705.261,-1343.5 703.262,-1344.27 701.251,-1344.95 699.228,-1345.53 697.197,-1346.02 695.16,-1346.41 693.118,-1346.7 691.072,-1346.9 689.024,-1347 686.976,-1347 684.928,-1346.9 682.882,-1346.7 680.84,-1346.41 678.803,-1346.02 676.772,-1345.53 674.749,-1344.95 672.738,-1344.27 670.739,-1343.5 668.755,-1342.65 666.79,-1341.71 664.846,-1340.68 662.928,-1339.57 661.039,-1338.38 659.183,-1337.12 657.365,-1335.79 655.59,-1334.39 653.864,-1332.92 652.191,-1331.4 650.579,-1329.82 649.032,-1328.18 647.558,-1326.5 646.163,-1324.78 644.853,-1323.02 643.636,-1321.23 642.519,-1319.41 641.507,-1317.56 640.608,-1315.7 639.828,-1313.83 639.174,-1311.94 638.652,-1310.06 638.267,-1308.17 638.025,-1306.3 637.93,-1304.44 637.988,-1302.59 638.201,-1300.77 638.572,-1298.98 639.105,-1297.22 639.802,-1295.5 640.662,-1293.82 641.686,-1292.18 642.874,-1290.6 644.223,-1289.08 645.732,-1287.61 647.398,-1286.21 649.216,-1284.88 651.181,-1283.62 653.287,-1282.43 655.529,-1281.32 657.897,-1280.29 660.385,-1279.35 662.982,-1278.5 665.68,-1277.73 668.468,-1277.05 671.336,-1276.47 674.271,-1275.98 677.263,-1275.59 680.299,-1275.3 683.367,-1275.1 686.453,-1275 689.547,-1275 692.633,-1275.1"/>
<text text-anchor="middle" x="688" y="-1320.9" font-family="Times,serif" font-size="12.00">Input</text>
<text text-anchor="middle" x="688" y="-1307.9" font-family="Times,serif" font-size="12.00">inputs</text>
<text text-anchor="middle" x="688" y="-1294.9" font-family="Times,serif" font-size="12.00">[#,*](69,)</text>
</g>
<!-- Input3&#45;&gt;Block591 -->
<g id="edge29" class="edge"><title>Input3&#45;&gt;Block591</title>
<path fill="none" stroke="black" d="M662.507,-1278.38C650.387,-1264.31 635.236,-1248.01 620,-1235 612.156,-1228.3 603.417,-1221.77 594.662,-1215.7"/>
<polygon fill="black" stroke="black" points="596.538,-1212.75 586.293,-1210.05 592.617,-1218.55 596.538,-1212.75"/>
<text text-anchor="middle" x="661" y="-1249" font-family="Times,serif" font-size="10.00">inputs</text>
<text text-anchor="middle" x="661" y="-1238" font-family="Times,serif" font-size="10.00">[#,*](69,)</text>
</g>
<!-- Constant96 -->
<g id="node27" class="node"><title>Constant96</title>
<polygon fill="white" stroke="white" points="888.5,-1192 855.5,-1192 855.5,-1170 888.5,-1170 888.5,-1192"/>
<text text-anchor="middle" x="872" y="-1177.9" font-family="Times,serif" font-size="12.00">[0.]</text>
</g>
<!-- Constant96&#45;&gt;PastValue526 -->
<g id="edge31" class="edge"><title>Constant96&#45;&gt;PastValue526</title>
<path fill="none" stroke="black" d="M888.754,-1173.42C917.03,-1161.32 969.257,-1134.1 949,-1105 935.169,-1085.13 909.834,-1075.49 887.633,-1070.83"/>
<polygon fill="black" stroke="black" points="888.172,-1067.37 877.706,-1069.01 886.915,-1074.25 888.172,-1067.37"/>
<text text-anchor="middle" x="977" y="-1119" font-family="Times,serif" font-size="10.00">Constant96</text>
<text text-anchor="middle" x="977" y="-1108" font-family="Times,serif" font-size="10.00">(1,)</text>
</g>
<!-- Constant96&#45;&gt;PastValue529 -->
<g id="edge33" class="edge"><title>Constant96&#45;&gt;PastValue529</title>
<path fill="none" stroke="black" d="M855.496,-1173.61C834.525,-1165.01 797.834,-1148.3 771,-1127 760.88,-1118.97 763.221,-1111.4 752,-1105 698.71,-1074.59 626.748,-1067.31 581.611,-1066.02"/>
<polygon fill="black" stroke="black" points="581.641,-1062.52 571.574,-1065.82 581.502,-1069.52 581.641,-1062.52"/>
<text text-anchor="middle" x="795" y="-1119" font-family="Times,serif" font-size="10.00">Constant96</text>
<text text-anchor="middle" x="795" y="-1108" font-family="Times,serif" font-size="10.00">(1,)</text>
</g>
</g>
</svg>
