<?xml version="1.0" encoding="UTF-8" standalone="no"?>
<!DOCTYPE svg PUBLIC "-//W3C//DTD SVG 1.1//EN"
 "http://www.w3.org/Graphics/SVG/1.1/DTD/svg11.dtd">
<!-- Generated by graphviz version 2.38.0 (20140413.2041)
 -->
<!-- Title: network_graph Pages: 1 -->
<svg width="1051pt" height="1355pt"
 viewBox="0.00 0.00 1051.00 1355.00" xmlns="http://www.w3.org/2000/svg" xmlns:xlink="http://www.w3.org/1999/xlink">
<g id="graph0" class="graph" transform="scale(1 1) rotate(0) translate(4 1351)">
<title>network_graph</title>
<polygon fill="white" stroke="none" points="-4,4 -4,-1351 1047,-1351 1047,4 -4,4"/>
<!-- Block1454 -->
<g id="node1" class="node"><title>Block1454</title>
<polygon fill="lightgray" stroke="black" stroke-width="4" points="173,-191 79,-191 79,-119 173,-119 173,-191"/>
<text text-anchor="middle" x="126" y="-158.4" font-family="Times New Roman,serif" font-size="12.00">Dense</text>
<text text-anchor="middle" x="126" y="-145.4" font-family="Times New Roman,serif" font-size="12.00">y_out()</text>
</g>
<!-- Block1454_Output_0 -->
<g id="node5" class="node"><title>Block1454_Output_0</title>
<polygon fill="lightgray" stroke="black" stroke-width="4" points="130.633,-0.0986735 133.701,-0.29575 136.737,-0.590689 139.729,-0.982683 142.664,-1.47066 145.532,-2.05327 148.32,-2.72894 151.018,-3.49579 153.615,-4.35174 156.103,-5.29443 158.471,-6.32129 160.713,-7.42949 162.819,-8.616 164.784,-9.87757 166.602,-11.2107 168.268,-12.6119 169.777,-14.0771 171.126,-15.6024 172.314,-17.1836 173.338,-18.8164 174.198,-20.4963 174.895,-22.2187 175.428,-23.9788 175.799,-25.7719 176.012,-27.5931 176.07,-29.4373 175.975,-31.2994 175.733,-33.1745 175.348,-35.0573 174.826,-36.9427 174.172,-38.8255 173.392,-40.7006 172.493,-42.5627 171.481,-44.4069 170.364,-46.2281 169.147,-48.0212 167.837,-49.7813 166.442,-51.5037 164.968,-53.1836 163.421,-54.8164 161.809,-56.3976 160.136,-57.9229 158.41,-59.3881 156.635,-60.7893 154.817,-62.1224 152.961,-63.384 151.072,-64.5705 149.154,-65.6787 147.21,-66.7056 145.245,-67.6483 143.261,-68.5042 141.262,-69.2711 139.251,-69.9467 137.228,-70.5293 135.197,-71.0173 133.16,-71.4093 131.118,-71.7042 129.072,-71.9013 127.024,-72 124.976,-72 122.928,-71.9013 120.882,-71.7042 118.84,-71.4093 116.803,-71.0173 114.772,-70.5293 112.749,-69.9467 110.738,-69.2711 108.739,-68.5042 106.755,-67.6483 104.79,-66.7056 102.846,-65.6787 100.928,-64.5705 99.0386,-63.384 97.1827,-62.1224 95.3649,-60.7893 93.5901,-59.3881 91.8637,-57.9229 90.1912,-56.3976 88.5786,-54.8164 87.0321,-53.1836 85.5579,-51.5037 84.1628,-49.7813 82.8533,-48.0212 81.6363,-46.2281 80.5186,-44.4069 79.5069,-42.5627 78.608,-40.7006 77.8284,-38.8255 77.1743,-36.9427 76.652,-35.0573 76.267,-33.1745 76.0248,-31.2994 75.9302,-29.4373 75.9875,-27.5931 76.2005,-25.7719 76.5723,-23.9788 77.1055,-22.2187 77.8016,-20.4963 78.6616,-18.8164 79.6859,-17.1836 80.8735,-15.6024 82.2232,-14.0771 83.7324,-12.6119 85.398,-11.2107 87.2158,-9.87757 89.1809,-8.616 91.2873,-7.42949 93.5285,-6.32129 95.897,-5.29443 98.3845,-4.35174 100.982,-3.49579 103.68,-2.72894 106.468,-2.05327 109.336,-1.47066 112.271,-0.982683 115.263,-0.590689 118.299,-0.29575 121.367,-0.0986735 124.453,-3.55271e-013 127.547,-3.69482e-013 130.633,-0.0986735"/>
<text text-anchor="middle" x="126" y="-39.4" font-family="Times New Roman,serif" font-size="12.00">y_out</text>
<text text-anchor="middle" x="126" y="-26.4" font-family="Times New Roman,serif" font-size="12.00">[#](17,)</text>
</g>
<!-- Block1454&#45;&gt;Block1454_Output_0 -->
<g id="edge4" class="edge"><title>Block1454&#45;&gt;Block1454_Output_0</title>
<path fill="none" stroke="black" d="M126,-118.896C126,-107.327 126,-94.2965 126,-82.0893"/>
<polygon fill="black" stroke="black" points="129.5,-82.079 126,-72.0791 122.5,-82.0791 129.5,-82.079"/>
<text text-anchor="middle" x="140.5" y="-93" font-family="Times New Roman,serif" font-size="10.00">[#](17,)</text>
</g>
<!-- Parameter1421 -->
<g id="node2" class="node"><title>Parameter1421</title>
<polygon fill="lightgray" stroke="black" points="72,-306.5 0,-306.5 0,-263.5 72,-263.5 72,-306.5"/>
<text text-anchor="middle" x="36" y="-288.4" font-family="Times New Roman,serif" font-size="12.00">W</text>
<text text-anchor="middle" x="36" y="-275.4" font-family="Times New Roman,serif" font-size="12.00">(512, 17)</text>
</g>
<!-- Parameter1421&#45;&gt;Block1454 -->
<g id="edge1" class="edge"><title>Parameter1421&#45;&gt;Block1454</title>
<path fill="none" stroke="black" d="M50.259,-263.247C60.659,-248.156 75.1262,-227.258 88,-209 90.2478,-205.812 92.5789,-202.522 94.9301,-199.216"/>
<polygon fill="black" stroke="black" points="97.8246,-201.185 100.78,-191.01 92.1249,-197.121 97.8246,-201.185"/>
<text text-anchor="middle" x="105" y="-223" font-family="Times New Roman,serif" font-size="10.00">W</text>
<text text-anchor="middle" x="105" y="-212" font-family="Times New Roman,serif" font-size="10.00">(512, 17)</text>
</g>
<!-- Parameter1422 -->
<g id="node3" class="node"><title>Parameter1422</title>
<polygon fill="lightgray" stroke="black" points="162,-306.5 90,-306.5 90,-263.5 162,-263.5 162,-306.5"/>
<text text-anchor="middle" x="126" y="-288.4" font-family="Times New Roman,serif" font-size="12.00">b</text>
<text text-anchor="middle" x="126" y="-275.4" font-family="Times New Roman,serif" font-size="12.00">(17,)</text>
</g>
<!-- Parameter1422&#45;&gt;Block1454 -->
<g id="edge2" class="edge"><title>Parameter1422&#45;&gt;Block1454</title>
<path fill="none" stroke="black" d="M126,-263.435C126,-246.673 126,-222.385 126,-201.141"/>
<polygon fill="black" stroke="black" points="129.5,-201.003 126,-191.003 122.5,-201.003 129.5,-201.003"/>
<text text-anchor="middle" x="135" y="-223" font-family="Times New Roman,serif" font-size="10.00">b</text>
<text text-anchor="middle" x="135" y="-212" font-family="Times New Roman,serif" font-size="10.00">(17,)</text>
</g>
<!-- Block1412 -->
<g id="node4" class="node"><title>Block1412</title>
<polygon fill="lightgray" stroke="black" stroke-width="4" points="274,-321 180,-321 180,-249 274,-249 274,-321"/>
<text text-anchor="middle" x="227" y="-281.9" font-family="Times New Roman,serif" font-size="12.00">Sequence::Slice</text>
</g>
<!-- Block1412&#45;&gt;Block1454 -->
<g id="edge3" class="edge"><title>Block1412&#45;&gt;Block1454</title>
<path fill="none" stroke="black" d="M199.134,-248.685C187.101,-233.435 172.907,-215.446 160.24,-199.393"/>
<polygon fill="black" stroke="black" points="162.717,-196.882 153.775,-191.2 157.222,-201.219 162.717,-196.882"/>
<text text-anchor="middle" x="225.5" y="-223" font-family="Times New Roman,serif" font-size="10.00">Block1412_Output_0</text>
<text text-anchor="middle" x="225.5" y="-212" font-family="Times New Roman,serif" font-size="10.00">[#](512,)</text>
</g>
<!-- Plus1391 -->
<g id="node6" class="node"><title>Plus1391</title>
<ellipse fill="lightgray" stroke="black" stroke-width="4" cx="227" cy="-393.5" rx="14.5" ry="14.5"/>
<text text-anchor="middle" x="227" y="-388.5" font-family="Times New Roman,serif" font-size="20.00">+</text>
</g>
<!-- Plus1391&#45;&gt;Block1412 -->
<g id="edge5" class="edge"><title>Plus1391&#45;&gt;Block1412</title>
<path fill="none" stroke="black" d="M227,-378.577C227,-366.53 227,-348.417 227,-331.397"/>
<polygon fill="black" stroke="black" points="230.5,-331.006 227,-321.006 223.5,-331.006 230.5,-331.006"/>
<text text-anchor="middle" x="266.5" y="-353" font-family="Times New Roman,serif" font-size="10.00">Plus1391_Output_0</text>
<text text-anchor="middle" x="266.5" y="-342" font-family="Times New Roman,serif" font-size="10.00">[#,*](512,)</text>
</g>
<!-- ElementTimes1388 -->
<g id="node7" class="node"><title>ElementTimes1388</title>
<ellipse fill="lightgray" stroke="black" stroke-width="4" cx="161" cy="-480.5" rx="14.5" ry="14.5"/>
<text text-anchor="middle" x="161" y="-475.5" font-family="Times New Roman,serif" font-size="20.00">*</text>
</g>
<!-- ElementTimes1388&#45;&gt;Plus1391 -->
<g id="edge6" class="edge"><title>ElementTimes1388&#45;&gt;Plus1391</title>
<path fill="none" stroke="black" d="M157.594,-466.075C155.465,-454.525 154.391,-437.895 162,-426 171.027,-411.89 188.33,-403.928 202.816,-399.541"/>
<polygon fill="black" stroke="black" points="203.925,-402.868 212.707,-396.94 202.146,-396.098 203.925,-402.868"/>
<text text-anchor="middle" x="221" y="-440" font-family="Times New Roman,serif" font-size="10.00">ElementTimes1388_Output_0</text>
<text text-anchor="middle" x="221" y="-429" font-family="Times New Roman,serif" font-size="10.00">[#,*](512,)</text>
</g>
<!-- Block622 -->
<g id="node8" class="node"><title>Block622</title>
<polygon fill="lightgray" stroke="black" stroke-width="4" points="396,-986 302,-986 302,-914 396,-914 396,-986"/>
<text text-anchor="middle" x="349" y="-946.9" font-family="Times New Roman,serif" font-size="12.00">Dropout</text>
</g>
<!-- Block622&#45;&gt;Plus1391 -->
<g id="edge7" class="edge"><title>Block622&#45;&gt;Plus1391</title>
<path fill="none" stroke="black" d="M324.716,-913.759C309.982,-888.966 294,-854.378 294,-821 294,-821 294,-821 294,-479.5 294,-454.922 294.781,-445.637 280,-426 272.41,-415.917 260.569,-408.44 250.002,-403.307"/>
<polygon fill="black" stroke="black" points="251.377,-400.088 240.816,-399.245 248.546,-406.49 251.377,-400.088"/>
<text text-anchor="middle" x="334" y="-657" font-family="Times New Roman,serif" font-size="10.00">Block622_Output_0</text>
<text text-anchor="middle" x="334" y="-646" font-family="Times New Roman,serif" font-size="10.00">[#,*](512,)</text>
</g>
<!-- Block1259 -->
<g id="node12" class="node"><title>Block1259</title>
<polygon fill="lightgray" stroke="black" stroke-width="4" points="619,-856 525,-856 525,-784 619,-784 619,-856"/>
<text text-anchor="middle" x="572" y="-816.9" font-family="Times New Roman,serif" font-size="12.00">LSTM</text>
</g>
<!-- Block622&#45;&gt;Block1259 -->
<g id="edge17" class="edge"><title>Block622&#45;&gt;Block1259</title>
<path fill="none" stroke="black" d="M384.583,-913.958C399.837,-900.235 418.405,-885.145 437,-874 461.309,-859.43 490.34,-847.426 515.241,-838.549"/>
<polygon fill="black" stroke="black" points="516.625,-841.773 524.918,-835.18 514.323,-835.162 516.625,-841.773"/>
<text text-anchor="middle" x="477" y="-888" font-family="Times New Roman,serif" font-size="10.00">Block622_Output_0</text>
<text text-anchor="middle" x="477" y="-877" font-family="Times New Roman,serif" font-size="10.00">[#,*](512,)</text>
</g>
<!-- Constant1387 -->
<g id="node9" class="node"><title>Constant1387</title>
<polygon fill="white" stroke="white" points="132,-600 100,-600 100,-578 132,-578 132,-600"/>
<text text-anchor="middle" x="116" y="-585.9" font-family="Times New Roman,serif" font-size="12.00">0.1</text>
</g>
<!-- Constant1387&#45;&gt;ElementTimes1388 -->
<g id="edge8" class="edge"><title>Constant1387&#45;&gt;ElementTimes1388</title>
<path fill="none" stroke="black" d="M113.397,-577.839C110.106,-562.733 106.087,-533.891 117,-513 121.728,-503.95 130.372,-496.906 138.755,-491.797"/>
<polygon fill="black" stroke="black" points="140.442,-494.864 147.552,-487.008 137.095,-488.716 140.442,-494.864"/>
<text text-anchor="middle" x="144.5" y="-527" font-family="Times New Roman,serif" font-size="10.00">Constant1387</text>
<text text-anchor="middle" x="144.5" y="-516" font-family="Times New Roman,serif" font-size="10.00">()</text>
</g>
<!-- Block1290 -->
<g id="node10" class="node"><title>Block1290</title>
<polygon fill="lightgray" stroke="black" stroke-width="4" points="430,-625 336,-625 336,-553 430,-553 430,-625"/>
<text text-anchor="middle" x="383" y="-585.9" font-family="Times New Roman,serif" font-size="12.00">Dropout</text>
</g>
<!-- Block1290&#45;&gt;ElementTimes1388 -->
<g id="edge9" class="edge"><title>Block1290&#45;&gt;ElementTimes1388</title>
<path fill="none" stroke="black" d="M335.92,-565.414C288.887,-542.851 218.63,-509.147 183.171,-492.136"/>
<polygon fill="black" stroke="black" points="184.273,-488.783 173.743,-487.613 181.245,-495.094 184.273,-488.783"/>
<text text-anchor="middle" x="314.5" y="-527" font-family="Times New Roman,serif" font-size="10.00">Block1290_Output_0</text>
<text text-anchor="middle" x="314.5" y="-516" font-family="Times New Roman,serif" font-size="10.00">[#,*](512,)</text>
</g>
<!-- NoOp1282 -->
<g id="node11" class="node"><title>NoOp1282</title>
<ellipse fill="lightgray" stroke="black" stroke-width="4" cx="380" cy="-704.5" rx="14.5" ry="14.5"/>
<text text-anchor="middle" x="380" y="-701.4" font-family="Times New Roman,serif" font-size="12.00">NoOp</text>
</g>
<!-- NoOp1282&#45;&gt;Block1290 -->
<g id="edge10" class="edge"><title>NoOp1282&#45;&gt;Block1290</title>
<path fill="none" stroke="black" d="M380.368,-689.583C380.723,-676.135 381.282,-655.017 381.793,-635.681"/>
<polygon fill="black" stroke="black" points="385.297,-635.573 382.062,-625.484 378.299,-635.388 385.297,-635.573"/>
<text text-anchor="middle" x="402.5" y="-657" font-family="Times New Roman,serif" font-size="10.00">basic_lstm</text>
<text text-anchor="middle" x="402.5" y="-646" font-family="Times New Roman,serif" font-size="10.00">[#,*](512,)</text>
</g>
<!-- Block1259&#45;&gt;NoOp1282 -->
<g id="edge11" class="edge"><title>Block1259&#45;&gt;NoOp1282</title>
<path fill="none" stroke="black" d="M524.762,-818.312C483.383,-815.044 424.735,-803.477 391,-766 382.161,-756.181 379.298,-741.718 378.697,-729.395"/>
<polygon fill="black" stroke="black" points="382.197,-729.273 378.659,-719.287 375.197,-729.3 382.197,-729.273"/>
<text text-anchor="middle" x="433.5" y="-758" font-family="Times New Roman,serif" font-size="10.00">Block1259_Output_0</text>
<text text-anchor="middle" x="433.5" y="-747" font-family="Times New Roman,serif" font-size="10.00">[#,*](512,)</text>
</g>
<!-- PastValue1194 -->
<g id="node16" class="node"><title>PastValue1194</title>
<polygon fill="lightgray" stroke="black" stroke-width="4" points="916,-726 854,-726 854,-683 916,-683 916,-726"/>
<text text-anchor="middle" x="885" y="-701.4" font-family="Times New Roman,serif" font-size="12.00">PastValue</text>
</g>
<!-- Block1259&#45;&gt;PastValue1194 -->
<g id="edge18" class="edge"><title>Block1259&#45;&gt;PastValue1194</title>
<path fill="none" stroke="black" d="M619.111,-799.968C638.996,-790.97 661.914,-779.28 681,-766 692.612,-757.921 691.495,-750.612 704,-744 748.132,-720.665 805.377,-711.473 843.555,-707.853"/>
<polygon fill="black" stroke="black" points="844.127,-711.317 853.791,-706.972 843.527,-704.342 844.127,-711.317"/>
<text text-anchor="middle" x="746.5" y="-758" font-family="Times New Roman,serif" font-size="10.00">Block1259_Output_0</text>
<text text-anchor="middle" x="746.5" y="-747" font-family="Times New Roman,serif" font-size="10.00">[#,*](512,)</text>
</g>
<!-- PastValue1197 -->
<g id="node17" class="node"><title>PastValue1197</title>
<polygon fill="lightgray" stroke="black" stroke-width="4" points="609,-726 547,-726 547,-683 609,-683 609,-726"/>
<text text-anchor="middle" x="578" y="-701.4" font-family="Times New Roman,serif" font-size="12.00">PastValue</text>
</g>
<!-- Block1259&#45;&gt;PastValue1197 -->
<g id="edge20" class="edge"><title>Block1259&#45;&gt;PastValue1197</title>
<path fill="none" stroke="black" d="M524.743,-800.91C496.765,-787.322 469.542,-767.129 485,-744 496.659,-726.555 517.839,-717.005 537.045,-711.782"/>
<polygon fill="black" stroke="black" points="537.943,-715.166 546.848,-709.426 536.307,-708.36 537.943,-715.166"/>
<text text-anchor="middle" x="527.5" y="-758" font-family="Times New Roman,serif" font-size="10.00">Block1259_Output_1</text>
<text text-anchor="middle" x="527.5" y="-747" font-family="Times New Roman,serif" font-size="10.00">[#,*](512,)</text>
</g>
<!-- Parameter673 -->
<g id="node13" class="node"><title>Parameter673</title>
<polygon fill="lightgray" stroke="black" points="518,-971.5 446,-971.5 446,-928.5 518,-928.5 518,-971.5"/>
<text text-anchor="middle" x="482" y="-953.4" font-family="Times New Roman,serif" font-size="12.00">b</text>
<text text-anchor="middle" x="482" y="-940.4" font-family="Times New Roman,serif" font-size="12.00">(2048,)</text>
</g>
<!-- Parameter673&#45;&gt;Block1259 -->
<g id="edge12" class="edge"><title>Parameter673&#45;&gt;Block1259</title>
<path fill="none" stroke="black" d="M496.46,-928.435C508.567,-911.216 526.259,-886.054 541.477,-864.41"/>
<polygon fill="black" stroke="black" points="544.5,-866.196 547.389,-856.003 538.774,-862.17 544.5,-866.196"/>
<text text-anchor="middle" x="545.5" y="-888" font-family="Times New Roman,serif" font-size="10.00">b</text>
<text text-anchor="middle" x="545.5" y="-877" font-family="Times New Roman,serif" font-size="10.00">(2048,)</text>
</g>
<!-- Parameter674 -->
<g id="node14" class="node"><title>Parameter674</title>
<polygon fill="lightgray" stroke="black" points="608,-971.5 536,-971.5 536,-928.5 608,-928.5 608,-971.5"/>
<text text-anchor="middle" x="572" y="-953.4" font-family="Times New Roman,serif" font-size="12.00">W</text>
<text text-anchor="middle" x="572" y="-940.4" font-family="Times New Roman,serif" font-size="12.00">(512, 2048)</text>
</g>
<!-- Parameter674&#45;&gt;Block1259 -->
<g id="edge13" class="edge"><title>Parameter674&#45;&gt;Block1259</title>
<path fill="none" stroke="black" d="M572,-928.435C572,-911.673 572,-887.385 572,-866.141"/>
<polygon fill="black" stroke="black" points="575.5,-866.003 572,-856.003 568.5,-866.003 575.5,-866.003"/>
<text text-anchor="middle" x="593.5" y="-888" font-family="Times New Roman,serif" font-size="10.00">W</text>
<text text-anchor="middle" x="593.5" y="-877" font-family="Times New Roman,serif" font-size="10.00">(512, 2048)</text>
</g>
<!-- Parameter675 -->
<g id="node15" class="node"><title>Parameter675</title>
<polygon fill="lightgray" stroke="black" points="698,-971.5 626,-971.5 626,-928.5 698,-928.5 698,-971.5"/>
<text text-anchor="middle" x="662" y="-953.4" font-family="Times New Roman,serif" font-size="12.00">H</text>
<text text-anchor="middle" x="662" y="-940.4" font-family="Times New Roman,serif" font-size="12.00">(512, 2048)</text>
</g>
<!-- Parameter675&#45;&gt;Block1259 -->
<g id="edge14" class="edge"><title>Parameter675&#45;&gt;Block1259</title>
<path fill="none" stroke="black" d="M651.582,-928.25C643.473,-912.79 631.524,-891.43 619,-874 616.578,-870.629 613.978,-867.226 611.289,-863.858"/>
<polygon fill="black" stroke="black" points="613.952,-861.586 604.893,-856.092 608.549,-866.037 613.952,-861.586"/>
<text text-anchor="middle" x="654.5" y="-888" font-family="Times New Roman,serif" font-size="10.00">H</text>
<text text-anchor="middle" x="654.5" y="-877" font-family="Times New Roman,serif" font-size="10.00">(512, 2048)</text>
</g>
<!-- PastValue1194&#45;&gt;Block1259 -->
<g id="edge15" class="edge"><title>PastValue1194&#45;&gt;Block1259</title>
<path fill="none" stroke="black" d="M882.743,-726.162C880.178,-739.491 874.7,-756.123 863,-766 828.474,-795.145 703.913,-809.265 629.41,-815.245"/>
<polygon fill="black" stroke="black" points="628.943,-811.77 619.244,-816.035 629.486,-818.749 628.943,-811.77"/>
<text text-anchor="middle" x="928" y="-758" font-family="Times New Roman,serif" font-size="10.00">PastValue1194_Output_0</text>
<text text-anchor="middle" x="928" y="-747" font-family="Times New Roman,serif" font-size="10.00">[#,*](512,)</text>
</g>
<!-- PastValue1197&#45;&gt;Block1259 -->
<g id="edge16" class="edge"><title>PastValue1197&#45;&gt;Block1259</title>
<path fill="none" stroke="black" d="M576.905,-726.217C576.203,-739.497 575.263,-757.268 574.395,-773.702"/>
<polygon fill="black" stroke="black" points="570.898,-773.539 573.866,-783.71 577.889,-773.909 570.898,-773.539"/>
<text text-anchor="middle" x="626" y="-758" font-family="Times New Roman,serif" font-size="10.00">PastValue1197_Output_0</text>
<text text-anchor="middle" x="626" y="-747" font-family="Times New Roman,serif" font-size="10.00">[#,*](512,)</text>
</g>
<!-- Constant764 -->
<g id="node18" class="node"><title>Constant764</title>
<polygon fill="white" stroke="white" points="926.5,-831 893.5,-831 893.5,-809 926.5,-809 926.5,-831"/>
<text text-anchor="middle" x="910" y="-816.9" font-family="Times New Roman,serif" font-size="12.00">[0.]</text>
</g>
<!-- Constant764&#45;&gt;PastValue1194 -->
<g id="edge19" class="edge"><title>Constant764&#45;&gt;PastValue1194</title>
<path fill="none" stroke="black" d="M926.937,-812.463C955.525,-800.435 1008.35,-773.327 988,-744 974.128,-724.005 948.531,-714.377 926.327,-709.749"/>
<polygon fill="black" stroke="black" points="926.881,-706.293 916.417,-707.955 925.634,-713.181 926.881,-706.293"/>
<text text-anchor="middle" x="1017.5" y="-758" font-family="Times New Roman,serif" font-size="10.00">Constant764</text>
<text text-anchor="middle" x="1017.5" y="-747" font-family="Times New Roman,serif" font-size="10.00">(1,)</text>
</g>
<!-- Constant764&#45;&gt;PastValue1197 -->
<g id="edge21" class="edge"><title>Constant764&#45;&gt;PastValue1197</title>
<path fill="none" stroke="black" d="M893.328,-812.65C872.145,-804.085 835.086,-787.407 808,-766 797.864,-757.989 800.215,-750.413 789,-744 735.882,-713.625 664.017,-706.382 619.36,-705.09"/>
<polygon fill="black" stroke="black" points="619.236,-701.587 609.167,-704.885 619.095,-708.585 619.236,-701.587"/>
<text text-anchor="middle" x="833.5" y="-758" font-family="Times New Roman,serif" font-size="10.00">Constant764</text>
<text text-anchor="middle" x="833.5" y="-747" font-family="Times New Roman,serif" font-size="10.00">(1,)</text>
</g>
<!-- NoOp614 -->
<g id="node19" class="node"><title>NoOp614</title>
<ellipse fill="lightgray" stroke="black" stroke-width="4" cx="349" cy="-1065.5" rx="14.5" ry="14.5"/>
<text text-anchor="middle" x="349" y="-1062.4" font-family="Times New Roman,serif" font-size="12.00">NoOp</text>
</g>
<!-- NoOp614&#45;&gt;Block622 -->
<g id="edge22" class="edge"><title>NoOp614&#45;&gt;Block622</title>
<path fill="none" stroke="black" d="M349,-1050.58C349,-1037.14 349,-1016.02 349,-996.681"/>
<polygon fill="black" stroke="black" points="352.5,-996.484 349,-986.484 345.5,-996.484 352.5,-996.484"/>
<text text-anchor="middle" x="370.5" y="-1018" font-family="Times New Roman,serif" font-size="10.00">basic_lstm</text>
<text text-anchor="middle" x="370.5" y="-1007" font-family="Times New Roman,serif" font-size="10.00">[#,*](512,)</text>
</g>
<!-- Block591 -->
<g id="node20" class="node"><title>Block591</title>
<polygon fill="lightgray" stroke="black" stroke-width="4" points="602,-1217 508,-1217 508,-1145 602,-1145 602,-1217"/>
<text text-anchor="middle" x="555" y="-1177.9" font-family="Times New Roman,serif" font-size="12.00">LSTM</text>
</g>
<!-- Block591&#45;&gt;NoOp614 -->
<g id="edge23" class="edge"><title>Block591&#45;&gt;NoOp614</title>
<path fill="none" stroke="black" d="M507.842,-1175.35C470.215,-1169.51 418.022,-1156.39 382,-1127 370.004,-1117.21 361.703,-1101.86 356.427,-1089.07"/>
<polygon fill="black" stroke="black" points="359.63,-1087.64 352.832,-1079.52 353.079,-1090.11 359.63,-1087.64"/>
<text text-anchor="middle" x="422" y="-1119" font-family="Times New Roman,serif" font-size="10.00">Block591_Output_0</text>
<text text-anchor="middle" x="422" y="-1108" font-family="Times New Roman,serif" font-size="10.00">[#,*](512,)</text>
</g>
<!-- PastValue526 -->
<g id="node24" class="node"><title>PastValue526</title>
<polygon fill="lightgray" stroke="black" stroke-width="4" points="878,-1087 816,-1087 816,-1044 878,-1044 878,-1087"/>
<text text-anchor="middle" x="847" y="-1062.4" font-family="Times New Roman,serif" font-size="12.00">PastValue</text>
</g>
<!-- Block591&#45;&gt;PastValue526 -->
<g id="edge30" class="edge"><title>Block591&#45;&gt;PastValue526</title>
<path fill="none" stroke="black" d="M602.404,-1157.63C618.991,-1148.97 637.365,-1138.39 653,-1127 664.434,-1118.67 663.534,-1111.69 676,-1105 716.882,-1083.07 769.715,-1073.61 805.767,-1069.54"/>
<polygon fill="black" stroke="black" points="806.34,-1073 815.925,-1068.48 805.618,-1066.04 806.34,-1073"/>
<text text-anchor="middle" x="716" y="-1119" font-family="Times New Roman,serif" font-size="10.00">Block591_Output_0</text>
<text text-anchor="middle" x="716" y="-1108" font-family="Times New Roman,serif" font-size="10.00">[#,*](512,)</text>
</g>
<!-- PastValue529 -->
<g id="node25" class="node"><title>PastValue529</title>
<polygon fill="lightgray" stroke="black" stroke-width="4" points="586,-1087 524,-1087 524,-1044 586,-1044 586,-1087"/>
<text text-anchor="middle" x="555" y="-1062.4" font-family="Times New Roman,serif" font-size="12.00">PastValue</text>
</g>
<!-- Block591&#45;&gt;PastValue529 -->
<g id="edge32" class="edge"><title>Block591&#45;&gt;PastValue529</title>
<path fill="none" stroke="black" d="M507.756,-1160.91C481.426,-1147.29 456.588,-1127.46 471,-1105 480.614,-1090.02 497.677,-1080.79 513.924,-1075.14"/>
<polygon fill="black" stroke="black" points="515.341,-1078.37 523.861,-1072.07 513.273,-1071.68 515.341,-1078.37"/>
<text text-anchor="middle" x="511" y="-1119" font-family="Times New Roman,serif" font-size="10.00">Block591_Output_1</text>
<text text-anchor="middle" x="511" y="-1108" font-family="Times New Roman,serif" font-size="10.00">[#,*](512,)</text>
</g>
<!-- Parameter5 -->
<g id="node21" class="node"><title>Parameter5</title>
<polygon fill="lightgray" stroke="black" points="456,-1332.5 384,-1332.5 384,-1289.5 456,-1289.5 456,-1332.5"/>
<text text-anchor="middle" x="420" y="-1314.4" font-family="Times New Roman,serif" font-size="12.00">b</text>
<text text-anchor="middle" x="420" y="-1301.4" font-family="Times New Roman,serif" font-size="12.00">(2048,)</text>
</g>
<!-- Parameter5&#45;&gt;Block591 -->
<g id="edge24" class="edge"><title>Parameter5&#45;&gt;Block591</title>
<path fill="none" stroke="black" d="M441.427,-1289.21C457.046,-1274.1 478.753,-1253.2 498,-1235 501.71,-1231.49 505.566,-1227.87 509.444,-1224.23"/>
<polygon fill="black" stroke="black" points="511.984,-1226.65 516.898,-1217.26 507.203,-1221.54 511.984,-1226.65"/>
<text text-anchor="middle" x="511.5" y="-1249" font-family="Times New Roman,serif" font-size="10.00">b</text>
<text text-anchor="middle" x="511.5" y="-1238" font-family="Times New Roman,serif" font-size="10.00">(2048,)</text>
</g>
<!-- Parameter6 -->
<g id="node22" class="node"><title>Parameter6</title>
<polygon fill="lightgray" stroke="black" points="546,-1332.5 474,-1332.5 474,-1289.5 546,-1289.5 546,-1332.5"/>
<text text-anchor="middle" x="510" y="-1314.4" font-family="Times New Roman,serif" font-size="12.00">W</text>
<text text-anchor="middle" x="510" y="-1301.4" font-family="Times New Roman,serif" font-size="12.00">(17, 2048)</text>
</g>
<!-- Parameter6&#45;&gt;Block591 -->
<g id="edge25" class="edge"><title>Parameter6&#45;&gt;Block591</title>
<path fill="none" stroke="black" d="M517.23,-1289.43C523.176,-1272.52 531.817,-1247.94 539.334,-1226.56"/>
<polygon fill="black" stroke="black" points="542.679,-1227.6 542.694,-1217 536.076,-1225.28 542.679,-1227.6"/>
<text text-anchor="middle" x="554" y="-1249" font-family="Times New Roman,serif" font-size="10.00">W</text>
<text text-anchor="middle" x="554" y="-1238" font-family="Times New Roman,serif" font-size="10.00">(17, 2048)</text>
</g>
<!-- Parameter7 -->
<g id="node23" class="node"><title>Parameter7</title>
<polygon fill="lightgray" stroke="black" points="636,-1332.5 564,-1332.5 564,-1289.5 636,-1289.5 636,-1332.5"/>
<text text-anchor="middle" x="600" y="-1314.4" font-family="Times New Roman,serif" font-size="12.00">H</text>
<text text-anchor="middle" x="600" y="-1301.4" font-family="Times New Roman,serif" font-size="12.00">(512, 2048)</text>
</g>
<!-- Parameter7&#45;&gt;Block591 -->
<g id="edge26" class="edge"><title>Parameter7&#45;&gt;Block591</title>
<path fill="none" stroke="black" d="M594.276,-1289.45C589.91,-1274.28 583.55,-1253.2 577,-1235 576.019,-1232.28 574.978,-1229.49 573.902,-1226.68"/>
<polygon fill="black" stroke="black" points="577.074,-1225.19 570.15,-1217.17 570.562,-1227.75 577.074,-1225.19"/>
<text text-anchor="middle" x="604.5" y="-1249" font-family="Times New Roman,serif" font-size="10.00">H</text>
<text text-anchor="middle" x="604.5" y="-1238" font-family="Times New Roman,serif" font-size="10.00">(512, 2048)</text>
</g>
<!-- PastValue526&#45;&gt;Block591 -->
<g id="edge27" class="edge"><title>PastValue526&#45;&gt;Block591</title>
<path fill="none" stroke="black" d="M844.699,-1087.11C842.115,-1100.42 836.632,-1117.04 825,-1127 793.717,-1153.78 682.119,-1168.52 612.567,-1175.3"/>
<polygon fill="black" stroke="black" points="611.83,-1171.86 602.205,-1176.28 612.49,-1178.82 611.83,-1171.86"/>
<text text-anchor="middle" x="887.5" y="-1119" font-family="Times New Roman,serif" font-size="10.00">PastValue526_Output_0</text>
<text text-anchor="middle" x="887.5" y="-1108" font-family="Times New Roman,serif" font-size="10.00">[#,*](512,)</text>
</g>
<!-- PastValue529&#45;&gt;Block591 -->
<g id="edge28" class="edge"><title>PastValue529&#45;&gt;Block591</title>
<path fill="none" stroke="black" d="M555,-1087.22C555,-1100.5 555,-1118.27 555,-1134.7"/>
<polygon fill="black" stroke="black" points="551.5,-1134.71 555,-1144.71 558.5,-1134.71 551.5,-1134.71"/>
<text text-anchor="middle" x="603.5" y="-1119" font-family="Times New Roman,serif" font-size="10.00">PastValue529_Output_0</text>
<text text-anchor="middle" x="603.5" y="-1108" font-family="Times New Roman,serif" font-size="10.00">[#,*](512,)</text>
</g>
<!-- Input3 -->
<g id="node26" class="node"><title>Input3</title>
<polygon fill="lightgray" stroke="black" stroke-width="4" points="708.633,-1275.1 711.701,-1275.3 714.737,-1275.59 717.729,-1275.98 720.664,-1276.47 723.532,-1277.05 726.32,-1277.73 729.018,-1278.5 731.615,-1279.35 734.103,-1280.29 736.471,-1281.32 738.713,-1282.43 740.819,-1283.62 742.784,-1284.88 744.602,-1286.21 746.268,-1287.61 747.777,-1289.08 749.126,-1290.6 750.314,-1292.18 751.338,-1293.82 752.198,-1295.5 752.895,-1297.22 753.428,-1298.98 753.799,-1300.77 754.012,-1302.59 754.07,-1304.44 753.975,-1306.3 753.733,-1308.17 753.348,-1310.06 752.826,-1311.94 752.172,-1313.83 751.392,-1315.7 750.493,-1317.56 749.481,-1319.41 748.364,-1321.23 747.147,-1323.02 745.837,-1324.78 744.442,-1326.5 742.968,-1328.18 741.421,-1329.82 739.809,-1331.4 738.136,-1332.92 736.41,-1334.39 734.635,-1335.79 732.817,-1337.12 730.961,-1338.38 729.072,-1339.57 727.154,-1340.68 725.21,-1341.71 723.245,-1342.65 721.261,-1343.5 719.262,-1344.27 717.251,-1344.95 715.228,-1345.53 713.197,-1346.02 711.16,-1346.41 709.118,-1346.7 707.072,-1346.9 705.024,-1347 702.976,-1347 700.928,-1346.9 698.882,-1346.7 696.84,-1346.41 694.803,-1346.02 692.772,-1345.53 690.749,-1344.95 688.738,-1344.27 686.739,-1343.5 684.755,-1342.65 682.79,-1341.71 680.846,-1340.68 678.928,-1339.57 677.039,-1338.38 675.183,-1337.12 673.365,-1335.79 671.59,-1334.39 669.864,-1332.92 668.191,-1331.4 666.579,-1329.82 665.032,-1328.18 663.558,-1326.5 662.163,-1324.78 660.853,-1323.02 659.636,-1321.23 658.519,-1319.41 657.507,-1317.56 656.608,-1315.7 655.828,-1313.83 655.174,-1311.94 654.652,-1310.06 654.267,-1308.17 654.025,-1306.3 653.93,-1304.44 653.988,-1302.59 654.201,-1300.77 654.572,-1298.98 655.105,-1297.22 655.802,-1295.5 656.662,-1293.82 657.686,-1292.18 658.874,-1290.6 660.223,-1289.08 661.732,-1287.61 663.398,-1286.21 665.216,-1284.88 667.181,-1283.62 669.287,-1282.43 671.529,-1281.32 673.897,-1280.29 676.385,-1279.35 678.982,-1278.5 681.68,-1277.73 684.468,-1277.05 687.336,-1276.47 690.271,-1275.98 693.263,-1275.59 696.299,-1275.3 699.367,-1275.1 702.453,-1275 705.547,-1275 708.633,-1275.1"/>
<text text-anchor="middle" x="704" y="-1320.9" font-family="Times New Roman,serif" font-size="12.00">Input</text>
<text text-anchor="middle" x="704" y="-1307.9" font-family="Times New Roman,serif" font-size="12.00">inputs</text>
<text text-anchor="middle" x="704" y="-1294.9" font-family="Times New Roman,serif" font-size="12.00">[#,*](17,)</text>
</g>
<!-- Input3&#45;&gt;Block591 -->
<g id="edge29" class="edge"><title>Input3&#45;&gt;Block591</title>
<path fill="none" stroke="black" d="M675.98,-1279.19C662.601,-1265.13 646.039,-1248.61 630,-1235 623.931,-1229.85 617.377,-1224.69 610.758,-1219.73"/>
<polygon fill="black" stroke="black" points="612.499,-1216.66 602.37,-1213.56 608.35,-1222.3 612.499,-1216.66"/>
<text text-anchor="middle" x="671.5" y="-1249" font-family="Times New Roman,serif" font-size="10.00">inputs</text>
<text text-anchor="middle" x="671.5" y="-1238" font-family="Times New Roman,serif" font-size="10.00">[#,*](17,)</text>
</g>
<!-- Constant96 -->
<g id="node27" class="node"><title>Constant96</title>
<polygon fill="white" stroke="white" points="888.5,-1192 855.5,-1192 855.5,-1170 888.5,-1170 888.5,-1192"/>
<text text-anchor="middle" x="872" y="-1177.9" font-family="Times New Roman,serif" font-size="12.00">[0.]</text>
</g>
<!-- Constant96&#45;&gt;PastValue526 -->
<g id="edge31" class="edge"><title>Constant96&#45;&gt;PastValue526</title>
<path fill="none" stroke="black" d="M888.788,-1172.91C915.851,-1160.44 964.238,-1133.23 945,-1105 932.26,-1086.31 908.937,-1076.69 888.24,-1071.74"/>
<polygon fill="black" stroke="black" points="888.853,-1068.3 878.348,-1069.67 887.417,-1075.15 888.853,-1068.3"/>
<text text-anchor="middle" x="972" y="-1119" font-family="Times New Roman,serif" font-size="10.00">Constant96</text>
<text text-anchor="middle" x="972" y="-1108" font-family="Times New Roman,serif" font-size="10.00">(1,)</text>
</g>
<!-- Constant96&#45;&gt;PastValue529 -->
<g id="edge33" class="edge"><title>Constant96&#45;&gt;PastValue529</title>
<path fill="none" stroke="black" d="M855.464,-1173.17C835.234,-1164.34 800.532,-1147.61 775,-1127 764.948,-1118.88 767.187,-1111.46 756,-1105 706.119,-1076.18 638.798,-1068.43 596.135,-1066.61"/>
<polygon fill="black" stroke="black" points="596.22,-1063.11 586.109,-1066.27 595.986,-1070.11 596.22,-1063.11"/>
<text text-anchor="middle" x="798" y="-1119" font-family="Times New Roman,serif" font-size="10.00">Constant96</text>
<text text-anchor="middle" x="798" y="-1108" font-family="Times New Roman,serif" font-size="10.00">(1,)</text>
</g>
</g>
</svg>
