<?xml version="1.0" encoding="UTF-8" standalone="no"?>
<!DOCTYPE svg PUBLIC "-//W3C//DTD SVG 1.1//EN"
 "http://www.w3.org/Graphics/SVG/1.1/DTD/svg11.dtd">
<!-- Generated by graphviz version 2.38.0 (20140413.2041)
 -->
<!-- Title: network_graph Pages: 1 -->
<svg width="1429pt" height="921pt"
 viewBox="0.00 0.00 1429.00 921.00" xmlns="http://www.w3.org/2000/svg" xmlns:xlink="http://www.w3.org/1999/xlink">
<g id="graph0" class="graph" transform="scale(1 1) rotate(0) translate(4 917)">
<title>network_graph</title>
<polygon fill="white" stroke="none" points="-4,4 -4,-917 1425,-917 1425,4 -4,4"/>
<!-- Block1963 -->
<g id="node1" class="node"><title>Block1963</title>
<polygon fill="lightgray" stroke="black" stroke-width="4" points="173,-191 79,-191 79,-119 173,-119 173,-191"/>
<text text-anchor="middle" x="126" y="-151.9" font-family="Times,serif" font-size="12.00">Dense</text>
</g>
<!-- Block1963_Output_0 -->
<g id="node5" class="node"><title>Block1963_Output_0</title>
<polygon fill="lightgray" stroke="black" stroke-width="4" points="130.633,-0.0986735 133.701,-0.29575 136.737,-0.590689 139.729,-0.982683 142.664,-1.47066 145.532,-2.05327 148.32,-2.72894 151.018,-3.49579 153.615,-4.35174 156.103,-5.29443 158.471,-6.32129 160.713,-7.42949 162.819,-8.616 164.784,-9.87757 166.602,-11.2107 168.268,-12.6119 169.777,-14.0771 171.126,-15.6024 172.314,-17.1836 173.338,-18.8164 174.198,-20.4963 174.895,-22.2187 175.428,-23.9788 175.799,-25.7719 176.012,-27.5931 176.07,-29.4373 175.975,-31.2994 175.733,-33.1745 175.348,-35.0573 174.826,-36.9427 174.172,-38.8255 173.392,-40.7006 172.493,-42.5627 171.481,-44.4069 170.364,-46.2281 169.147,-48.0212 167.837,-49.7813 166.442,-51.5037 164.968,-53.1836 163.421,-54.8164 161.809,-56.3976 160.136,-57.9229 158.41,-59.3881 156.635,-60.7893 154.817,-62.1224 152.961,-63.384 151.072,-64.5705 149.154,-65.6787 147.21,-66.7056 145.245,-67.6483 143.261,-68.5042 141.262,-69.2711 139.251,-69.9467 137.228,-70.5293 135.197,-71.0173 133.16,-71.4093 131.118,-71.7042 129.072,-71.9013 127.024,-72 124.976,-72 122.928,-71.9013 120.882,-71.7042 118.84,-71.4093 116.803,-71.0173 114.772,-70.5293 112.749,-69.9467 110.738,-69.2711 108.739,-68.5042 106.755,-67.6483 104.79,-66.7056 102.846,-65.6787 100.928,-64.5705 99.0386,-63.384 97.1827,-62.1224 95.3649,-60.7893 93.5901,-59.3881 91.8637,-57.9229 90.1912,-56.3976 88.5786,-54.8164 87.0321,-53.1836 85.5579,-51.5037 84.1628,-49.7813 82.8533,-48.0212 81.6363,-46.2281 80.5186,-44.4069 79.5069,-42.5627 78.608,-40.7006 77.8284,-38.8255 77.1743,-36.9427 76.652,-35.0573 76.267,-33.1745 76.0248,-31.2994 75.9302,-29.4373 75.9875,-27.5931 76.2005,-25.7719 76.5723,-23.9788 77.1055,-22.2187 77.8016,-20.4963 78.6616,-18.8164 79.6859,-17.1836 80.8735,-15.6024 82.2232,-14.0771 83.7324,-12.6119 85.398,-11.2107 87.2158,-9.87757 89.1809,-8.616 91.2873,-7.42949 93.5285,-6.32129 95.897,-5.29443 98.3845,-4.35174 100.982,-3.49579 103.68,-2.72894 106.468,-2.05327 109.336,-1.47066 112.271,-0.982683 115.263,-0.590689 118.299,-0.29575 121.367,-0.0986735 124.453,-3.62377e-13 127.547,-3.69482e-13 130.633,-0.0986735"/>
<text text-anchor="middle" x="126" y="-25.9" font-family="Times,serif" font-size="12.00">[#](69,)</text>
</g>
<!-- Block1963&#45;&gt;Block1963_Output_0 -->
<g id="edge4" class="edge"><title>Block1963&#45;&gt;Block1963_Output_0</title>
<path fill="none" stroke="black" d="M126,-118.896C126,-107.327 126,-94.2965 126,-82.0893"/>
<polygon fill="black" stroke="black" points="129.5,-82.079 126,-72.0791 122.5,-82.0791 129.5,-82.079"/>
<text text-anchor="middle" x="141.5" y="-93" font-family="Times,serif" font-size="10.00">[#](69,)</text>
</g>
<!-- Parameter1930 -->
<g id="node2" class="node"><title>Parameter1930</title>
<polygon fill="lightgray" stroke="black" points="72,-306.5 0,-306.5 0,-263.5 72,-263.5 72,-306.5"/>
<text text-anchor="middle" x="36" y="-288.4" font-family="Times,serif" font-size="12.00">W</text>
<text text-anchor="middle" x="36" y="-275.4" font-family="Times,serif" font-size="12.00">(512, 69)</text>
</g>
<!-- Parameter1930&#45;&gt;Block1963 -->
<g id="edge1" class="edge"><title>Parameter1930&#45;&gt;Block1963</title>
<path fill="none" stroke="black" d="M48.8775,-263.332C58.5176,-248.101 72.193,-226.994 85,-209 87.2872,-205.786 89.6878,-202.494 92.1316,-199.201"/>
<polygon fill="black" stroke="black" points="95.0435,-201.152 98.2553,-191.056 89.4484,-196.946 95.0435,-201.152"/>
<text text-anchor="middle" x="103.5" y="-223" font-family="Times,serif" font-size="10.00">W</text>
<text text-anchor="middle" x="103.5" y="-212" font-family="Times,serif" font-size="10.00">(512, 69)</text>
</g>
<!-- Parameter1931 -->
<g id="node3" class="node"><title>Parameter1931</title>
<polygon fill="lightgray" stroke="black" points="162,-306.5 90,-306.5 90,-263.5 162,-263.5 162,-306.5"/>
<text text-anchor="middle" x="126" y="-288.4" font-family="Times,serif" font-size="12.00">b</text>
<text text-anchor="middle" x="126" y="-275.4" font-family="Times,serif" font-size="12.00">(69,)</text>
</g>
<!-- Parameter1931&#45;&gt;Block1963 -->
<g id="edge2" class="edge"><title>Parameter1931&#45;&gt;Block1963</title>
<path fill="none" stroke="black" d="M126,-263.435C126,-246.673 126,-222.385 126,-201.141"/>
<polygon fill="black" stroke="black" points="129.5,-201.003 126,-191.003 122.5,-201.003 129.5,-201.003"/>
<text text-anchor="middle" x="135.5" y="-223" font-family="Times,serif" font-size="10.00">b</text>
<text text-anchor="middle" x="135.5" y="-212" font-family="Times,serif" font-size="10.00">(69,)</text>
</g>
<!-- Block1921 -->
<g id="node4" class="node"><title>Block1921</title>
<polygon fill="lightgray" stroke="black" stroke-width="4" points="274,-321 180,-321 180,-249 274,-249 274,-321"/>
<text text-anchor="middle" x="227" y="-281.9" font-family="Times,serif" font-size="12.00">Sequence::Slice</text>
</g>
<!-- Block1921&#45;&gt;Block1963 -->
<g id="edge3" class="edge"><title>Block1921&#45;&gt;Block1963</title>
<path fill="none" stroke="black" d="M199.134,-248.685C187.101,-233.435 172.907,-215.446 160.24,-199.393"/>
<polygon fill="black" stroke="black" points="162.717,-196.882 153.775,-191.2 157.222,-201.219 162.717,-196.882"/>
<text text-anchor="middle" x="228.5" y="-223" font-family="Times,serif" font-size="10.00">Block1921_Output_0</text>
<text text-anchor="middle" x="228.5" y="-212" font-family="Times,serif" font-size="10.00">[#](512,)</text>
</g>
<!-- NoOp1792 -->
<g id="node6" class="node"><title>NoOp1792</title>
<ellipse fill="lightgray" stroke="black" stroke-width="4" cx="227" cy="-400.5" rx="14.5" ry="14.5"/>
<text text-anchor="middle" x="227" y="-397.4" font-family="Times,serif" font-size="12.00">NoOp</text>
</g>
<!-- NoOp1792&#45;&gt;Block1921 -->
<g id="edge5" class="edge"><title>NoOp1792&#45;&gt;Block1921</title>
<path fill="none" stroke="black" d="M227,-385.583C227,-372.135 227,-351.017 227,-331.681"/>
<polygon fill="black" stroke="black" points="230.5,-331.484 227,-321.484 223.5,-331.484 230.5,-331.484"/>
<text text-anchor="middle" x="249" y="-353" font-family="Times,serif" font-size="10.00">basic_lstm</text>
<text text-anchor="middle" x="249" y="-342" font-family="Times,serif" font-size="10.00">[#,*](512,)</text>
</g>
<!-- Block1763 -->
<g id="node7" class="node"><title>Block1763</title>
<polygon fill="lightgray" stroke="black" stroke-width="4" points="502,-552 408,-552 408,-480 502,-480 502,-552"/>
<text text-anchor="middle" x="455" y="-512.9" font-family="Times,serif" font-size="12.00">LSTM</text>
</g>
<!-- Block1763&#45;&gt;NoOp1792 -->
<g id="edge6" class="edge"><title>Block1763&#45;&gt;NoOp1792</title>
<path fill="none" stroke="black" d="M407.747,-512.265C365.381,-507.623 303.524,-495.19 261,-462 248.709,-452.407 240.156,-437.053 234.703,-424.214"/>
<polygon fill="black" stroke="black" points="237.86,-422.673 230.982,-414.614 231.333,-425.203 237.86,-422.673"/>
<text text-anchor="middle" x="306.5" y="-454" font-family="Times,serif" font-size="10.00">Block1763_Output_0</text>
<text text-anchor="middle" x="306.5" y="-443" font-family="Times,serif" font-size="10.00">[#,*](512,)</text>
</g>
<!-- PastValue1562 -->
<g id="node14" class="node"><title>PastValue1562</title>
<polygon fill="lightgray" stroke="black" stroke-width="4" points="749.5,-422 684.5,-422 684.5,-379 749.5,-379 749.5,-422"/>
<text text-anchor="middle" x="717" y="-397.4" font-family="Times,serif" font-size="12.00">PastValue</text>
</g>
<!-- Block1763&#45;&gt;PastValue1562 -->
<g id="edge16" class="edge"><title>Block1763&#45;&gt;PastValue1562</title>
<path fill="none" stroke="black" d="M502.129,-509.99C563.621,-502.565 666.722,-486.786 695,-462 703.816,-454.273 709.101,-442.721 712.268,-431.776"/>
<polygon fill="black" stroke="black" points="715.678,-432.564 714.622,-422.022 708.874,-430.922 715.678,-432.564"/>
<text text-anchor="middle" x="755.5" y="-454" font-family="Times,serif" font-size="10.00">Block1763_Output_0</text>
<text text-anchor="middle" x="755.5" y="-443" font-family="Times,serif" font-size="10.00">[#,*](512,)</text>
</g>
<!-- PastValue1565 -->
<g id="node15" class="node"><title>PastValue1565</title>
<polygon fill="lightgray" stroke="black" stroke-width="4" points="487.5,-422 422.5,-422 422.5,-379 487.5,-379 487.5,-422"/>
<text text-anchor="middle" x="455" y="-397.4" font-family="Times,serif" font-size="12.00">PastValue</text>
</g>
<!-- Block1763&#45;&gt;PastValue1565 -->
<g id="edge18" class="edge"><title>Block1763&#45;&gt;PastValue1565</title>
<path fill="none" stroke="black" d="M407.958,-499.451C376.168,-486.26 342.858,-465.444 360,-440 371.77,-422.53 392.965,-412.985 412.354,-407.77"/>
<polygon fill="black" stroke="black" points="413.346,-411.132 422.269,-405.419 411.731,-404.321 413.346,-411.132"/>
<text text-anchor="middle" x="405.5" y="-454" font-family="Times,serif" font-size="10.00">Block1763_Output_1</text>
<text text-anchor="middle" x="405.5" y="-443" font-family="Times,serif" font-size="10.00">[#,*](512,)</text>
</g>
<!-- Parameter584 -->
<g id="node8" class="node"><title>Parameter584</title>
<polygon fill="lightgray" stroke="black" points="221,-653 149,-653 149,-610 221,-610 221,-653"/>
<text text-anchor="middle" x="185" y="-634.9" font-family="Times,serif" font-size="12.00">b</text>
<text text-anchor="middle" x="185" y="-621.9" font-family="Times,serif" font-size="12.00">(2048,)</text>
</g>
<!-- Parameter584&#45;&gt;Block1763 -->
<g id="edge7" class="edge"><title>Parameter584&#45;&gt;Block1763</title>
<path fill="none" stroke="black" d="M212.276,-609.768C230.198,-596.917 254.581,-580.85 278,-570 316.411,-552.205 362.258,-538.672 397.667,-529.736"/>
<polygon fill="black" stroke="black" points="398.962,-533.021 407.83,-527.224 397.282,-526.226 398.962,-533.021"/>
<text text-anchor="middle" x="293" y="-584" font-family="Times,serif" font-size="10.00">b</text>
<text text-anchor="middle" x="293" y="-573" font-family="Times,serif" font-size="10.00">(2048,)</text>
</g>
<!-- Parameter585 -->
<g id="node9" class="node"><title>Parameter585</title>
<polygon fill="lightgray" stroke="black" points="311,-653 239,-653 239,-610 311,-610 311,-653"/>
<text text-anchor="middle" x="275" y="-634.9" font-family="Times,serif" font-size="12.00">W</text>
<text text-anchor="middle" x="275" y="-621.9" font-family="Times,serif" font-size="12.00">(512, 2048)</text>
</g>
<!-- Parameter585&#45;&gt;Block1763 -->
<g id="edge8" class="edge"><title>Parameter585&#45;&gt;Block1763</title>
<path fill="none" stroke="black" d="M292.733,-609.817C304.376,-597.145 320.465,-581.255 337,-570 355.831,-557.182 378.266,-546.2 398.491,-537.613"/>
<polygon fill="black" stroke="black" points="400.009,-540.773 407.911,-533.715 397.333,-534.304 400.009,-540.773"/>
<text text-anchor="middle" x="361" y="-584" font-family="Times,serif" font-size="10.00">W</text>
<text text-anchor="middle" x="361" y="-573" font-family="Times,serif" font-size="10.00">(512, 2048)</text>
</g>
<!-- Parameter586 -->
<g id="node10" class="node"><title>Parameter586</title>
<polygon fill="lightgray" stroke="black" points="401,-653 329,-653 329,-610 401,-610 401,-653"/>
<text text-anchor="middle" x="365" y="-634.9" font-family="Times,serif" font-size="12.00">H</text>
<text text-anchor="middle" x="365" y="-621.9" font-family="Times,serif" font-size="12.00">(512, 2048)</text>
</g>
<!-- Parameter586&#45;&gt;Block1763 -->
<g id="edge9" class="edge"><title>Parameter586&#45;&gt;Block1763</title>
<path fill="none" stroke="black" d="M376.457,-609.876C383.513,-597.822 393.085,-582.558 403,-570 405.651,-566.642 408.489,-563.265 411.42,-559.928"/>
<polygon fill="black" stroke="black" points="414.26,-562.007 418.386,-552.248 409.075,-557.304 414.26,-562.007"/>
<text text-anchor="middle" x="427" y="-584" font-family="Times,serif" font-size="10.00">H</text>
<text text-anchor="middle" x="427" y="-573" font-family="Times,serif" font-size="10.00">(512, 2048)</text>
</g>
<!-- Parameter589 -->
<g id="node11" class="node"><title>Parameter589</title>
<polygon fill="lightgray" stroke="black" points="491,-653 419,-653 419,-610 491,-610 491,-653"/>
<text text-anchor="middle" x="455" y="-634.9" font-family="Times,serif" font-size="12.00">Co</text>
<text text-anchor="middle" x="455" y="-621.9" font-family="Times,serif" font-size="12.00">(512,)</text>
</g>
<!-- Parameter589&#45;&gt;Block1763 -->
<g id="edge10" class="edge"><title>Parameter589&#45;&gt;Block1763</title>
<path fill="none" stroke="black" d="M455,-609.946C455,-596.615 455,-578.71 455,-562.174"/>
<polygon fill="black" stroke="black" points="458.5,-562.108 455,-552.108 451.5,-562.108 458.5,-562.108"/>
<text text-anchor="middle" x="467.5" y="-584" font-family="Times,serif" font-size="10.00">Co</text>
<text text-anchor="middle" x="467.5" y="-573" font-family="Times,serif" font-size="10.00">(512,)</text>
</g>
<!-- Parameter588 -->
<g id="node12" class="node"><title>Parameter588</title>
<polygon fill="lightgray" stroke="black" points="581,-653 509,-653 509,-610 581,-610 581,-653"/>
<text text-anchor="middle" x="545" y="-634.9" font-family="Times,serif" font-size="12.00">Cf</text>
<text text-anchor="middle" x="545" y="-621.9" font-family="Times,serif" font-size="12.00">(512,)</text>
</g>
<!-- Parameter588&#45;&gt;Block1763 -->
<g id="edge11" class="edge"><title>Parameter588&#45;&gt;Block1763</title>
<path fill="none" stroke="black" d="M528.702,-609.946C517.732,-596.112 502.856,-577.352 489.341,-560.308"/>
<polygon fill="black" stroke="black" points="491.795,-557.769 482.839,-552.108 486.31,-562.118 491.795,-557.769"/>
<text text-anchor="middle" x="526.5" y="-584" font-family="Times,serif" font-size="10.00">Cf</text>
<text text-anchor="middle" x="526.5" y="-573" font-family="Times,serif" font-size="10.00">(512,)</text>
</g>
<!-- Parameter587 -->
<g id="node13" class="node"><title>Parameter587</title>
<polygon fill="lightgray" stroke="black" points="671,-653 599,-653 599,-610 671,-610 671,-653"/>
<text text-anchor="middle" x="635" y="-634.9" font-family="Times,serif" font-size="12.00">Ci</text>
<text text-anchor="middle" x="635" y="-621.9" font-family="Times,serif" font-size="12.00">(512,)</text>
</g>
<!-- Parameter587&#45;&gt;Block1763 -->
<g id="edge12" class="edge"><title>Parameter587&#45;&gt;Block1763</title>
<path fill="none" stroke="black" d="M604.111,-609.749C586.347,-597.926 563.545,-582.935 543,-570 532.742,-563.541 521.727,-556.776 511.082,-550.323"/>
<polygon fill="black" stroke="black" points="512.62,-547.163 502.251,-544.989 509.001,-553.155 512.62,-547.163"/>
<text text-anchor="middle" x="589.5" y="-584" font-family="Times,serif" font-size="10.00">Ci</text>
<text text-anchor="middle" x="589.5" y="-573" font-family="Times,serif" font-size="10.00">(512,)</text>
</g>
<!-- PastValue1562&#45;&gt;Block1763 -->
<g id="edge13" class="edge"><title>PastValue1562&#45;&gt;Block1763</title>
<path fill="none" stroke="black" d="M684.302,-406.725C656.925,-412.113 617.543,-422.287 587,-440 574.763,-447.097 575.612,-453.921 564,-462 547.896,-473.205 529.064,-483.278 511.628,-491.557"/>
<polygon fill="black" stroke="black" points="509.712,-488.588 502.111,-495.968 512.655,-494.939 509.712,-488.588"/>
<text text-anchor="middle" x="641" y="-454" font-family="Times,serif" font-size="10.00">PastValue1562_Output_0</text>
<text text-anchor="middle" x="641" y="-443" font-family="Times,serif" font-size="10.00">[#,*](512,)</text>
</g>
<!-- PastValue1565&#45;&gt;Block1763 -->
<g id="edge14" class="edge"><title>PastValue1565&#45;&gt;Block1763</title>
<path fill="none" stroke="black" d="M455,-422.217C455,-435.497 455,-453.268 455,-469.702"/>
<polygon fill="black" stroke="black" points="451.5,-469.71 455,-479.71 458.5,-469.71 451.5,-469.71"/>
<text text-anchor="middle" x="509" y="-454" font-family="Times,serif" font-size="10.00">PastValue1565_Output_0</text>
<text text-anchor="middle" x="509" y="-443" font-family="Times,serif" font-size="10.00">[#,*](512,)</text>
</g>
<!-- NoOp1682 -->
<g id="node16" class="node"><title>NoOp1682</title>
<ellipse fill="lightgray" stroke="black" stroke-width="4" cx="704" cy="-631.5" rx="14.5" ry="14.5"/>
<text text-anchor="middle" x="704" y="-628.4" font-family="Times,serif" font-size="12.00">NoOp</text>
</g>
<!-- NoOp1682&#45;&gt;Block1763 -->
<g id="edge15" class="edge"><title>NoOp1682&#45;&gt;Block1763</title>
<path fill="none" stroke="black" d="M693.635,-620.81C689.542,-617.211 684.7,-613.224 680,-610 627.772,-574.174 559.599,-548.426 512.041,-533.232"/>
<polygon fill="black" stroke="black" points="512.807,-529.804 502.218,-530.15 510.712,-536.483 512.807,-529.804"/>
<text text-anchor="middle" x="669" y="-584" font-family="Times,serif" font-size="10.00">basic_lstm</text>
<text text-anchor="middle" x="669" y="-573" font-family="Times,serif" font-size="10.00">[#,*](512,)</text>
</g>
<!-- Constant702 -->
<g id="node17" class="node"><title>Constant702</title>
<polygon fill="white" stroke="white" points="885.5,-527 852.5,-527 852.5,-505 885.5,-505 885.5,-527"/>
<text text-anchor="middle" x="869" y="-512.9" font-family="Times,serif" font-size="12.00">[0.]</text>
</g>
<!-- Constant702&#45;&gt;PastValue1562 -->
<g id="edge17" class="edge"><title>Constant702&#45;&gt;PastValue1562</title>
<path fill="none" stroke="black" d="M875.865,-504.831C885.483,-489.193 900.183,-459.055 885,-440 869.604,-420.677 804.165,-410.263 759.651,-405.305"/>
<polygon fill="black" stroke="black" points="759.977,-401.82 749.663,-404.244 759.237,-408.78 759.977,-401.82"/>
<text text-anchor="middle" x="917.5" y="-454" font-family="Times,serif" font-size="10.00">Constant702</text>
<text text-anchor="middle" x="917.5" y="-443" font-family="Times,serif" font-size="10.00">(1,)</text>
</g>
<!-- Constant702&#45;&gt;PastValue1565 -->
<g id="edge19" class="edge"><title>Constant702&#45;&gt;PastValue1565</title>
<path fill="none" stroke="black" d="M861.087,-504.919C845.648,-485.377 812.375,-443.905 805,-440 791.586,-432.897 588.271,-413.638 497.826,-405.363"/>
<polygon fill="black" stroke="black" points="497.909,-401.856 487.633,-404.433 497.273,-408.827 497.909,-401.856"/>
<text text-anchor="middle" x="850.5" y="-454" font-family="Times,serif" font-size="10.00">Constant702</text>
<text text-anchor="middle" x="850.5" y="-443" font-family="Times,serif" font-size="10.00">(1,)</text>
</g>
<!-- Block1653 -->
<g id="node18" class="node"><title>Block1653</title>
<polygon fill="lightgray" stroke="black" stroke-width="4" points="979,-783 885,-783 885,-711 979,-711 979,-783"/>
<text text-anchor="middle" x="932" y="-743.9" font-family="Times,serif" font-size="12.00">LSTM</text>
</g>
<!-- Block1653&#45;&gt;NoOp1682 -->
<g id="edge20" class="edge"><title>Block1653&#45;&gt;NoOp1682</title>
<path fill="none" stroke="black" d="M884.82,-743.497C842.159,-739.021 779.676,-726.7 737,-693 724.849,-683.405 716.55,-668.051 711.314,-655.212"/>
<polygon fill="black" stroke="black" points="714.514,-653.773 707.756,-645.613 707.95,-656.206 714.514,-653.773"/>
<text text-anchor="middle" x="782.5" y="-685" font-family="Times,serif" font-size="10.00">Block1653_Output_0</text>
<text text-anchor="middle" x="782.5" y="-674" font-family="Times,serif" font-size="10.00">[#,*](512,)</text>
</g>
<!-- PastValue1568 -->
<g id="node25" class="node"><title>PastValue1568</title>
<polygon fill="lightgray" stroke="black" stroke-width="4" points="1226.5,-653 1161.5,-653 1161.5,-610 1226.5,-610 1226.5,-653"/>
<text text-anchor="middle" x="1194" y="-628.4" font-family="Times,serif" font-size="12.00">PastValue</text>
</g>
<!-- Block1653&#45;&gt;PastValue1568 -->
<g id="edge30" class="edge"><title>Block1653&#45;&gt;PastValue1568</title>
<path fill="none" stroke="black" d="M979.129,-740.99C1040.62,-733.565 1143.72,-717.786 1172,-693 1180.82,-685.273 1186.1,-673.721 1189.27,-662.776"/>
<polygon fill="black" stroke="black" points="1192.68,-663.564 1191.62,-653.022 1185.87,-661.922 1192.68,-663.564"/>
<text text-anchor="middle" x="1231.5" y="-685" font-family="Times,serif" font-size="10.00">Block1653_Output_0</text>
<text text-anchor="middle" x="1231.5" y="-674" font-family="Times,serif" font-size="10.00">[#,*](512,)</text>
</g>
<!-- PastValue1571 -->
<g id="node26" class="node"><title>PastValue1571</title>
<polygon fill="lightgray" stroke="black" stroke-width="4" points="964.5,-653 899.5,-653 899.5,-610 964.5,-610 964.5,-653"/>
<text text-anchor="middle" x="932" y="-628.4" font-family="Times,serif" font-size="12.00">PastValue</text>
</g>
<!-- Block1653&#45;&gt;PastValue1571 -->
<g id="edge32" class="edge"><title>Block1653&#45;&gt;PastValue1571</title>
<path fill="none" stroke="black" d="M884.958,-730.451C853.168,-717.26 819.858,-696.444 837,-671 848.77,-653.53 869.965,-643.985 889.354,-638.77"/>
<polygon fill="black" stroke="black" points="890.346,-642.132 899.269,-636.419 888.731,-635.321 890.346,-642.132"/>
<text text-anchor="middle" x="882.5" y="-685" font-family="Times,serif" font-size="10.00">Block1653_Output_1</text>
<text text-anchor="middle" x="882.5" y="-674" font-family="Times,serif" font-size="10.00">[#,*](512,)</text>
</g>
<!-- Parameter5 -->
<g id="node19" class="node"><title>Parameter5</title>
<polygon fill="lightgray" stroke="black" points="698,-898.5 626,-898.5 626,-855.5 698,-855.5 698,-898.5"/>
<text text-anchor="middle" x="662" y="-880.4" font-family="Times,serif" font-size="12.00">b</text>
<text text-anchor="middle" x="662" y="-867.4" font-family="Times,serif" font-size="12.00">(2048,)</text>
</g>
<!-- Parameter5&#45;&gt;Block1653 -->
<g id="edge21" class="edge"><title>Parameter5&#45;&gt;Block1653</title>
<path fill="none" stroke="black" d="M688.571,-855.168C694.609,-850.48 701.009,-845.548 707,-841 730.79,-822.942 734.359,-814.501 761,-801 797.083,-782.714 840.676,-769.322 874.816,-760.574"/>
<polygon fill="black" stroke="black" points="875.782,-763.941 884.634,-758.119 874.084,-757.15 875.782,-763.941"/>
<text text-anchor="middle" x="776" y="-815" font-family="Times,serif" font-size="10.00">b</text>
<text text-anchor="middle" x="776" y="-804" font-family="Times,serif" font-size="10.00">(2048,)</text>
</g>
<!-- Parameter6 -->
<g id="node20" class="node"><title>Parameter6</title>
<polygon fill="lightgray" stroke="black" points="788,-898.5 716,-898.5 716,-855.5 788,-855.5 788,-898.5"/>
<text text-anchor="middle" x="752" y="-880.4" font-family="Times,serif" font-size="12.00">W</text>
<text text-anchor="middle" x="752" y="-867.4" font-family="Times,serif" font-size="12.00">(69, 2048)</text>
</g>
<!-- Parameter6&#45;&gt;Block1653 -->
<g id="edge22" class="edge"><title>Parameter6&#45;&gt;Block1653</title>
<path fill="none" stroke="black" d="M766.647,-855.458C779.12,-839.09 798.275,-816.434 819,-801 836.023,-788.323 856.562,-777.587 875.435,-769.164"/>
<polygon fill="black" stroke="black" points="877.047,-772.28 884.833,-765.094 874.265,-765.856 877.047,-772.28"/>
<text text-anchor="middle" x="840.5" y="-815" font-family="Times,serif" font-size="10.00">W</text>
<text text-anchor="middle" x="840.5" y="-804" font-family="Times,serif" font-size="10.00">(69, 2048)</text>
</g>
<!-- Parameter7 -->
<g id="node21" class="node"><title>Parameter7</title>
<polygon fill="lightgray" stroke="black" points="878,-898.5 806,-898.5 806,-855.5 878,-855.5 878,-898.5"/>
<text text-anchor="middle" x="842" y="-880.4" font-family="Times,serif" font-size="12.00">H</text>
<text text-anchor="middle" x="842" y="-867.4" font-family="Times,serif" font-size="12.00">(512, 2048)</text>
</g>
<!-- Parameter7&#45;&gt;Block1653 -->
<g id="edge23" class="edge"><title>Parameter7&#45;&gt;Block1653</title>
<path fill="none" stroke="black" d="M850.419,-855.301C857.254,-839.673 867.746,-818.078 880,-801 882.452,-797.583 885.123,-794.176 887.919,-790.833"/>
<polygon fill="black" stroke="black" points="890.672,-793.001 894.621,-783.17 885.403,-788.393 890.672,-793.001"/>
<text text-anchor="middle" x="904" y="-815" font-family="Times,serif" font-size="10.00">H</text>
<text text-anchor="middle" x="904" y="-804" font-family="Times,serif" font-size="10.00">(512, 2048)</text>
</g>
<!-- Parameter10 -->
<g id="node22" class="node"><title>Parameter10</title>
<polygon fill="lightgray" stroke="black" points="968,-898.5 896,-898.5 896,-855.5 968,-855.5 968,-898.5"/>
<text text-anchor="middle" x="932" y="-880.4" font-family="Times,serif" font-size="12.00">Co</text>
<text text-anchor="middle" x="932" y="-867.4" font-family="Times,serif" font-size="12.00">(512,)</text>
</g>
<!-- Parameter10&#45;&gt;Block1653 -->
<g id="edge24" class="edge"><title>Parameter10&#45;&gt;Block1653</title>
<path fill="none" stroke="black" d="M932,-855.435C932,-838.673 932,-814.385 932,-793.141"/>
<polygon fill="black" stroke="black" points="935.5,-793.003 932,-783.003 928.5,-793.003 935.5,-793.003"/>
<text text-anchor="middle" x="944.5" y="-815" font-family="Times,serif" font-size="10.00">Co</text>
<text text-anchor="middle" x="944.5" y="-804" font-family="Times,serif" font-size="10.00">(512,)</text>
</g>
<!-- Parameter9 -->
<g id="node23" class="node"><title>Parameter9</title>
<polygon fill="lightgray" stroke="black" points="1058,-898.5 986,-898.5 986,-855.5 1058,-855.5 1058,-898.5"/>
<text text-anchor="middle" x="1022" y="-880.4" font-family="Times,serif" font-size="12.00">Cf</text>
<text text-anchor="middle" x="1022" y="-867.4" font-family="Times,serif" font-size="12.00">(512,)</text>
</g>
<!-- Parameter9&#45;&gt;Block1653 -->
<g id="edge25" class="edge"><title>Parameter9&#45;&gt;Block1653</title>
<path fill="none" stroke="black" d="M1007.54,-855.435C995.433,-838.216 977.741,-813.054 962.523,-791.41"/>
<polygon fill="black" stroke="black" points="965.226,-789.17 956.611,-783.003 959.5,-793.196 965.226,-789.17"/>
<text text-anchor="middle" x="994.5" y="-815" font-family="Times,serif" font-size="10.00">Cf</text>
<text text-anchor="middle" x="994.5" y="-804" font-family="Times,serif" font-size="10.00">(512,)</text>
</g>
<!-- Parameter8 -->
<g id="node24" class="node"><title>Parameter8</title>
<polygon fill="lightgray" stroke="black" points="1148,-898.5 1076,-898.5 1076,-855.5 1148,-855.5 1148,-898.5"/>
<text text-anchor="middle" x="1112" y="-880.4" font-family="Times,serif" font-size="12.00">Ci</text>
<text text-anchor="middle" x="1112" y="-867.4" font-family="Times,serif" font-size="12.00">(512,)</text>
</g>
<!-- Parameter8&#45;&gt;Block1653 -->
<g id="edge26" class="edge"><title>Parameter8&#45;&gt;Block1653</title>
<path fill="none" stroke="black" d="M1085.96,-855.46C1079.78,-850.666 1073.19,-845.614 1067,-841 1041.38,-821.903 1012.27,-801.67 987.659,-784.971"/>
<polygon fill="black" stroke="black" points="989.398,-781.921 979.154,-779.219 985.477,-787.72 989.398,-781.921"/>
<text text-anchor="middle" x="1053.5" y="-815" font-family="Times,serif" font-size="10.00">Ci</text>
<text text-anchor="middle" x="1053.5" y="-804" font-family="Times,serif" font-size="10.00">(512,)</text>
</g>
<!-- PastValue1568&#45;&gt;Block1653 -->
<g id="edge27" class="edge"><title>PastValue1568&#45;&gt;Block1653</title>
<path fill="none" stroke="black" d="M1161.3,-637.725C1133.93,-643.113 1094.54,-653.287 1064,-671 1051.76,-678.097 1052.61,-684.921 1041,-693 1024.9,-704.205 1006.06,-714.278 988.628,-722.557"/>
<polygon fill="black" stroke="black" points="986.712,-719.588 979.111,-726.968 989.655,-725.939 986.712,-719.588"/>
<text text-anchor="middle" x="1118" y="-685" font-family="Times,serif" font-size="10.00">PastValue1568_Output_0</text>
<text text-anchor="middle" x="1118" y="-674" font-family="Times,serif" font-size="10.00">[#,*](512,)</text>
</g>
<!-- PastValue1571&#45;&gt;Block1653 -->
<g id="edge28" class="edge"><title>PastValue1571&#45;&gt;Block1653</title>
<path fill="none" stroke="black" d="M932,-653.217C932,-666.497 932,-684.268 932,-700.702"/>
<polygon fill="black" stroke="black" points="928.5,-700.71 932,-710.71 935.5,-700.71 928.5,-700.71"/>
<text text-anchor="middle" x="986" y="-685" font-family="Times,serif" font-size="10.00">PastValue1571_Output_0</text>
<text text-anchor="middle" x="986" y="-674" font-family="Times,serif" font-size="10.00">[#,*](512,)</text>
</g>
<!-- Input3 -->
<g id="node27" class="node"><title>Input3</title>
<polygon fill="lightgray" stroke="black" stroke-width="4" points="1220.63,-841.099 1223.7,-841.296 1226.74,-841.591 1229.73,-841.983 1232.66,-842.471 1235.53,-843.053 1238.32,-843.729 1241.02,-844.496 1243.62,-845.352 1246.1,-846.294 1248.47,-847.321 1250.71,-848.429 1252.82,-849.616 1254.78,-850.878 1256.6,-852.211 1258.27,-853.612 1259.78,-855.077 1261.13,-856.602 1262.31,-858.184 1263.34,-859.816 1264.2,-861.496 1264.89,-863.219 1265.43,-864.979 1265.8,-866.772 1266.01,-868.593 1266.07,-870.437 1265.98,-872.299 1265.73,-874.175 1265.35,-876.057 1264.83,-877.943 1264.17,-879.825 1263.39,-881.701 1262.49,-883.563 1261.48,-885.407 1260.36,-887.228 1259.15,-889.021 1257.84,-890.781 1256.44,-892.504 1254.97,-894.184 1253.42,-895.816 1251.81,-897.398 1250.14,-898.923 1248.41,-900.388 1246.64,-901.789 1244.82,-903.122 1242.96,-904.384 1241.07,-905.571 1239.15,-906.679 1237.21,-907.706 1235.25,-908.648 1233.26,-909.504 1231.26,-910.271 1229.25,-910.947 1227.23,-911.529 1225.2,-912.017 1223.16,-912.409 1221.12,-912.704 1219.07,-912.901 1217.02,-913 1214.98,-913 1212.93,-912.901 1210.88,-912.704 1208.84,-912.409 1206.8,-912.017 1204.77,-911.529 1202.75,-910.947 1200.74,-910.271 1198.74,-909.504 1196.75,-908.648 1194.79,-907.706 1192.85,-906.679 1190.93,-905.571 1189.04,-904.384 1187.18,-903.122 1185.36,-901.789 1183.59,-900.388 1181.86,-898.923 1180.19,-897.398 1178.58,-895.816 1177.03,-894.184 1175.56,-892.504 1174.16,-890.781 1172.85,-889.021 1171.64,-887.228 1170.52,-885.407 1169.51,-883.563 1168.61,-881.701 1167.83,-879.825 1167.17,-877.943 1166.65,-876.057 1166.27,-874.175 1166.02,-872.299 1165.93,-870.437 1165.99,-868.593 1166.2,-866.772 1166.57,-864.979 1167.11,-863.219 1167.8,-861.496 1168.66,-859.816 1169.69,-858.184 1170.87,-856.602 1172.22,-855.077 1173.73,-853.612 1175.4,-852.211 1177.22,-850.878 1179.18,-849.616 1181.29,-848.429 1183.53,-847.321 1185.9,-846.294 1188.38,-845.352 1190.98,-844.496 1193.68,-843.729 1196.47,-843.053 1199.34,-842.471 1202.27,-841.983 1205.26,-841.591 1208.3,-841.296 1211.37,-841.099 1214.45,-841 1217.55,-841 1220.63,-841.099"/>
<text text-anchor="middle" x="1216" y="-886.9" font-family="Times,serif" font-size="12.00">Input</text>
<text text-anchor="middle" x="1216" y="-873.9" font-family="Times,serif" font-size="12.00">inputs</text>
<text text-anchor="middle" x="1216" y="-860.9" font-family="Times,serif" font-size="12.00">[#,*](69,)</text>
</g>
<!-- Input3&#45;&gt;Block1653 -->
<g id="edge29" class="edge"><title>Input3&#45;&gt;Block1653</title>
<path fill="none" stroke="black" d="M1176.01,-851.52C1169.71,-847.884 1163.22,-844.265 1157,-841 1101.61,-811.941 1035.08,-785.403 988.794,-768.181"/>
<polygon fill="black" stroke="black" points="989.828,-764.832 979.235,-764.65 987.403,-771.398 989.828,-764.832"/>
<text text-anchor="middle" x="1134" y="-815" font-family="Times,serif" font-size="10.00">inputs</text>
<text text-anchor="middle" x="1134" y="-804" font-family="Times,serif" font-size="10.00">[#,*](69,)</text>
</g>
<!-- Constant123 -->
<g id="node28" class="node"><title>Constant123</title>
<polygon fill="white" stroke="white" points="1362.5,-758 1329.5,-758 1329.5,-736 1362.5,-736 1362.5,-758"/>
<text text-anchor="middle" x="1346" y="-743.9" font-family="Times,serif" font-size="12.00">[0.]</text>
</g>
<!-- Constant123&#45;&gt;PastValue1568 -->
<g id="edge31" class="edge"><title>Constant123&#45;&gt;PastValue1568</title>
<path fill="none" stroke="black" d="M1352.86,-735.831C1362.48,-720.193 1377.18,-690.055 1362,-671 1346.6,-651.677 1281.16,-641.263 1236.65,-636.305"/>
<polygon fill="black" stroke="black" points="1236.98,-632.82 1226.66,-635.244 1236.24,-639.78 1236.98,-632.82"/>
<text text-anchor="middle" x="1394.5" y="-685" font-family="Times,serif" font-size="10.00">Constant123</text>
<text text-anchor="middle" x="1394.5" y="-674" font-family="Times,serif" font-size="10.00">(1,)</text>
</g>
<!-- Constant123&#45;&gt;PastValue1571 -->
<g id="edge33" class="edge"><title>Constant123&#45;&gt;PastValue1571</title>
<path fill="none" stroke="black" d="M1338.59,-735.722C1324.89,-717.031 1295.65,-678.687 1281,-671 1267.6,-663.967 1064.88,-644.669 974.7,-636.374"/>
<polygon fill="black" stroke="black" points="974.814,-632.87 964.536,-635.442 974.175,-639.84 974.814,-632.87"/>
<text text-anchor="middle" x="1329.5" y="-685" font-family="Times,serif" font-size="10.00">Constant123</text>
<text text-anchor="middle" x="1329.5" y="-674" font-family="Times,serif" font-size="10.00">(1,)</text>
</g>
</g>
</svg>
