<?xml version="1.0" encoding="UTF-8" standalone="no"?>
<!DOCTYPE svg PUBLIC "-//W3C//DTD SVG 1.1//EN"
 "http://www.w3.org/Graphics/SVG/1.1/DTD/svg11.dtd">
<!-- Generated by graphviz version 2.38.0 (20140413.2041)
 -->
<!-- Title: network_graph Pages: 1 -->
<svg width="1235pt" height="1095pt"
 viewBox="0.00 0.00 1235.00 1095.00" xmlns="http://www.w3.org/2000/svg" xmlns:xlink="http://www.w3.org/1999/xlink">
<g id="graph0" class="graph" transform="scale(1 1) rotate(0) translate(4 1091)">
<title>network_graph</title>
<polygon fill="white" stroke="none" points="-4,4 -4,-1091 1231,-1091 1231,4 -4,4"/>
<!-- Block1628 -->
<g id="node1" class="node"><title>Block1628</title>
<polygon fill="lightgray" stroke="black" stroke-width="4" points="173,-191 79,-191 79,-119 173,-119 173,-191"/>
<text text-anchor="middle" x="126" y="-151.9" font-family="Times,serif" font-size="12.00">Dense</text>
</g>
<!-- Block1628_Output_0 -->
<g id="node5" class="node"><title>Block1628_Output_0</title>
<polygon fill="lightgray" stroke="black" stroke-width="4" points="130.633,-0.0986735 133.701,-0.29575 136.737,-0.590689 139.729,-0.982683 142.664,-1.47066 145.532,-2.05327 148.32,-2.72894 151.018,-3.49579 153.615,-4.35174 156.103,-5.29443 158.471,-6.32129 160.713,-7.42949 162.819,-8.616 164.784,-9.87757 166.602,-11.2107 168.268,-12.6119 169.777,-14.0771 171.126,-15.6024 172.314,-17.1836 173.338,-18.8164 174.198,-20.4963 174.895,-22.2187 175.428,-23.9788 175.799,-25.7719 176.012,-27.5931 176.07,-29.4373 175.975,-31.2994 175.733,-33.1745 175.348,-35.0573 174.826,-36.9427 174.172,-38.8255 173.392,-40.7006 172.493,-42.5627 171.481,-44.4069 170.364,-46.2281 169.147,-48.0212 167.837,-49.7813 166.442,-51.5037 164.968,-53.1836 163.421,-54.8164 161.809,-56.3976 160.136,-57.9229 158.41,-59.3881 156.635,-60.7893 154.817,-62.1224 152.961,-63.384 151.072,-64.5705 149.154,-65.6787 147.21,-66.7056 145.245,-67.6483 143.261,-68.5042 141.262,-69.2711 139.251,-69.9467 137.228,-70.5293 135.197,-71.0173 133.16,-71.4093 131.118,-71.7042 129.072,-71.9013 127.024,-72 124.976,-72 122.928,-71.9013 120.882,-71.7042 118.84,-71.4093 116.803,-71.0173 114.772,-70.5293 112.749,-69.9467 110.738,-69.2711 108.739,-68.5042 106.755,-67.6483 104.79,-66.7056 102.846,-65.6787 100.928,-64.5705 99.0386,-63.384 97.1827,-62.1224 95.3649,-60.7893 93.5901,-59.3881 91.8637,-57.9229 90.1912,-56.3976 88.5786,-54.8164 87.0321,-53.1836 85.5579,-51.5037 84.1628,-49.7813 82.8533,-48.0212 81.6363,-46.2281 80.5186,-44.4069 79.5069,-42.5627 78.608,-40.7006 77.8284,-38.8255 77.1743,-36.9427 76.652,-35.0573 76.267,-33.1745 76.0248,-31.2994 75.9302,-29.4373 75.9875,-27.5931 76.2005,-25.7719 76.5723,-23.9788 77.1055,-22.2187 77.8016,-20.4963 78.6616,-18.8164 79.6859,-17.1836 80.8735,-15.6024 82.2232,-14.0771 83.7324,-12.6119 85.398,-11.2107 87.2158,-9.87757 89.1809,-8.616 91.2873,-7.42949 93.5285,-6.32129 95.897,-5.29443 98.3845,-4.35174 100.982,-3.49579 103.68,-2.72894 106.468,-2.05327 109.336,-1.47066 112.271,-0.982683 115.263,-0.590689 118.299,-0.29575 121.367,-0.0986735 124.453,-3.62377e-13 127.547,-3.69482e-13 130.633,-0.0986735"/>
<text text-anchor="middle" x="126" y="-25.9" font-family="Times,serif" font-size="12.00">[#](69,)</text>
</g>
<!-- Block1628&#45;&gt;Block1628_Output_0 -->
<g id="edge4" class="edge"><title>Block1628&#45;&gt;Block1628_Output_0</title>
<path fill="none" stroke="black" d="M126,-118.896C126,-107.327 126,-94.2965 126,-82.0893"/>
<polygon fill="black" stroke="black" points="129.5,-82.079 126,-72.0791 122.5,-82.0791 129.5,-82.079"/>
<text text-anchor="middle" x="141.5" y="-93" font-family="Times,serif" font-size="10.00">[#](69,)</text>
</g>
<!-- Parameter1595 -->
<g id="node2" class="node"><title>Parameter1595</title>
<polygon fill="lightgray" stroke="black" points="72,-306.5 0,-306.5 0,-263.5 72,-263.5 72,-306.5"/>
<text text-anchor="middle" x="36" y="-288.4" font-family="Times,serif" font-size="12.00">W</text>
<text text-anchor="middle" x="36" y="-275.4" font-family="Times,serif" font-size="12.00">(512, 69)</text>
</g>
<!-- Parameter1595&#45;&gt;Block1628 -->
<g id="edge1" class="edge"><title>Parameter1595&#45;&gt;Block1628</title>
<path fill="none" stroke="black" d="M48.8775,-263.332C58.5176,-248.101 72.193,-226.994 85,-209 87.2872,-205.786 89.6878,-202.494 92.1316,-199.201"/>
<polygon fill="black" stroke="black" points="95.0435,-201.152 98.2553,-191.056 89.4484,-196.946 95.0435,-201.152"/>
<text text-anchor="middle" x="103.5" y="-223" font-family="Times,serif" font-size="10.00">W</text>
<text text-anchor="middle" x="103.5" y="-212" font-family="Times,serif" font-size="10.00">(512, 69)</text>
</g>
<!-- Parameter1596 -->
<g id="node3" class="node"><title>Parameter1596</title>
<polygon fill="lightgray" stroke="black" points="162,-306.5 90,-306.5 90,-263.5 162,-263.5 162,-306.5"/>
<text text-anchor="middle" x="126" y="-288.4" font-family="Times,serif" font-size="12.00">b</text>
<text text-anchor="middle" x="126" y="-275.4" font-family="Times,serif" font-size="12.00">(69,)</text>
</g>
<!-- Parameter1596&#45;&gt;Block1628 -->
<g id="edge2" class="edge"><title>Parameter1596&#45;&gt;Block1628</title>
<path fill="none" stroke="black" d="M126,-263.435C126,-246.673 126,-222.385 126,-201.141"/>
<polygon fill="black" stroke="black" points="129.5,-201.003 126,-191.003 122.5,-201.003 129.5,-201.003"/>
<text text-anchor="middle" x="135.5" y="-223" font-family="Times,serif" font-size="10.00">b</text>
<text text-anchor="middle" x="135.5" y="-212" font-family="Times,serif" font-size="10.00">(69,)</text>
</g>
<!-- Block1586 -->
<g id="node4" class="node"><title>Block1586</title>
<polygon fill="lightgray" stroke="black" stroke-width="4" points="274,-321 180,-321 180,-249 274,-249 274,-321"/>
<text text-anchor="middle" x="227" y="-281.9" font-family="Times,serif" font-size="12.00">Sequence::Slice</text>
</g>
<!-- Block1586&#45;&gt;Block1628 -->
<g id="edge3" class="edge"><title>Block1586&#45;&gt;Block1628</title>
<path fill="none" stroke="black" d="M199.134,-248.685C187.101,-233.435 172.907,-215.446 160.24,-199.393"/>
<polygon fill="black" stroke="black" points="162.717,-196.882 153.775,-191.2 157.222,-201.219 162.717,-196.882"/>
<text text-anchor="middle" x="228.5" y="-223" font-family="Times,serif" font-size="10.00">Block1586_Output_0</text>
<text text-anchor="middle" x="228.5" y="-212" font-family="Times,serif" font-size="10.00">[#](512,)</text>
</g>
<!-- Plus1565 -->
<g id="node6" class="node"><title>Plus1565</title>
<ellipse fill="lightgray" stroke="black" stroke-width="4" cx="227" cy="-393.5" rx="14.5" ry="14.5"/>
<text text-anchor="middle" x="227" y="-388.5" font-family="Times,serif" font-size="20.00">+</text>
</g>
<!-- Plus1565&#45;&gt;Block1586 -->
<g id="edge5" class="edge"><title>Plus1565&#45;&gt;Block1586</title>
<path fill="none" stroke="black" d="M227,-378.577C227,-366.53 227,-348.417 227,-331.397"/>
<polygon fill="black" stroke="black" points="230.5,-331.006 227,-321.006 223.5,-331.006 230.5,-331.006"/>
<text text-anchor="middle" x="269" y="-353" font-family="Times,serif" font-size="10.00">Plus1565_Output_0</text>
<text text-anchor="middle" x="269" y="-342" font-family="Times,serif" font-size="10.00">[#,*](512,)</text>
</g>
<!-- ElementTimes1562 -->
<g id="node7" class="node"><title>ElementTimes1562</title>
<ellipse fill="lightgray" stroke="black" stroke-width="4" cx="418" cy="-480.5" rx="14.5" ry="14.5"/>
<text text-anchor="middle" x="418" y="-475.5" font-family="Times,serif" font-size="20.00">*</text>
</g>
<!-- ElementTimes1562&#45;&gt;Plus1565 -->
<g id="edge6" class="edge"><title>ElementTimes1562&#45;&gt;Plus1565</title>
<path fill="none" stroke="black" d="M404.872,-473.658C372.627,-459.308 289.257,-422.206 249.169,-404.366"/>
<polygon fill="black" stroke="black" points="250.527,-401.139 239.968,-400.271 247.681,-407.534 250.527,-401.139"/>
<text text-anchor="middle" x="407.5" y="-440" font-family="Times,serif" font-size="10.00">ElementTimes1562_Output_0</text>
<text text-anchor="middle" x="407.5" y="-429" font-family="Times,serif" font-size="10.00">[#,*](512,)</text>
</g>
<!-- NoOp699 -->
<g id="node8" class="node"><title>NoOp699</title>
<ellipse fill="lightgray" stroke="black" stroke-width="4" cx="232" cy="-805.5" rx="14.5" ry="14.5"/>
<text text-anchor="middle" x="232" y="-802.4" font-family="Times,serif" font-size="12.00">NoOp</text>
</g>
<!-- NoOp699&#45;&gt;Plus1565 -->
<g id="edge7" class="edge"><title>NoOp699&#45;&gt;Plus1565</title>
<path fill="none" stroke="black" d="M220.681,-796.213C198.837,-779.165 153,-737.816 153,-691 153,-691 153,-691 153,-479.5 153,-447.143 183.881,-421.12 205.745,-406.75"/>
<polygon fill="black" stroke="black" points="207.816,-409.583 214.447,-401.32 204.11,-403.644 207.816,-409.583"/>
<text text-anchor="middle" x="175" y="-577.5" font-family="Times,serif" font-size="10.00">basic_lstm</text>
<text text-anchor="middle" x="175" y="-566.5" font-family="Times,serif" font-size="10.00">[#,*](512,)</text>
</g>
<!-- Block1421 -->
<g id="node11" class="node"><title>Block1421</title>
<polygon fill="lightgray" stroke="black" stroke-width="4" points="573,-726 479,-726 479,-654 573,-654 573,-726"/>
<text text-anchor="middle" x="526" y="-686.9" font-family="Times,serif" font-size="12.00">LSTM</text>
</g>
<!-- NoOp699&#45;&gt;Block1421 -->
<g id="edge19" class="edge"><title>NoOp699&#45;&gt;Block1421</title>
<path fill="none" stroke="black" d="M240.131,-793.224C250.709,-779.419 270.516,-756.355 293,-744 347.987,-713.784 419.327,-700.772 468.506,-695.182"/>
<polygon fill="black" stroke="black" points="469.078,-698.641 478.649,-694.098 468.334,-691.681 469.078,-698.641"/>
<text text-anchor="middle" x="315" y="-758" font-family="Times,serif" font-size="10.00">basic_lstm</text>
<text text-anchor="middle" x="315" y="-747" font-family="Times,serif" font-size="10.00">[#,*](512,)</text>
</g>
<!-- Constant1561 -->
<g id="node9" class="node"><title>Constant1561</title>
<polygon fill="white" stroke="white" points="434,-585.5 402,-585.5 402,-563.5 434,-563.5 434,-585.5"/>
<text text-anchor="middle" x="418" y="-571.4" font-family="Times,serif" font-size="12.00">0.3</text>
</g>
<!-- Constant1561&#45;&gt;ElementTimes1562 -->
<g id="edge8" class="edge"><title>Constant1561&#45;&gt;ElementTimes1562</title>
<path fill="none" stroke="black" d="M418,-563.303C418,-549.38 418,-524.006 418,-505.196"/>
<polygon fill="black" stroke="black" points="421.5,-505.016 418,-495.016 414.5,-505.016 421.5,-505.016"/>
<text text-anchor="middle" x="447" y="-527" font-family="Times,serif" font-size="10.00">Constant1561</text>
<text text-anchor="middle" x="447" y="-516" font-family="Times,serif" font-size="10.00">()</text>
</g>
<!-- NoOp1450 -->
<g id="node10" class="node"><title>NoOp1450</title>
<ellipse fill="lightgray" stroke="black" stroke-width="4" cx="535" cy="-574.5" rx="14.5" ry="14.5"/>
<text text-anchor="middle" x="535" y="-571.4" font-family="Times,serif" font-size="12.00">NoOp</text>
</g>
<!-- NoOp1450&#45;&gt;ElementTimes1562 -->
<g id="edge9" class="edge"><title>NoOp1450&#45;&gt;ElementTimes1562</title>
<path fill="none" stroke="black" d="M526.693,-562.095C516.723,-548.997 498.963,-527.461 480,-513 468.075,-503.905 453.125,-496.22 440.893,-490.718"/>
<polygon fill="black" stroke="black" points="441.953,-487.364 431.384,-486.626 439.186,-493.794 441.953,-487.364"/>
<text text-anchor="middle" x="525" y="-527" font-family="Times,serif" font-size="10.00">basic_lstm</text>
<text text-anchor="middle" x="525" y="-516" font-family="Times,serif" font-size="10.00">[#,*](512,)</text>
</g>
<!-- Block1421&#45;&gt;NoOp1450 -->
<g id="edge10" class="edge"><title>Block1421&#45;&gt;NoOp1450</title>
<path fill="none" stroke="black" d="M553.122,-653.921C556.357,-648.195 559.16,-642.125 561,-636 563.813,-626.636 563.861,-623.35 561,-614 558.812,-606.849 554.798,-599.828 550.568,-593.78"/>
<polygon fill="black" stroke="black" points="553.257,-591.535 544.404,-585.715 547.695,-595.785 553.257,-591.535"/>
<text text-anchor="middle" x="608.5" y="-628" font-family="Times,serif" font-size="10.00">Block1421_Output_0</text>
<text text-anchor="middle" x="608.5" y="-617" font-family="Times,serif" font-size="10.00">[#,*](512,)</text>
</g>
<!-- PastValue1336 -->
<g id="node18" class="node"><title>PastValue1336</title>
<polygon fill="lightgray" stroke="black" stroke-width="4" points="729.5,-596 664.5,-596 664.5,-553 729.5,-553 729.5,-596"/>
<text text-anchor="middle" x="697" y="-571.4" font-family="Times,serif" font-size="12.00">PastValue</text>
</g>
<!-- Block1421&#45;&gt;PastValue1336 -->
<g id="edge20" class="edge"><title>Block1421&#45;&gt;PastValue1336</title>
<path fill="none" stroke="black" d="M573.158,-686.409C641.116,-681.578 761.372,-668.554 788,-636 806.179,-613.776 771.059,-596.684 739.306,-586.424"/>
<polygon fill="black" stroke="black" points="740.208,-583.04 729.622,-583.461 738.16,-589.733 740.208,-583.04"/>
<text text-anchor="middle" x="837.5" y="-628" font-family="Times,serif" font-size="10.00">Block1421_Output_0</text>
<text text-anchor="middle" x="837.5" y="-617" font-family="Times,serif" font-size="10.00">[#,*](512,)</text>
</g>
<!-- PastValue1339 -->
<g id="node19" class="node"><title>PastValue1339</title>
<polygon fill="lightgray" stroke="black" stroke-width="4" points="370.5,-596 305.5,-596 305.5,-553 370.5,-553 370.5,-596"/>
<text text-anchor="middle" x="338" y="-571.4" font-family="Times,serif" font-size="12.00">PastValue</text>
</g>
<!-- Block1421&#45;&gt;PastValue1339 -->
<g id="edge22" class="edge"><title>Block1421&#45;&gt;PastValue1339</title>
<path fill="none" stroke="black" d="M484.654,-653.797C478.275,-647.991 471.864,-641.93 466,-636 456.916,-626.814 457.735,-621.189 447,-614 425.98,-599.923 416.856,-604.419 393,-596 388.778,-594.51 384.385,-592.928 380.004,-591.328"/>
<polygon fill="black" stroke="black" points="381.098,-588.001 370.504,-587.83 378.679,-594.57 381.098,-588.001"/>
<text text-anchor="middle" x="511.5" y="-628" font-family="Times,serif" font-size="10.00">Block1421_Output_1</text>
<text text-anchor="middle" x="511.5" y="-617" font-family="Times,serif" font-size="10.00">[#,*](512,)</text>
</g>
<!-- Parameter756 -->
<g id="node12" class="node"><title>Parameter756</title>
<polygon fill="lightgray" stroke="black" points="787,-827 715,-827 715,-784 787,-784 787,-827"/>
<text text-anchor="middle" x="751" y="-808.9" font-family="Times,serif" font-size="12.00">b</text>
<text text-anchor="middle" x="751" y="-795.9" font-family="Times,serif" font-size="12.00">(2048,)</text>
</g>
<!-- Parameter756&#45;&gt;Block1421 -->
<g id="edge11" class="edge"><title>Parameter756&#45;&gt;Block1421</title>
<path fill="none" stroke="black" d="M715.539,-783.897C694.405,-771.85 666.922,-756.586 642,-744 622.807,-734.308 601.484,-724.342 582.408,-715.705"/>
<polygon fill="black" stroke="black" points="583.798,-712.493 573.243,-711.579 580.924,-718.876 583.798,-712.493"/>
<text text-anchor="middle" x="696" y="-758" font-family="Times,serif" font-size="10.00">b</text>
<text text-anchor="middle" x="696" y="-747" font-family="Times,serif" font-size="10.00">(2048,)</text>
</g>
<!-- Parameter757 -->
<g id="node13" class="node"><title>Parameter757</title>
<polygon fill="lightgray" stroke="black" points="337,-827 265,-827 265,-784 337,-784 337,-827"/>
<text text-anchor="middle" x="301" y="-808.9" font-family="Times,serif" font-size="12.00">W</text>
<text text-anchor="middle" x="301" y="-795.9" font-family="Times,serif" font-size="12.00">(512, 2048)</text>
</g>
<!-- Parameter757&#45;&gt;Block1421 -->
<g id="edge12" class="edge"><title>Parameter757&#45;&gt;Block1421</title>
<path fill="none" stroke="black" d="M320.19,-783.937C333.205,-770.992 351.374,-754.756 370,-744 400.845,-726.188 438.593,-713.164 469.23,-704.485"/>
<polygon fill="black" stroke="black" points="470.198,-707.849 478.91,-701.819 468.34,-701.1 470.198,-707.849"/>
<text text-anchor="middle" x="394" y="-758" font-family="Times,serif" font-size="10.00">W</text>
<text text-anchor="middle" x="394" y="-747" font-family="Times,serif" font-size="10.00">(512, 2048)</text>
</g>
<!-- Parameter758 -->
<g id="node14" class="node"><title>Parameter758</title>
<polygon fill="lightgray" stroke="black" points="427,-827 355,-827 355,-784 427,-784 427,-827"/>
<text text-anchor="middle" x="391" y="-808.9" font-family="Times,serif" font-size="12.00">H</text>
<text text-anchor="middle" x="391" y="-795.9" font-family="Times,serif" font-size="12.00">(512, 2048)</text>
</g>
<!-- Parameter758&#45;&gt;Block1421 -->
<g id="edge13" class="edge"><title>Parameter758&#45;&gt;Block1421</title>
<path fill="none" stroke="black" d="M406.668,-783.867C416.605,-771.522 430.159,-755.96 444,-744 452.151,-736.957 461.308,-730.146 470.469,-723.884"/>
<polygon fill="black" stroke="black" points="472.473,-726.754 478.855,-718.297 468.592,-720.928 472.473,-726.754"/>
<text text-anchor="middle" x="468" y="-758" font-family="Times,serif" font-size="10.00">H</text>
<text text-anchor="middle" x="468" y="-747" font-family="Times,serif" font-size="10.00">(512, 2048)</text>
</g>
<!-- Parameter761 -->
<g id="node15" class="node"><title>Parameter761</title>
<polygon fill="lightgray" stroke="black" points="517,-827 445,-827 445,-784 517,-784 517,-827"/>
<text text-anchor="middle" x="481" y="-808.9" font-family="Times,serif" font-size="12.00">Co</text>
<text text-anchor="middle" x="481" y="-795.9" font-family="Times,serif" font-size="12.00">(512,)</text>
</g>
<!-- Parameter761&#45;&gt;Block1421 -->
<g id="edge14" class="edge"><title>Parameter761&#45;&gt;Block1421</title>
<path fill="none" stroke="black" d="M489.149,-783.946C494.485,-770.489 501.668,-752.371 508.275,-735.706"/>
<polygon fill="black" stroke="black" points="511.648,-736.694 512.08,-726.108 505.141,-734.114 511.648,-736.694"/>
<text text-anchor="middle" x="516.5" y="-758" font-family="Times,serif" font-size="10.00">Co</text>
<text text-anchor="middle" x="516.5" y="-747" font-family="Times,serif" font-size="10.00">(512,)</text>
</g>
<!-- Parameter760 -->
<g id="node16" class="node"><title>Parameter760</title>
<polygon fill="lightgray" stroke="black" points="607,-827 535,-827 535,-784 607,-784 607,-827"/>
<text text-anchor="middle" x="571" y="-808.9" font-family="Times,serif" font-size="12.00">Cf</text>
<text text-anchor="middle" x="571" y="-795.9" font-family="Times,serif" font-size="12.00">(512,)</text>
</g>
<!-- Parameter760&#45;&gt;Block1421 -->
<g id="edge15" class="edge"><title>Parameter760&#45;&gt;Block1421</title>
<path fill="none" stroke="black" d="M562.851,-783.946C557.515,-770.489 550.332,-752.371 543.725,-735.706"/>
<polygon fill="black" stroke="black" points="546.859,-734.114 539.92,-726.108 540.352,-736.694 546.859,-734.114"/>
<text text-anchor="middle" x="567.5" y="-758" font-family="Times,serif" font-size="10.00">Cf</text>
<text text-anchor="middle" x="567.5" y="-747" font-family="Times,serif" font-size="10.00">(512,)</text>
</g>
<!-- Parameter759 -->
<g id="node17" class="node"><title>Parameter759</title>
<polygon fill="lightgray" stroke="black" points="697,-827 625,-827 625,-784 697,-784 697,-827"/>
<text text-anchor="middle" x="661" y="-808.9" font-family="Times,serif" font-size="12.00">Ci</text>
<text text-anchor="middle" x="661" y="-795.9" font-family="Times,serif" font-size="12.00">(512,)</text>
</g>
<!-- Parameter759&#45;&gt;Block1421 -->
<g id="edge16" class="edge"><title>Parameter759&#45;&gt;Block1421</title>
<path fill="none" stroke="black" d="M636.553,-783.946C619.574,-769.671 596.358,-750.153 575.583,-732.687"/>
<polygon fill="black" stroke="black" points="577.665,-729.864 567.759,-726.108 573.161,-735.222 577.665,-729.864"/>
<text text-anchor="middle" x="625.5" y="-758" font-family="Times,serif" font-size="10.00">Ci</text>
<text text-anchor="middle" x="625.5" y="-747" font-family="Times,serif" font-size="10.00">(512,)</text>
</g>
<!-- PastValue1336&#45;&gt;Block1421 -->
<g id="edge17" class="edge"><title>PastValue1336&#45;&gt;Block1421</title>
<path fill="none" stroke="black" d="M687.818,-596.074C681.145,-609.024 671.011,-625.261 658,-636 636.31,-653.902 607.796,-666.365 582.821,-674.685"/>
<polygon fill="black" stroke="black" points="581.555,-671.415 573.087,-677.782 583.677,-678.085 581.555,-671.415"/>
<text text-anchor="middle" x="730" y="-628" font-family="Times,serif" font-size="10.00">PastValue1336_Output_0</text>
<text text-anchor="middle" x="730" y="-617" font-family="Times,serif" font-size="10.00">[#,*](512,)</text>
</g>
<!-- PastValue1339&#45;&gt;Block1421 -->
<g id="edge18" class="edge"><title>PastValue1339&#45;&gt;Block1421</title>
<path fill="none" stroke="black" d="M332.618,-596.022C330.547,-608.788 330.419,-624.842 339,-636 354.925,-656.708 419.992,-671.755 468.931,-680.413"/>
<polygon fill="black" stroke="black" points="468.346,-683.863 478.795,-682.111 469.534,-676.965 468.346,-683.863"/>
<text text-anchor="middle" x="393" y="-628" font-family="Times,serif" font-size="10.00">PastValue1339_Output_0</text>
<text text-anchor="middle" x="393" y="-617" font-family="Times,serif" font-size="10.00">[#,*](512,)</text>
</g>
<!-- Constant874 -->
<g id="node20" class="node"><title>Constant874</title>
<polygon fill="white" stroke="white" points="246.5,-701 213.5,-701 213.5,-679 246.5,-679 246.5,-701"/>
<text text-anchor="middle" x="230" y="-686.9" font-family="Times,serif" font-size="12.00">[0.]</text>
</g>
<!-- Constant874&#45;&gt;PastValue1336 -->
<g id="edge21" class="edge"><title>Constant874&#45;&gt;PastValue1336</title>
<path fill="none" stroke="black" d="M232.627,-678.816C237.562,-661.994 249.958,-628.795 274,-614 301.023,-597.37 527.446,-599.334 559,-596 591.145,-592.603 627.277,-587.177 654.504,-582.761"/>
<polygon fill="black" stroke="black" points="655.175,-586.197 664.476,-581.124 654.041,-579.29 655.175,-586.197"/>
<text text-anchor="middle" x="300.5" y="-628" font-family="Times,serif" font-size="10.00">Constant874</text>
<text text-anchor="middle" x="300.5" y="-617" font-family="Times,serif" font-size="10.00">(1,)</text>
</g>
<!-- Constant874&#45;&gt;PastValue1339 -->
<g id="edge23" class="edge"><title>Constant874&#45;&gt;PastValue1339</title>
<path fill="none" stroke="black" d="M216.798,-678.984C198.729,-664.061 170.331,-635.452 187,-614 200.209,-597.001 255.351,-586.258 295.185,-580.563"/>
<polygon fill="black" stroke="black" points="295.77,-584.016 305.202,-579.189 294.819,-577.08 295.77,-584.016"/>
<text text-anchor="middle" x="213.5" y="-628" font-family="Times,serif" font-size="10.00">Constant874</text>
<text text-anchor="middle" x="213.5" y="-617" font-family="Times,serif" font-size="10.00">(1,)</text>
</g>
<!-- Block670 -->
<g id="node21" class="node"><title>Block670</title>
<polygon fill="lightgray" stroke="black" stroke-width="4" points="800,-957 706,-957 706,-885 800,-885 800,-957"/>
<text text-anchor="middle" x="753" y="-917.9" font-family="Times,serif" font-size="12.00">LSTM</text>
</g>
<!-- Block670&#45;&gt;NoOp699 -->
<g id="edge24" class="edge"><title>Block670&#45;&gt;NoOp699</title>
<path fill="none" stroke="black" d="M705.997,-919.177C614.775,-915.906 409.247,-900.262 256,-827 253.664,-825.883 251.373,-824.48 249.189,-822.935"/>
<polygon fill="black" stroke="black" points="251.387,-820.211 241.436,-816.573 246.947,-825.622 251.387,-820.211"/>
<text text-anchor="middle" x="401" y="-859" font-family="Times,serif" font-size="10.00">Block670_Output_0</text>
<text text-anchor="middle" x="401" y="-848" font-family="Times,serif" font-size="10.00">[#,*](512,)</text>
</g>
<!-- PastValue585 -->
<g id="node28" class="node"><title>PastValue585</title>
<polygon fill="lightgray" stroke="black" stroke-width="4" points="1037.5,-827 972.5,-827 972.5,-784 1037.5,-784 1037.5,-827"/>
<text text-anchor="middle" x="1005" y="-802.4" font-family="Times,serif" font-size="12.00">PastValue</text>
</g>
<!-- Block670&#45;&gt;PastValue585 -->
<g id="edge34" class="edge"><title>Block670&#45;&gt;PastValue585</title>
<path fill="none" stroke="black" d="M800.203,-914.474C859.362,-906.663 956.26,-890.655 983,-867 991.627,-859.368 996.874,-848.075 1000.06,-837.307"/>
<polygon fill="black" stroke="black" points="1003.54,-837.826 1002.53,-827.279 996.743,-836.151 1003.54,-837.826"/>
<text text-anchor="middle" x="1040" y="-859" font-family="Times,serif" font-size="10.00">Block670_Output_0</text>
<text text-anchor="middle" x="1040" y="-848" font-family="Times,serif" font-size="10.00">[#,*](512,)</text>
</g>
<!-- PastValue588 -->
<g id="node29" class="node"><title>PastValue588</title>
<polygon fill="lightgray" stroke="black" stroke-width="4" points="870.5,-827 805.5,-827 805.5,-784 870.5,-784 870.5,-827"/>
<text text-anchor="middle" x="838" y="-802.4" font-family="Times,serif" font-size="12.00">PastValue</text>
</g>
<!-- Block670&#45;&gt;PastValue588 -->
<g id="edge36" class="edge"><title>Block670&#45;&gt;PastValue588</title>
<path fill="none" stroke="black" d="M705.691,-904.266C671.592,-890.459 634.981,-868.895 656,-845 675.139,-823.242 752.755,-834.003 795.568,-826.045"/>
<polygon fill="black" stroke="black" points="796.5,-829.421 805.396,-823.666 794.853,-822.617 796.5,-829.421"/>
<text text-anchor="middle" x="699" y="-859" font-family="Times,serif" font-size="10.00">Block670_Output_1</text>
<text text-anchor="middle" x="699" y="-848" font-family="Times,serif" font-size="10.00">[#,*](512,)</text>
</g>
<!-- Parameter5 -->
<g id="node22" class="node"><title>Parameter5</title>
<polygon fill="lightgray" stroke="black" points="519,-1072.5 447,-1072.5 447,-1029.5 519,-1029.5 519,-1072.5"/>
<text text-anchor="middle" x="483" y="-1054.4" font-family="Times,serif" font-size="12.00">b</text>
<text text-anchor="middle" x="483" y="-1041.4" font-family="Times,serif" font-size="12.00">(2048,)</text>
</g>
<!-- Parameter5&#45;&gt;Block670 -->
<g id="edge25" class="edge"><title>Parameter5&#45;&gt;Block670</title>
<path fill="none" stroke="black" d="M509.601,-1029.21C515.637,-1024.52 522.029,-1019.57 528,-1015 551.426,-997.052 554.725,-988.437 581,-975 617.335,-956.419 661.365,-943.002 695.78,-934.317"/>
<polygon fill="black" stroke="black" points="696.799,-937.67 705.674,-931.882 695.127,-930.873 696.799,-937.67"/>
<text text-anchor="middle" x="596" y="-989" font-family="Times,serif" font-size="10.00">b</text>
<text text-anchor="middle" x="596" y="-978" font-family="Times,serif" font-size="10.00">(2048,)</text>
</g>
<!-- Parameter6 -->
<g id="node23" class="node"><title>Parameter6</title>
<polygon fill="lightgray" stroke="black" points="609,-1072.5 537,-1072.5 537,-1029.5 609,-1029.5 609,-1072.5"/>
<text text-anchor="middle" x="573" y="-1054.4" font-family="Times,serif" font-size="12.00">W</text>
<text text-anchor="middle" x="573" y="-1041.4" font-family="Times,serif" font-size="12.00">(69, 2048)</text>
</g>
<!-- Parameter6&#45;&gt;Block670 -->
<g id="edge26" class="edge"><title>Parameter6&#45;&gt;Block670</title>
<path fill="none" stroke="black" d="M587.647,-1029.46C600.12,-1013.09 619.275,-990.434 640,-975 657.023,-962.323 677.562,-951.587 696.435,-943.164"/>
<polygon fill="black" stroke="black" points="698.047,-946.28 705.833,-939.094 695.265,-939.856 698.047,-946.28"/>
<text text-anchor="middle" x="661.5" y="-989" font-family="Times,serif" font-size="10.00">W</text>
<text text-anchor="middle" x="661.5" y="-978" font-family="Times,serif" font-size="10.00">(69, 2048)</text>
</g>
<!-- Parameter7 -->
<g id="node24" class="node"><title>Parameter7</title>
<polygon fill="lightgray" stroke="black" points="699,-1072.5 627,-1072.5 627,-1029.5 699,-1029.5 699,-1072.5"/>
<text text-anchor="middle" x="663" y="-1054.4" font-family="Times,serif" font-size="12.00">H</text>
<text text-anchor="middle" x="663" y="-1041.4" font-family="Times,serif" font-size="12.00">(512, 2048)</text>
</g>
<!-- Parameter7&#45;&gt;Block670 -->
<g id="edge27" class="edge"><title>Parameter7&#45;&gt;Block670</title>
<path fill="none" stroke="black" d="M671.419,-1029.3C678.254,-1013.67 688.746,-992.078 701,-975 703.452,-971.583 706.123,-968.176 708.919,-964.833"/>
<polygon fill="black" stroke="black" points="711.672,-967.001 715.621,-957.17 706.403,-962.393 711.672,-967.001"/>
<text text-anchor="middle" x="725" y="-989" font-family="Times,serif" font-size="10.00">H</text>
<text text-anchor="middle" x="725" y="-978" font-family="Times,serif" font-size="10.00">(512, 2048)</text>
</g>
<!-- Parameter10 -->
<g id="node25" class="node"><title>Parameter10</title>
<polygon fill="lightgray" stroke="black" points="789,-1072.5 717,-1072.5 717,-1029.5 789,-1029.5 789,-1072.5"/>
<text text-anchor="middle" x="753" y="-1054.4" font-family="Times,serif" font-size="12.00">Co</text>
<text text-anchor="middle" x="753" y="-1041.4" font-family="Times,serif" font-size="12.00">(512,)</text>
</g>
<!-- Parameter10&#45;&gt;Block670 -->
<g id="edge28" class="edge"><title>Parameter10&#45;&gt;Block670</title>
<path fill="none" stroke="black" d="M753,-1029.43C753,-1012.67 753,-988.385 753,-967.141"/>
<polygon fill="black" stroke="black" points="756.5,-967.003 753,-957.003 749.5,-967.003 756.5,-967.003"/>
<text text-anchor="middle" x="765.5" y="-989" font-family="Times,serif" font-size="10.00">Co</text>
<text text-anchor="middle" x="765.5" y="-978" font-family="Times,serif" font-size="10.00">(512,)</text>
</g>
<!-- Parameter9 -->
<g id="node26" class="node"><title>Parameter9</title>
<polygon fill="lightgray" stroke="black" points="879,-1072.5 807,-1072.5 807,-1029.5 879,-1029.5 879,-1072.5"/>
<text text-anchor="middle" x="843" y="-1054.4" font-family="Times,serif" font-size="12.00">Cf</text>
<text text-anchor="middle" x="843" y="-1041.4" font-family="Times,serif" font-size="12.00">(512,)</text>
</g>
<!-- Parameter9&#45;&gt;Block670 -->
<g id="edge29" class="edge"><title>Parameter9&#45;&gt;Block670</title>
<path fill="none" stroke="black" d="M828.54,-1029.43C816.433,-1012.22 798.741,-987.054 783.523,-965.41"/>
<polygon fill="black" stroke="black" points="786.226,-963.17 777.611,-957.003 780.5,-967.196 786.226,-963.17"/>
<text text-anchor="middle" x="815.5" y="-989" font-family="Times,serif" font-size="10.00">Cf</text>
<text text-anchor="middle" x="815.5" y="-978" font-family="Times,serif" font-size="10.00">(512,)</text>
</g>
<!-- Parameter8 -->
<g id="node27" class="node"><title>Parameter8</title>
<polygon fill="lightgray" stroke="black" points="969,-1072.5 897,-1072.5 897,-1029.5 969,-1029.5 969,-1072.5"/>
<text text-anchor="middle" x="933" y="-1054.4" font-family="Times,serif" font-size="12.00">Ci</text>
<text text-anchor="middle" x="933" y="-1041.4" font-family="Times,serif" font-size="12.00">(512,)</text>
</g>
<!-- Parameter8&#45;&gt;Block670 -->
<g id="edge30" class="edge"><title>Parameter8&#45;&gt;Block670</title>
<path fill="none" stroke="black" d="M906.964,-1029.46C900.784,-1024.67 894.189,-1019.61 888,-1015 862.385,-995.903 833.274,-975.67 808.659,-958.971"/>
<polygon fill="black" stroke="black" points="810.398,-955.921 800.154,-953.219 806.477,-961.72 810.398,-955.921"/>
<text text-anchor="middle" x="874.5" y="-989" font-family="Times,serif" font-size="10.00">Ci</text>
<text text-anchor="middle" x="874.5" y="-978" font-family="Times,serif" font-size="10.00">(512,)</text>
</g>
<!-- PastValue585&#45;&gt;Block670 -->
<g id="edge31" class="edge"><title>PastValue585&#45;&gt;Block670</title>
<path fill="none" stroke="black" d="M972.236,-812.245C945.979,-817.842 908.882,-828.04 880,-845 867.802,-852.163 868.535,-858.813 857,-867 842.357,-877.393 825.391,-886.941 809.464,-894.984"/>
<polygon fill="black" stroke="black" points="807.65,-891.976 800.232,-899.541 810.748,-898.253 807.65,-891.976"/>
<text text-anchor="middle" x="931.5" y="-859" font-family="Times,serif" font-size="10.00">PastValue585_Output_0</text>
<text text-anchor="middle" x="931.5" y="-848" font-family="Times,serif" font-size="10.00">[#,*](512,)</text>
</g>
<!-- PastValue588&#45;&gt;Block670 -->
<g id="edge32" class="edge"><title>PastValue588&#45;&gt;Block670</title>
<path fill="none" stroke="black" d="M805.058,-822.769C802.005,-824.219 798.951,-825.649 796,-827 777.536,-835.457 765.293,-828.12 754,-845 748.244,-853.604 745.966,-864.098 745.562,-874.477"/>
<polygon fill="black" stroke="black" points="742.066,-874.8 745.722,-884.744 749.065,-874.69 742.066,-874.8"/>
<text text-anchor="middle" x="805.5" y="-859" font-family="Times,serif" font-size="10.00">PastValue588_Output_0</text>
<text text-anchor="middle" x="805.5" y="-848" font-family="Times,serif" font-size="10.00">[#,*](512,)</text>
</g>
<!-- Input3 -->
<g id="node30" class="node"><title>Input3</title>
<polygon fill="lightgray" stroke="black" stroke-width="4" points="1041.63,-1015.1 1044.7,-1015.3 1047.74,-1015.59 1050.73,-1015.98 1053.66,-1016.47 1056.53,-1017.05 1059.32,-1017.73 1062.02,-1018.5 1064.62,-1019.35 1067.1,-1020.29 1069.47,-1021.32 1071.71,-1022.43 1073.82,-1023.62 1075.78,-1024.88 1077.6,-1026.21 1079.27,-1027.61 1080.78,-1029.08 1082.13,-1030.6 1083.31,-1032.18 1084.34,-1033.82 1085.2,-1035.5 1085.89,-1037.22 1086.43,-1038.98 1086.8,-1040.77 1087.01,-1042.59 1087.07,-1044.44 1086.98,-1046.3 1086.73,-1048.17 1086.35,-1050.06 1085.83,-1051.94 1085.17,-1053.83 1084.39,-1055.7 1083.49,-1057.56 1082.48,-1059.41 1081.36,-1061.23 1080.15,-1063.02 1078.84,-1064.78 1077.44,-1066.5 1075.97,-1068.18 1074.42,-1069.82 1072.81,-1071.4 1071.14,-1072.92 1069.41,-1074.39 1067.64,-1075.79 1065.82,-1077.12 1063.96,-1078.38 1062.07,-1079.57 1060.15,-1080.68 1058.21,-1081.71 1056.25,-1082.65 1054.26,-1083.5 1052.26,-1084.27 1050.25,-1084.95 1048.23,-1085.53 1046.2,-1086.02 1044.16,-1086.41 1042.12,-1086.7 1040.07,-1086.9 1038.02,-1087 1035.98,-1087 1033.93,-1086.9 1031.88,-1086.7 1029.84,-1086.41 1027.8,-1086.02 1025.77,-1085.53 1023.75,-1084.95 1021.74,-1084.27 1019.74,-1083.5 1017.75,-1082.65 1015.79,-1081.71 1013.85,-1080.68 1011.93,-1079.57 1010.04,-1078.38 1008.18,-1077.12 1006.36,-1075.79 1004.59,-1074.39 1002.86,-1072.92 1001.19,-1071.4 999.579,-1069.82 998.032,-1068.18 996.558,-1066.5 995.163,-1064.78 993.853,-1063.02 992.636,-1061.23 991.519,-1059.41 990.507,-1057.56 989.608,-1055.7 988.828,-1053.83 988.174,-1051.94 987.652,-1050.06 987.267,-1048.17 987.025,-1046.3 986.93,-1044.44 986.988,-1042.59 987.201,-1040.77 987.572,-1038.98 988.105,-1037.22 988.802,-1035.5 989.662,-1033.82 990.686,-1032.18 991.874,-1030.6 993.223,-1029.08 994.732,-1027.61 996.398,-1026.21 998.216,-1024.88 1000.18,-1023.62 1002.29,-1022.43 1004.53,-1021.32 1006.9,-1020.29 1009.38,-1019.35 1011.98,-1018.5 1014.68,-1017.73 1017.47,-1017.05 1020.34,-1016.47 1023.27,-1015.98 1026.26,-1015.59 1029.3,-1015.3 1032.37,-1015.1 1035.45,-1015 1038.55,-1015 1041.63,-1015.1"/>
<text text-anchor="middle" x="1037" y="-1060.9" font-family="Times,serif" font-size="12.00">Input</text>
<text text-anchor="middle" x="1037" y="-1047.9" font-family="Times,serif" font-size="12.00">inputs</text>
<text text-anchor="middle" x="1037" y="-1034.9" font-family="Times,serif" font-size="12.00">[#,*](69,)</text>
</g>
<!-- Input3&#45;&gt;Block670 -->
<g id="edge33" class="edge"><title>Input3&#45;&gt;Block670</title>
<path fill="none" stroke="black" d="M997.011,-1025.52C990.71,-1021.88 984.222,-1018.26 978,-1015 922.615,-985.941 856.082,-959.403 809.794,-942.181"/>
<polygon fill="black" stroke="black" points="810.828,-938.832 800.235,-938.65 808.403,-945.398 810.828,-938.832"/>
<text text-anchor="middle" x="955" y="-989" font-family="Times,serif" font-size="10.00">inputs</text>
<text text-anchor="middle" x="955" y="-978" font-family="Times,serif" font-size="10.00">[#,*](69,)</text>
</g>
<!-- Constant123 -->
<g id="node31" class="node"><title>Constant123</title>
<polygon fill="white" stroke="white" points="1168.5,-932 1135.5,-932 1135.5,-910 1168.5,-910 1168.5,-932"/>
<text text-anchor="middle" x="1152" y="-917.9" font-family="Times,serif" font-size="12.00">[0.]</text>
</g>
<!-- Constant123&#45;&gt;PastValue585 -->
<g id="edge35" class="edge"><title>Constant123&#45;&gt;PastValue585</title>
<path fill="none" stroke="black" d="M1158.85,-909.843C1168.45,-894.221 1183.12,-864.106 1168,-845 1153.26,-826.371 1090.93,-815.838 1047.77,-810.656"/>
<polygon fill="black" stroke="black" points="1048.12,-807.174 1037.79,-809.511 1047.32,-814.128 1048.12,-807.174"/>
<text text-anchor="middle" x="1200.5" y="-859" font-family="Times,serif" font-size="10.00">Constant123</text>
<text text-anchor="middle" x="1200.5" y="-848" font-family="Times,serif" font-size="10.00">(1,)</text>
</g>
<!-- Constant123&#45;&gt;PastValue588 -->
<g id="edge37" class="edge"><title>Constant123&#45;&gt;PastValue588</title>
<path fill="none" stroke="black" d="M1144.56,-909.771C1130.82,-891.16 1101.51,-852.945 1087,-845 1038.54,-818.463 1018.6,-835.436 964,-827 936.211,-822.706 905.018,-817.633 880.621,-813.608"/>
<polygon fill="black" stroke="black" points="881.048,-810.131 870.611,-811.952 879.905,-817.037 881.048,-810.131"/>
<text text-anchor="middle" x="1135.5" y="-859" font-family="Times,serif" font-size="10.00">Constant123</text>
<text text-anchor="middle" x="1135.5" y="-848" font-family="Times,serif" font-size="10.00">(1,)</text>
</g>
</g>
</svg>
