<?xml version="1.0" encoding="UTF-8" standalone="no"?>
<!DOCTYPE svg PUBLIC "-//W3C//DTD SVG 1.1//EN"
 "http://www.w3.org/Graphics/SVG/1.1/DTD/svg11.dtd">
<!-- Generated by graphviz version 2.38.0 (20140413.2041)
 -->
<!-- Title: network_graph Pages: 1 -->
<svg width="917pt" height="690pt"
 viewBox="0.00 0.00 917.00 690.00" xmlns="http://www.w3.org/2000/svg" xmlns:xlink="http://www.w3.org/1999/xlink">
<g id="graph0" class="graph" transform="scale(1 1) rotate(0) translate(4 686)">
<title>network_graph</title>
<polygon fill="white" stroke="none" points="-4,4 -4,-686 913,-686 913,4 -4,4"/>
<!-- Block751 -->
<g id="node1" class="node"><title>Block751</title>
<polygon fill="lightgray" stroke="black" stroke-width="4" points="173,-191 79,-191 79,-119 173,-119 173,-191"/>
<text text-anchor="middle" x="126" y="-151.9" font-family="Times,serif" font-size="12.00">Dense</text>
</g>
<!-- Block751_Output_0 -->
<g id="node5" class="node"><title>Block751_Output_0</title>
<polygon fill="lightgray" stroke="black" stroke-width="4" points="130.633,-0.0986735 133.701,-0.29575 136.737,-0.590689 139.729,-0.982683 142.664,-1.47066 145.532,-2.05327 148.32,-2.72894 151.018,-3.49579 153.615,-4.35174 156.103,-5.29443 158.471,-6.32129 160.713,-7.42949 162.819,-8.616 164.784,-9.87757 166.602,-11.2107 168.268,-12.6119 169.777,-14.0771 171.126,-15.6024 172.314,-17.1836 173.338,-18.8164 174.198,-20.4963 174.895,-22.2187 175.428,-23.9788 175.799,-25.7719 176.012,-27.5931 176.07,-29.4373 175.975,-31.2994 175.733,-33.1745 175.348,-35.0573 174.826,-36.9427 174.172,-38.8255 173.392,-40.7006 172.493,-42.5627 171.481,-44.4069 170.364,-46.2281 169.147,-48.0212 167.837,-49.7813 166.442,-51.5037 164.968,-53.1836 163.421,-54.8164 161.809,-56.3976 160.136,-57.9229 158.41,-59.3881 156.635,-60.7893 154.817,-62.1224 152.961,-63.384 151.072,-64.5705 149.154,-65.6787 147.21,-66.7056 145.245,-67.6483 143.261,-68.5042 141.262,-69.2711 139.251,-69.9467 137.228,-70.5293 135.197,-71.0173 133.16,-71.4093 131.118,-71.7042 129.072,-71.9013 127.024,-72 124.976,-72 122.928,-71.9013 120.882,-71.7042 118.84,-71.4093 116.803,-71.0173 114.772,-70.5293 112.749,-69.9467 110.738,-69.2711 108.739,-68.5042 106.755,-67.6483 104.79,-66.7056 102.846,-65.6787 100.928,-64.5705 99.0386,-63.384 97.1827,-62.1224 95.3649,-60.7893 93.5901,-59.3881 91.8637,-57.9229 90.1912,-56.3976 88.5786,-54.8164 87.0321,-53.1836 85.5579,-51.5037 84.1628,-49.7813 82.8533,-48.0212 81.6363,-46.2281 80.5186,-44.4069 79.5069,-42.5627 78.608,-40.7006 77.8284,-38.8255 77.1743,-36.9427 76.652,-35.0573 76.267,-33.1745 76.0248,-31.2994 75.9302,-29.4373 75.9875,-27.5931 76.2005,-25.7719 76.5723,-23.9788 77.1055,-22.2187 77.8016,-20.4963 78.6616,-18.8164 79.6859,-17.1836 80.8735,-15.6024 82.2232,-14.0771 83.7324,-12.6119 85.398,-11.2107 87.2158,-9.87757 89.1809,-8.616 91.2873,-7.42949 93.5285,-6.32129 95.897,-5.29443 98.3845,-4.35174 100.982,-3.49579 103.68,-2.72894 106.468,-2.05327 109.336,-1.47066 112.271,-0.982683 115.263,-0.590689 118.299,-0.29575 121.367,-0.0986735 124.453,-3.62377e-13 127.547,-3.69482e-13 130.633,-0.0986735"/>
<text text-anchor="middle" x="126" y="-25.9" font-family="Times,serif" font-size="12.00">[#](69,)</text>
</g>
<!-- Block751&#45;&gt;Block751_Output_0 -->
<g id="edge4" class="edge"><title>Block751&#45;&gt;Block751_Output_0</title>
<path fill="none" stroke="black" d="M126,-118.896C126,-107.327 126,-94.2965 126,-82.0893"/>
<polygon fill="black" stroke="black" points="129.5,-82.079 126,-72.0791 122.5,-82.0791 129.5,-82.079"/>
<text text-anchor="middle" x="141.5" y="-93" font-family="Times,serif" font-size="10.00">[#](69,)</text>
</g>
<!-- Parameter724 -->
<g id="node2" class="node"><title>Parameter724</title>
<polygon fill="lightgray" stroke="black" points="72,-306.5 0,-306.5 0,-263.5 72,-263.5 72,-306.5"/>
<text text-anchor="middle" x="36" y="-288.4" font-family="Times,serif" font-size="12.00">W</text>
<text text-anchor="middle" x="36" y="-275.4" font-family="Times,serif" font-size="12.00">(128, 69)</text>
</g>
<!-- Parameter724&#45;&gt;Block751 -->
<g id="edge1" class="edge"><title>Parameter724&#45;&gt;Block751</title>
<path fill="none" stroke="black" d="M48.8775,-263.332C58.5176,-248.101 72.193,-226.994 85,-209 87.2872,-205.786 89.6878,-202.494 92.1316,-199.201"/>
<polygon fill="black" stroke="black" points="95.0435,-201.152 98.2553,-191.056 89.4484,-196.946 95.0435,-201.152"/>
<text text-anchor="middle" x="103.5" y="-223" font-family="Times,serif" font-size="10.00">W</text>
<text text-anchor="middle" x="103.5" y="-212" font-family="Times,serif" font-size="10.00">(128, 69)</text>
</g>
<!-- Parameter725 -->
<g id="node3" class="node"><title>Parameter725</title>
<polygon fill="lightgray" stroke="black" points="162,-306.5 90,-306.5 90,-263.5 162,-263.5 162,-306.5"/>
<text text-anchor="middle" x="126" y="-288.4" font-family="Times,serif" font-size="12.00">b</text>
<text text-anchor="middle" x="126" y="-275.4" font-family="Times,serif" font-size="12.00">(69,)</text>
</g>
<!-- Parameter725&#45;&gt;Block751 -->
<g id="edge2" class="edge"><title>Parameter725&#45;&gt;Block751</title>
<path fill="none" stroke="black" d="M126,-263.435C126,-246.673 126,-222.385 126,-201.141"/>
<polygon fill="black" stroke="black" points="129.5,-201.003 126,-191.003 122.5,-201.003 129.5,-201.003"/>
<text text-anchor="middle" x="135.5" y="-223" font-family="Times,serif" font-size="10.00">b</text>
<text text-anchor="middle" x="135.5" y="-212" font-family="Times,serif" font-size="10.00">(69,)</text>
</g>
<!-- Block715 -->
<g id="node4" class="node"><title>Block715</title>
<polygon fill="lightgray" stroke="black" stroke-width="4" points="274,-321 180,-321 180,-249 274,-249 274,-321"/>
<text text-anchor="middle" x="227" y="-281.9" font-family="Times,serif" font-size="12.00">Sequence::Slice</text>
</g>
<!-- Block715&#45;&gt;Block751 -->
<g id="edge3" class="edge"><title>Block715&#45;&gt;Block751</title>
<path fill="none" stroke="black" d="M199.134,-248.685C187.101,-233.435 172.907,-215.446 160.24,-199.393"/>
<polygon fill="black" stroke="black" points="162.717,-196.882 153.775,-191.2 157.222,-201.219 162.717,-196.882"/>
<text text-anchor="middle" x="226" y="-223" font-family="Times,serif" font-size="10.00">Block715_Output_0</text>
<text text-anchor="middle" x="226" y="-212" font-family="Times,serif" font-size="10.00">[#](128,)</text>
</g>
<!-- NoOp654 -->
<g id="node6" class="node"><title>NoOp654</title>
<ellipse fill="lightgray" stroke="black" stroke-width="4" cx="227" cy="-400.5" rx="14.5" ry="14.5"/>
<text text-anchor="middle" x="227" y="-397.4" font-family="Times,serif" font-size="12.00">NoOp</text>
</g>
<!-- NoOp654&#45;&gt;Block715 -->
<g id="edge5" class="edge"><title>NoOp654&#45;&gt;Block715</title>
<path fill="none" stroke="black" d="M227,-385.583C227,-372.135 227,-351.017 227,-331.681"/>
<polygon fill="black" stroke="black" points="230.5,-331.484 227,-321.484 223.5,-331.484 230.5,-331.484"/>
<text text-anchor="middle" x="248.5" y="-353" font-family="Times,serif" font-size="10.00">cifg_lstm</text>
<text text-anchor="middle" x="248.5" y="-342" font-family="Times,serif" font-size="10.00">[#,*](128,)</text>
</g>
<!-- Block632 -->
<g id="node7" class="node"><title>Block632</title>
<polygon fill="lightgray" stroke="black" stroke-width="4" points="492,-552 398,-552 398,-480 492,-480 492,-552"/>
<text text-anchor="middle" x="445" y="-512.9" font-family="Times,serif" font-size="12.00">LSTM</text>
</g>
<!-- Block632&#45;&gt;NoOp654 -->
<g id="edge6" class="edge"><title>Block632&#45;&gt;NoOp654</title>
<path fill="none" stroke="black" d="M397.837,-511.583C357.427,-506.476 299.64,-493.744 260,-462 247.915,-452.322 239.615,-436.969 234.362,-424.152"/>
<polygon fill="black" stroke="black" points="237.563,-422.718 230.788,-414.573 231.005,-425.165 237.563,-422.718"/>
<text text-anchor="middle" x="303" y="-454" font-family="Times,serif" font-size="10.00">Block632_Output_0</text>
<text text-anchor="middle" x="303" y="-443" font-family="Times,serif" font-size="10.00">[#,*](128,)</text>
</g>
<!-- PastValue570 -->
<g id="node11" class="node"><title>PastValue570</title>
<polygon fill="lightgray" stroke="black" stroke-width="4" points="729.5,-422 664.5,-422 664.5,-379 729.5,-379 729.5,-422"/>
<text text-anchor="middle" x="697" y="-397.4" font-family="Times,serif" font-size="12.00">PastValue</text>
</g>
<!-- Block632&#45;&gt;PastValue570 -->
<g id="edge13" class="edge"><title>Block632&#45;&gt;PastValue570</title>
<path fill="none" stroke="black" d="M492.203,-509.474C551.362,-501.663 648.26,-485.655 675,-462 683.627,-454.368 688.874,-443.075 692.063,-432.307"/>
<polygon fill="black" stroke="black" points="695.54,-432.826 694.534,-422.279 688.743,-431.151 695.54,-432.826"/>
<text text-anchor="middle" x="732" y="-454" font-family="Times,serif" font-size="10.00">Block632_Output_0</text>
<text text-anchor="middle" x="732" y="-443" font-family="Times,serif" font-size="10.00">[#,*](128,)</text>
</g>
<!-- PastValue573 -->
<g id="node12" class="node"><title>PastValue573</title>
<polygon fill="lightgray" stroke="black" stroke-width="4" points="477.5,-422 412.5,-422 412.5,-379 477.5,-379 477.5,-422"/>
<text text-anchor="middle" x="445" y="-397.4" font-family="Times,serif" font-size="12.00">PastValue</text>
</g>
<!-- Block632&#45;&gt;PastValue573 -->
<g id="edge15" class="edge"><title>Block632&#45;&gt;PastValue573</title>
<path fill="none" stroke="black" d="M397.89,-497.969C368.524,-484.546 339.093,-464.106 355,-440 365.662,-423.843 384.654,-414.442 402.452,-408.983"/>
<polygon fill="black" stroke="black" points="403.429,-412.345 412.157,-406.338 401.588,-405.591 403.429,-412.345"/>
<text text-anchor="middle" x="398" y="-454" font-family="Times,serif" font-size="10.00">Block632_Output_1</text>
<text text-anchor="middle" x="398" y="-443" font-family="Times,serif" font-size="10.00">[#,*](128,)</text>
</g>
<!-- Parameter5 -->
<g id="node8" class="node"><title>Parameter5</title>
<polygon fill="lightgray" stroke="black" points="346,-667.5 274,-667.5 274,-624.5 346,-624.5 346,-667.5"/>
<text text-anchor="middle" x="310" y="-649.4" font-family="Times,serif" font-size="12.00">b</text>
<text text-anchor="middle" x="310" y="-636.4" font-family="Times,serif" font-size="12.00">(512,)</text>
</g>
<!-- Parameter5&#45;&gt;Block632 -->
<g id="edge7" class="edge"><title>Parameter5&#45;&gt;Block632</title>
<path fill="none" stroke="black" d="M331.69,-624.435C350.253,-606.835 377.566,-580.937 400.726,-558.979"/>
<polygon fill="black" stroke="black" points="403.234,-561.423 408.083,-552.003 398.418,-556.344 403.234,-561.423"/>
<text text-anchor="middle" x="397.5" y="-584" font-family="Times,serif" font-size="10.00">b</text>
<text text-anchor="middle" x="397.5" y="-573" font-family="Times,serif" font-size="10.00">(512,)</text>
</g>
<!-- Parameter6 -->
<g id="node9" class="node"><title>Parameter6</title>
<polygon fill="lightgray" stroke="black" points="436,-667.5 364,-667.5 364,-624.5 436,-624.5 436,-667.5"/>
<text text-anchor="middle" x="400" y="-649.4" font-family="Times,serif" font-size="12.00">W</text>
<text text-anchor="middle" x="400" y="-636.4" font-family="Times,serif" font-size="12.00">(69, 512)</text>
</g>
<!-- Parameter6&#45;&gt;Block632 -->
<g id="edge8" class="edge"><title>Parameter6&#45;&gt;Block632</title>
<path fill="none" stroke="black" d="M407.23,-624.435C413.176,-607.52 421.817,-582.943 429.334,-561.562"/>
<polygon fill="black" stroke="black" points="432.679,-562.598 432.694,-552.003 426.076,-560.276 432.679,-562.598"/>
<text text-anchor="middle" x="443.5" y="-584" font-family="Times,serif" font-size="10.00">W</text>
<text text-anchor="middle" x="443.5" y="-573" font-family="Times,serif" font-size="10.00">(69, 512)</text>
</g>
<!-- Parameter7 -->
<g id="node10" class="node"><title>Parameter7</title>
<polygon fill="lightgray" stroke="black" points="526,-667.5 454,-667.5 454,-624.5 526,-624.5 526,-667.5"/>
<text text-anchor="middle" x="490" y="-649.4" font-family="Times,serif" font-size="12.00">H</text>
<text text-anchor="middle" x="490" y="-636.4" font-family="Times,serif" font-size="12.00">(128, 512)</text>
</g>
<!-- Parameter7&#45;&gt;Block632 -->
<g id="edge9" class="edge"><title>Parameter7&#45;&gt;Block632</title>
<path fill="none" stroke="black" d="M483.752,-624.181C479.113,-609.059 472.492,-588.151 466,-570 465.031,-567.292 464.012,-564.515 462.966,-561.721"/>
<polygon fill="black" stroke="black" points="466.177,-560.319 459.341,-552.225 459.638,-562.816 466.177,-560.319"/>
<text text-anchor="middle" x="494.5" y="-584" font-family="Times,serif" font-size="10.00">H</text>
<text text-anchor="middle" x="494.5" y="-573" font-family="Times,serif" font-size="10.00">(128, 512)</text>
</g>
<!-- PastValue570&#45;&gt;Block632 -->
<g id="edge10" class="edge"><title>PastValue570&#45;&gt;Block632</title>
<path fill="none" stroke="black" d="M664.236,-407.245C637.979,-412.842 600.882,-423.04 572,-440 559.802,-447.163 560.535,-453.813 549,-462 534.357,-472.393 517.391,-481.941 501.464,-489.984"/>
<polygon fill="black" stroke="black" points="499.65,-486.976 492.232,-494.541 502.748,-493.253 499.65,-486.976"/>
<text text-anchor="middle" x="623.5" y="-454" font-family="Times,serif" font-size="10.00">PastValue570_Output_0</text>
<text text-anchor="middle" x="623.5" y="-443" font-family="Times,serif" font-size="10.00">[#,*](128,)</text>
</g>
<!-- PastValue573&#45;&gt;Block632 -->
<g id="edge11" class="edge"><title>PastValue573&#45;&gt;Block632</title>
<path fill="none" stroke="black" d="M445,-422.217C445,-435.497 445,-453.268 445,-469.702"/>
<polygon fill="black" stroke="black" points="441.5,-469.71 445,-479.71 448.5,-469.71 441.5,-469.71"/>
<text text-anchor="middle" x="496.5" y="-454" font-family="Times,serif" font-size="10.00">PastValue573_Output_0</text>
<text text-anchor="middle" x="496.5" y="-443" font-family="Times,serif" font-size="10.00">[#,*](128,)</text>
</g>
<!-- Input3 -->
<g id="node13" class="node"><title>Input3</title>
<polygon fill="lightgray" stroke="black" stroke-width="4" points="598.633,-610.099 601.701,-610.296 604.737,-610.591 607.729,-610.983 610.664,-611.471 613.532,-612.053 616.32,-612.729 619.018,-613.496 621.615,-614.352 624.103,-615.294 626.471,-616.321 628.713,-617.429 630.819,-618.616 632.784,-619.878 634.602,-621.211 636.268,-622.612 637.777,-624.077 639.126,-625.602 640.314,-627.184 641.338,-628.816 642.198,-630.496 642.895,-632.219 643.428,-633.979 643.799,-635.772 644.012,-637.593 644.07,-639.437 643.975,-641.299 643.733,-643.175 643.348,-645.057 642.826,-646.943 642.172,-648.825 641.392,-650.701 640.493,-652.563 639.481,-654.407 638.364,-656.228 637.147,-658.021 635.837,-659.781 634.442,-661.504 632.968,-663.184 631.421,-664.816 629.809,-666.398 628.136,-667.923 626.41,-669.388 624.635,-670.789 622.817,-672.122 620.961,-673.384 619.072,-674.571 617.154,-675.679 615.21,-676.706 613.245,-677.648 611.261,-678.504 609.262,-679.271 607.251,-679.947 605.228,-680.529 603.197,-681.017 601.16,-681.409 599.118,-681.704 597.072,-681.901 595.024,-682 592.976,-682 590.928,-681.901 588.882,-681.704 586.84,-681.409 584.803,-681.017 582.772,-680.529 580.749,-679.947 578.738,-679.271 576.739,-678.504 574.755,-677.648 572.79,-676.706 570.846,-675.679 568.928,-674.571 567.039,-673.384 565.183,-672.122 563.365,-670.789 561.59,-669.388 559.864,-667.923 558.191,-666.398 556.579,-664.816 555.032,-663.184 553.558,-661.504 552.163,-659.781 550.853,-658.021 549.636,-656.228 548.519,-654.407 547.507,-652.563 546.608,-650.701 545.828,-648.825 545.174,-646.943 544.652,-645.057 544.267,-643.175 544.025,-641.299 543.93,-639.437 543.988,-637.593 544.201,-635.772 544.572,-633.979 545.105,-632.219 545.802,-630.496 546.662,-628.816 547.686,-627.184 548.874,-625.602 550.223,-624.077 551.732,-622.612 553.398,-621.211 555.216,-619.878 557.181,-618.616 559.287,-617.429 561.529,-616.321 563.897,-615.294 566.385,-614.352 568.982,-613.496 571.68,-612.729 574.468,-612.053 577.336,-611.471 580.271,-610.983 583.263,-610.591 586.299,-610.296 589.367,-610.099 592.453,-610 595.547,-610 598.633,-610.099"/>
<text text-anchor="middle" x="594" y="-655.9" font-family="Times,serif" font-size="12.00">Input</text>
<text text-anchor="middle" x="594" y="-642.9" font-family="Times,serif" font-size="12.00">inputs</text>
<text text-anchor="middle" x="594" y="-629.9" font-family="Times,serif" font-size="12.00">[#,*](69,)</text>
</g>
<!-- Input3&#45;&gt;Block632 -->
<g id="edge12" class="edge"><title>Input3&#45;&gt;Block632</title>
<path fill="none" stroke="black" d="M565.98,-614.193C552.601,-600.127 536.039,-583.61 520,-570 513.931,-564.85 507.377,-559.693 500.758,-554.728"/>
<polygon fill="black" stroke="black" points="502.499,-551.664 492.37,-548.556 498.35,-557.302 502.499,-551.664"/>
<text text-anchor="middle" x="562" y="-584" font-family="Times,serif" font-size="10.00">inputs</text>
<text text-anchor="middle" x="562" y="-573" font-family="Times,serif" font-size="10.00">[#,*](69,)</text>
</g>
<!-- Constant96 -->
<g id="node14" class="node"><title>Constant96</title>
<polygon fill="white" stroke="white" points="859,-527 823,-527 823,-505 859,-505 859,-527"/>
<text text-anchor="middle" x="841" y="-512.9" font-family="Times,serif" font-size="12.00">[ 0.]</text>
</g>
<!-- Constant96&#45;&gt;PastValue570 -->
<g id="edge14" class="edge"><title>Constant96&#45;&gt;PastValue570</title>
<path fill="none" stroke="black" d="M847.419,-504.832C856.386,-489.196 869.974,-459.061 855,-440 840.861,-422.002 781.257,-411.359 739.447,-405.973"/>
<polygon fill="black" stroke="black" points="739.857,-402.498 729.504,-404.747 739,-409.445 739.857,-402.498"/>
<text text-anchor="middle" x="885" y="-454" font-family="Times,serif" font-size="10.00">Constant96</text>
<text text-anchor="middle" x="885" y="-443" font-family="Times,serif" font-size="10.00">(1,)</text>
</g>
<!-- Constant96&#45;&gt;PastValue573 -->
<g id="edge16" class="edge"><title>Constant96&#45;&gt;PastValue573</title>
<path fill="none" stroke="black" d="M833.985,-504.732C821.002,-486.057 793.253,-447.738 779,-440 766.353,-433.134 574.939,-413.995 487.723,-405.57"/>
<polygon fill="black" stroke="black" points="487.912,-402.072 477.623,-404.597 487.241,-409.039 487.912,-402.072"/>
<text text-anchor="middle" x="824" y="-454" font-family="Times,serif" font-size="10.00">Constant96</text>
<text text-anchor="middle" x="824" y="-443" font-family="Times,serif" font-size="10.00">(1,)</text>
</g>
</g>
</svg>
