<?xml version="1.0" encoding="UTF-8" standalone="no"?>
<!DOCTYPE svg PUBLIC "-//W3C//DTD SVG 1.1//EN"
 "http://www.w3.org/Graphics/SVG/1.1/DTD/svg11.dtd">
<!-- Generated by graphviz version 2.38.0 (20140413.2041)
 -->
<!-- Title: network_graph Pages: 1 -->
<svg width="490pt" height="589pt"
 viewBox="0.00 0.00 490.03 589.00" xmlns="http://www.w3.org/2000/svg" xmlns:xlink="http://www.w3.org/1999/xlink">
<g id="graph0" class="graph" transform="scale(1 1) rotate(0) translate(4 585)">
<title>network_graph</title>
<polygon fill="white" stroke="none" points="-4,4 -4,-585 486.035,-585 486.035,4 -4,4"/>
<!-- Block196 -->
<g id="node1" class="node"><title>Block196</title>
<polygon fill="lightgray" stroke="black" stroke-width="4" points="173,-191 79,-191 79,-119 173,-119 173,-191"/>
<text text-anchor="middle" x="126" y="-158.4" font-family="Times,serif" font-size="12.00">Dense</text>
<text text-anchor="middle" x="126" y="-145.4" font-family="Times,serif" font-size="12.00">y_out()</text>
</g>
<!-- Block196_Output_0 -->
<g id="node5" class="node"><title>Block196_Output_0</title>
<polygon fill="lightgray" stroke="black" stroke-width="4" points="130.633,-0.0986735 133.701,-0.29575 136.737,-0.590689 139.729,-0.982683 142.664,-1.47066 145.532,-2.05327 148.32,-2.72894 151.018,-3.49579 153.615,-4.35174 156.103,-5.29443 158.471,-6.32129 160.713,-7.42949 162.819,-8.616 164.784,-9.87757 166.602,-11.2107 168.268,-12.6119 169.777,-14.0771 171.126,-15.6024 172.314,-17.1836 173.338,-18.8164 174.198,-20.4963 174.895,-22.2187 175.428,-23.9788 175.799,-25.7719 176.012,-27.5931 176.07,-29.4373 175.975,-31.2994 175.733,-33.1745 175.348,-35.0573 174.826,-36.9427 174.172,-38.8255 173.392,-40.7006 172.493,-42.5627 171.481,-44.4069 170.364,-46.2281 169.147,-48.0212 167.837,-49.7813 166.442,-51.5037 164.968,-53.1836 163.421,-54.8164 161.809,-56.3976 160.136,-57.9229 158.41,-59.3881 156.635,-60.7893 154.817,-62.1224 152.961,-63.384 151.072,-64.5705 149.154,-65.6787 147.21,-66.7056 145.245,-67.6483 143.261,-68.5042 141.262,-69.2711 139.251,-69.9467 137.228,-70.5293 135.197,-71.0173 133.16,-71.4093 131.118,-71.7042 129.072,-71.9013 127.024,-72 124.976,-72 122.928,-71.9013 120.882,-71.7042 118.84,-71.4093 116.803,-71.0173 114.772,-70.5293 112.749,-69.9467 110.738,-69.2711 108.739,-68.5042 106.755,-67.6483 104.79,-66.7056 102.846,-65.6787 100.928,-64.5705 99.0386,-63.384 97.1827,-62.1224 95.3649,-60.7893 93.5901,-59.3881 91.8637,-57.9229 90.1912,-56.3976 88.5786,-54.8164 87.0321,-53.1836 85.5579,-51.5037 84.1628,-49.7813 82.8533,-48.0212 81.6363,-46.2281 80.5186,-44.4069 79.5069,-42.5627 78.608,-40.7006 77.8284,-38.8255 77.1743,-36.9427 76.652,-35.0573 76.267,-33.1745 76.0248,-31.2994 75.9302,-29.4373 75.9875,-27.5931 76.2005,-25.7719 76.5723,-23.9788 77.1055,-22.2187 77.8016,-20.4963 78.6616,-18.8164 79.6859,-17.1836 80.8735,-15.6024 82.2232,-14.0771 83.7324,-12.6119 85.398,-11.2107 87.2158,-9.87757 89.1809,-8.616 91.2873,-7.42949 93.5285,-6.32129 95.897,-5.29443 98.3845,-4.35174 100.982,-3.49579 103.68,-2.72894 106.468,-2.05327 109.336,-1.47066 112.271,-0.982683 115.263,-0.590689 118.299,-0.29575 121.367,-0.0986735 124.453,-3.62377e-13 127.547,-3.69482e-13 130.633,-0.0986735"/>
<text text-anchor="middle" x="126" y="-39.4" font-family="Times,serif" font-size="12.00">y_out</text>
<text text-anchor="middle" x="126" y="-26.4" font-family="Times,serif" font-size="12.00">[#](69,)</text>
</g>
<!-- Block196&#45;&gt;Block196_Output_0 -->
<g id="edge4" class="edge"><title>Block196&#45;&gt;Block196_Output_0</title>
<path fill="none" stroke="black" d="M126,-118.896C126,-107.327 126,-94.2965 126,-82.0893"/>
<polygon fill="black" stroke="black" points="129.5,-82.079 126,-72.0791 122.5,-82.0791 129.5,-82.079"/>
<text text-anchor="middle" x="141.5" y="-93" font-family="Times,serif" font-size="10.00">[#](69,)</text>
</g>
<!-- Parameter163 -->
<g id="node2" class="node"><title>Parameter163</title>
<polygon fill="lightgray" stroke="black" points="72,-306.5 0,-306.5 0,-263.5 72,-263.5 72,-306.5"/>
<text text-anchor="middle" x="36" y="-288.4" font-family="Times,serif" font-size="12.00">W</text>
<text text-anchor="middle" x="36" y="-275.4" font-family="Times,serif" font-size="12.00">(256, 69)</text>
</g>
<!-- Parameter163&#45;&gt;Block196 -->
<g id="edge1" class="edge"><title>Parameter163&#45;&gt;Block196</title>
<path fill="none" stroke="black" d="M48.8775,-263.332C58.5176,-248.101 72.193,-226.994 85,-209 87.2872,-205.786 89.6878,-202.494 92.1316,-199.201"/>
<polygon fill="black" stroke="black" points="95.0435,-201.152 98.2553,-191.056 89.4484,-196.946 95.0435,-201.152"/>
<text text-anchor="middle" x="103.5" y="-223" font-family="Times,serif" font-size="10.00">W</text>
<text text-anchor="middle" x="103.5" y="-212" font-family="Times,serif" font-size="10.00">(256, 69)</text>
</g>
<!-- Parameter164 -->
<g id="node3" class="node"><title>Parameter164</title>
<polygon fill="lightgray" stroke="black" points="162,-306.5 90,-306.5 90,-263.5 162,-263.5 162,-306.5"/>
<text text-anchor="middle" x="126" y="-288.4" font-family="Times,serif" font-size="12.00">b</text>
<text text-anchor="middle" x="126" y="-275.4" font-family="Times,serif" font-size="12.00">(69,)</text>
</g>
<!-- Parameter164&#45;&gt;Block196 -->
<g id="edge2" class="edge"><title>Parameter164&#45;&gt;Block196</title>
<path fill="none" stroke="black" d="M126,-263.435C126,-246.673 126,-222.385 126,-201.141"/>
<polygon fill="black" stroke="black" points="129.5,-201.003 126,-191.003 122.5,-201.003 129.5,-201.003"/>
<text text-anchor="middle" x="135.5" y="-223" font-family="Times,serif" font-size="10.00">b</text>
<text text-anchor="middle" x="135.5" y="-212" font-family="Times,serif" font-size="10.00">(69,)</text>
</g>
<!-- Block140 -->
<g id="node4" class="node"><title>Block140</title>
<polygon fill="lightgray" stroke="black" stroke-width="4" points="274,-321 180,-321 180,-249 274,-249 274,-321"/>
<text text-anchor="middle" x="227" y="-281.9" font-family="Times,serif" font-size="12.00">Dense</text>
</g>
<!-- Block140&#45;&gt;Block196 -->
<g id="edge3" class="edge"><title>Block140&#45;&gt;Block196</title>
<path fill="none" stroke="black" d="M199.134,-248.685C187.101,-233.435 172.907,-215.446 160.24,-199.393"/>
<polygon fill="black" stroke="black" points="162.717,-196.882 153.775,-191.2 157.222,-201.219 162.717,-196.882"/>
<text text-anchor="middle" x="225" y="-223" font-family="Times,serif" font-size="10.00">Block140_Output_0</text>
<text text-anchor="middle" x="225" y="-212" font-family="Times,serif" font-size="10.00">[#](256,)</text>
</g>
<!-- Parameter25 -->
<g id="node6" class="node"><title>Parameter25</title>
<polygon fill="lightgray" stroke="black" points="173,-436.5 101,-436.5 101,-393.5 173,-393.5 173,-436.5"/>
<text text-anchor="middle" x="137" y="-418.4" font-family="Times,serif" font-size="12.00">W</text>
<text text-anchor="middle" x="137" y="-405.4" font-family="Times,serif" font-size="12.00">(256, 256)</text>
</g>
<!-- Parameter25&#45;&gt;Block140 -->
<g id="edge5" class="edge"><title>Parameter25&#45;&gt;Block140</title>
<path fill="none" stroke="black" d="M147.418,-393.25C155.527,-377.79 167.476,-356.43 180,-339 182.422,-335.629 185.022,-332.226 187.711,-328.858"/>
<polygon fill="black" stroke="black" points="190.451,-331.037 194.107,-321.092 185.048,-326.586 190.451,-331.037"/>
<text text-anchor="middle" x="201.5" y="-353" font-family="Times,serif" font-size="10.00">W</text>
<text text-anchor="middle" x="201.5" y="-342" font-family="Times,serif" font-size="10.00">(256, 256)</text>
</g>
<!-- Parameter26 -->
<g id="node7" class="node"><title>Parameter26</title>
<polygon fill="lightgray" stroke="black" points="263,-436.5 191,-436.5 191,-393.5 263,-393.5 263,-436.5"/>
<text text-anchor="middle" x="227" y="-418.4" font-family="Times,serif" font-size="12.00">b</text>
<text text-anchor="middle" x="227" y="-405.4" font-family="Times,serif" font-size="12.00">(256,)</text>
</g>
<!-- Parameter26&#45;&gt;Block140 -->
<g id="edge6" class="edge"><title>Parameter26&#45;&gt;Block140</title>
<path fill="none" stroke="black" d="M227,-393.435C227,-376.673 227,-352.385 227,-331.141"/>
<polygon fill="black" stroke="black" points="230.5,-331.003 227,-321.003 223.5,-331.003 230.5,-331.003"/>
<text text-anchor="middle" x="239.5" y="-353" font-family="Times,serif" font-size="10.00">b</text>
<text text-anchor="middle" x="239.5" y="-342" font-family="Times,serif" font-size="10.00">(256,)</text>
</g>
<!-- Block122 -->
<g id="node8" class="node"><title>Block122</title>
<polygon fill="lightgray" stroke="black" stroke-width="4" points="375,-451 281,-451 281,-379 375,-379 375,-451"/>
<text text-anchor="middle" x="328" y="-411.9" font-family="Times,serif" font-size="12.00">Dense</text>
</g>
<!-- Block122&#45;&gt;Block140 -->
<g id="edge7" class="edge"><title>Block122&#45;&gt;Block140</title>
<path fill="none" stroke="black" d="M300.134,-378.685C288.101,-363.435 273.907,-345.446 261.24,-329.393"/>
<polygon fill="black" stroke="black" points="263.717,-326.882 254.775,-321.2 258.222,-331.219 263.717,-326.882"/>
<text text-anchor="middle" x="326" y="-353" font-family="Times,serif" font-size="10.00">Block122_Output_0</text>
<text text-anchor="middle" x="326" y="-342" font-family="Times,serif" font-size="10.00">[#](256,)</text>
</g>
<!-- Parameter5 -->
<g id="node9" class="node"><title>Parameter5</title>
<polygon fill="lightgray" stroke="black" points="274,-566.5 202,-566.5 202,-523.5 274,-523.5 274,-566.5"/>
<text text-anchor="middle" x="238" y="-548.4" font-family="Times,serif" font-size="12.00">W</text>
<text text-anchor="middle" x="238" y="-535.4" font-family="Times,serif" font-size="12.00">(138, 256)</text>
</g>
<!-- Parameter5&#45;&gt;Block122 -->
<g id="edge8" class="edge"><title>Parameter5&#45;&gt;Block122</title>
<path fill="none" stroke="black" d="M248.418,-523.25C256.527,-507.79 268.476,-486.43 281,-469 283.422,-465.629 286.022,-462.226 288.711,-458.858"/>
<polygon fill="black" stroke="black" points="291.451,-461.037 295.107,-451.092 286.048,-456.586 291.451,-461.037"/>
<text text-anchor="middle" x="302.5" y="-483" font-family="Times,serif" font-size="10.00">W</text>
<text text-anchor="middle" x="302.5" y="-472" font-family="Times,serif" font-size="10.00">(138, 256)</text>
</g>
<!-- Parameter6 -->
<g id="node10" class="node"><title>Parameter6</title>
<polygon fill="lightgray" stroke="black" points="364,-566.5 292,-566.5 292,-523.5 364,-523.5 364,-566.5"/>
<text text-anchor="middle" x="328" y="-548.4" font-family="Times,serif" font-size="12.00">b</text>
<text text-anchor="middle" x="328" y="-535.4" font-family="Times,serif" font-size="12.00">(256,)</text>
</g>
<!-- Parameter6&#45;&gt;Block122 -->
<g id="edge9" class="edge"><title>Parameter6&#45;&gt;Block122</title>
<path fill="none" stroke="black" d="M328,-523.435C328,-506.673 328,-482.385 328,-461.141"/>
<polygon fill="black" stroke="black" points="331.5,-461.003 328,-451.003 324.5,-461.003 331.5,-461.003"/>
<text text-anchor="middle" x="340.5" y="-483" font-family="Times,serif" font-size="10.00">b</text>
<text text-anchor="middle" x="340.5" y="-472" font-family="Times,serif" font-size="10.00">(256,)</text>
</g>
<!-- Input3 -->
<g id="node11" class="node"><title>Input3</title>
<polygon fill="lightgray" stroke="black" stroke-width="4" points="436.633,-509.099 439.701,-509.296 442.737,-509.591 445.729,-509.983 448.664,-510.471 451.532,-511.053 454.32,-511.729 457.018,-512.496 459.615,-513.352 462.103,-514.294 464.471,-515.321 466.713,-516.429 468.819,-517.616 470.784,-518.878 472.602,-520.211 474.268,-521.612 475.777,-523.077 477.126,-524.602 478.314,-526.184 479.338,-527.816 480.198,-529.496 480.895,-531.219 481.428,-532.979 481.799,-534.772 482.012,-536.593 482.07,-538.437 481.975,-540.299 481.733,-542.175 481.348,-544.057 480.826,-545.943 480.172,-547.825 479.392,-549.701 478.493,-551.563 477.481,-553.407 476.364,-555.228 475.147,-557.021 473.837,-558.781 472.442,-560.504 470.968,-562.184 469.421,-563.816 467.809,-565.398 466.136,-566.923 464.41,-568.388 462.635,-569.789 460.817,-571.122 458.961,-572.384 457.072,-573.571 455.154,-574.679 453.21,-575.706 451.245,-576.648 449.261,-577.504 447.262,-578.271 445.251,-578.947 443.228,-579.529 441.197,-580.017 439.16,-580.409 437.118,-580.704 435.072,-580.901 433.024,-581 430.976,-581 428.928,-580.901 426.882,-580.704 424.84,-580.409 422.803,-580.017 420.772,-579.529 418.749,-578.947 416.738,-578.271 414.739,-577.504 412.755,-576.648 410.79,-575.706 408.846,-574.679 406.928,-573.571 405.039,-572.384 403.183,-571.122 401.365,-569.789 399.59,-568.388 397.864,-566.923 396.191,-565.398 394.579,-563.816 393.032,-562.184 391.558,-560.504 390.163,-558.781 388.853,-557.021 387.636,-555.228 386.519,-553.407 385.507,-551.563 384.608,-549.701 383.828,-547.825 383.174,-545.943 382.652,-544.057 382.267,-542.175 382.025,-540.299 381.93,-538.437 381.988,-536.593 382.201,-534.772 382.572,-532.979 383.105,-531.219 383.802,-529.496 384.662,-527.816 385.686,-526.184 386.874,-524.602 388.223,-523.077 389.732,-521.612 391.398,-520.211 393.216,-518.878 395.181,-517.616 397.287,-516.429 399.529,-515.321 401.897,-514.294 404.385,-513.352 406.982,-512.496 409.68,-511.729 412.468,-511.053 415.336,-510.471 418.271,-509.983 421.263,-509.591 424.299,-509.296 427.367,-509.099 430.453,-509 433.547,-509 436.633,-509.099"/>
<text text-anchor="middle" x="432" y="-554.9" font-family="Times,serif" font-size="12.00">Input</text>
<text text-anchor="middle" x="432" y="-541.9" font-family="Times,serif" font-size="12.00">inputs</text>
<text text-anchor="middle" x="432" y="-528.9" font-family="Times,serif" font-size="12.00">[#](138,)</text>
</g>
<!-- Input3&#45;&gt;Block122 -->
<g id="edge10" class="edge"><title>Input3&#45;&gt;Block122</title>
<path fill="none" stroke="black" d="M406.292,-512.36C393.252,-496.31 377.217,-476.575 363.063,-459.154"/>
<polygon fill="black" stroke="black" points="365.731,-456.888 356.709,-451.334 360.298,-461.302 365.731,-456.888"/>
<text text-anchor="middle" x="404" y="-483" font-family="Times,serif" font-size="10.00">inputs</text>
<text text-anchor="middle" x="404" y="-472" font-family="Times,serif" font-size="10.00">[#](138,)</text>
</g>
</g>
</svg>
