<?xml version="1.0" encoding="UTF-8" standalone="no"?>
<!DOCTYPE svg PUBLIC "-//W3C//DTD SVG 1.1//EN"
 "http://www.w3.org/Graphics/SVG/1.1/DTD/svg11.dtd">
<!-- Generated by graphviz version 2.38.0 (20140413.2041)
 -->
<!-- Title: network_graph Pages: 1 -->
<svg width="1163pt" height="1095pt"
 viewBox="0.00 0.00 1163.00 1095.00" xmlns="http://www.w3.org/2000/svg" xmlns:xlink="http://www.w3.org/1999/xlink">
<g id="graph0" class="graph" transform="scale(1 1) rotate(0) translate(4 1091)">
<title>network_graph</title>
<polygon fill="white" stroke="none" points="-4,4 -4,-1091 1159,-1091 1159,4 -4,4"/>
<!-- Block1286 -->
<g id="node1" class="node"><title>Block1286</title>
<polygon fill="lightgray" stroke="black" stroke-width="4" points="173,-191 79,-191 79,-119 173,-119 173,-191"/>
<text text-anchor="middle" x="126" y="-151.9" font-family="Times,serif" font-size="12.00">Dense</text>
</g>
<!-- Block1286_Output_0 -->
<g id="node5" class="node"><title>Block1286_Output_0</title>
<polygon fill="lightgray" stroke="black" stroke-width="4" points="130.633,-0.0986735 133.701,-0.29575 136.737,-0.590689 139.729,-0.982683 142.664,-1.47066 145.532,-2.05327 148.32,-2.72894 151.018,-3.49579 153.615,-4.35174 156.103,-5.29443 158.471,-6.32129 160.713,-7.42949 162.819,-8.616 164.784,-9.87757 166.602,-11.2107 168.268,-12.6119 169.777,-14.0771 171.126,-15.6024 172.314,-17.1836 173.338,-18.8164 174.198,-20.4963 174.895,-22.2187 175.428,-23.9788 175.799,-25.7719 176.012,-27.5931 176.07,-29.4373 175.975,-31.2994 175.733,-33.1745 175.348,-35.0573 174.826,-36.9427 174.172,-38.8255 173.392,-40.7006 172.493,-42.5627 171.481,-44.4069 170.364,-46.2281 169.147,-48.0212 167.837,-49.7813 166.442,-51.5037 164.968,-53.1836 163.421,-54.8164 161.809,-56.3976 160.136,-57.9229 158.41,-59.3881 156.635,-60.7893 154.817,-62.1224 152.961,-63.384 151.072,-64.5705 149.154,-65.6787 147.21,-66.7056 145.245,-67.6483 143.261,-68.5042 141.262,-69.2711 139.251,-69.9467 137.228,-70.5293 135.197,-71.0173 133.16,-71.4093 131.118,-71.7042 129.072,-71.9013 127.024,-72 124.976,-72 122.928,-71.9013 120.882,-71.7042 118.84,-71.4093 116.803,-71.0173 114.772,-70.5293 112.749,-69.9467 110.738,-69.2711 108.739,-68.5042 106.755,-67.6483 104.79,-66.7056 102.846,-65.6787 100.928,-64.5705 99.0386,-63.384 97.1827,-62.1224 95.3649,-60.7893 93.5901,-59.3881 91.8637,-57.9229 90.1912,-56.3976 88.5786,-54.8164 87.0321,-53.1836 85.5579,-51.5037 84.1628,-49.7813 82.8533,-48.0212 81.6363,-46.2281 80.5186,-44.4069 79.5069,-42.5627 78.608,-40.7006 77.8284,-38.8255 77.1743,-36.9427 76.652,-35.0573 76.267,-33.1745 76.0248,-31.2994 75.9302,-29.4373 75.9875,-27.5931 76.2005,-25.7719 76.5723,-23.9788 77.1055,-22.2187 77.8016,-20.4963 78.6616,-18.8164 79.6859,-17.1836 80.8735,-15.6024 82.2232,-14.0771 83.7324,-12.6119 85.398,-11.2107 87.2158,-9.87757 89.1809,-8.616 91.2873,-7.42949 93.5285,-6.32129 95.897,-5.29443 98.3845,-4.35174 100.982,-3.49579 103.68,-2.72894 106.468,-2.05327 109.336,-1.47066 112.271,-0.982683 115.263,-0.590689 118.299,-0.29575 121.367,-0.0986735 124.453,-3.62377e-13 127.547,-3.69482e-13 130.633,-0.0986735"/>
<text text-anchor="middle" x="126" y="-25.9" font-family="Times,serif" font-size="12.00">[#](69,)</text>
</g>
<!-- Block1286&#45;&gt;Block1286_Output_0 -->
<g id="edge4" class="edge"><title>Block1286&#45;&gt;Block1286_Output_0</title>
<path fill="none" stroke="black" d="M126,-118.896C126,-107.327 126,-94.2965 126,-82.0893"/>
<polygon fill="black" stroke="black" points="129.5,-82.079 126,-72.0791 122.5,-82.0791 129.5,-82.079"/>
<text text-anchor="middle" x="141.5" y="-93" font-family="Times,serif" font-size="10.00">[#](69,)</text>
</g>
<!-- Parameter1253 -->
<g id="node2" class="node"><title>Parameter1253</title>
<polygon fill="lightgray" stroke="black" points="72,-306.5 0,-306.5 0,-263.5 72,-263.5 72,-306.5"/>
<text text-anchor="middle" x="36" y="-288.4" font-family="Times,serif" font-size="12.00">W</text>
<text text-anchor="middle" x="36" y="-275.4" font-family="Times,serif" font-size="12.00">(512, 69)</text>
</g>
<!-- Parameter1253&#45;&gt;Block1286 -->
<g id="edge1" class="edge"><title>Parameter1253&#45;&gt;Block1286</title>
<path fill="none" stroke="black" d="M48.8775,-263.332C58.5176,-248.101 72.193,-226.994 85,-209 87.2872,-205.786 89.6878,-202.494 92.1316,-199.201"/>
<polygon fill="black" stroke="black" points="95.0435,-201.152 98.2553,-191.056 89.4484,-196.946 95.0435,-201.152"/>
<text text-anchor="middle" x="103.5" y="-223" font-family="Times,serif" font-size="10.00">W</text>
<text text-anchor="middle" x="103.5" y="-212" font-family="Times,serif" font-size="10.00">(512, 69)</text>
</g>
<!-- Parameter1254 -->
<g id="node3" class="node"><title>Parameter1254</title>
<polygon fill="lightgray" stroke="black" points="162,-306.5 90,-306.5 90,-263.5 162,-263.5 162,-306.5"/>
<text text-anchor="middle" x="126" y="-288.4" font-family="Times,serif" font-size="12.00">b</text>
<text text-anchor="middle" x="126" y="-275.4" font-family="Times,serif" font-size="12.00">(69,)</text>
</g>
<!-- Parameter1254&#45;&gt;Block1286 -->
<g id="edge2" class="edge"><title>Parameter1254&#45;&gt;Block1286</title>
<path fill="none" stroke="black" d="M126,-263.435C126,-246.673 126,-222.385 126,-201.141"/>
<polygon fill="black" stroke="black" points="129.5,-201.003 126,-191.003 122.5,-201.003 129.5,-201.003"/>
<text text-anchor="middle" x="135.5" y="-223" font-family="Times,serif" font-size="10.00">b</text>
<text text-anchor="middle" x="135.5" y="-212" font-family="Times,serif" font-size="10.00">(69,)</text>
</g>
<!-- Block1244 -->
<g id="node4" class="node"><title>Block1244</title>
<polygon fill="lightgray" stroke="black" stroke-width="4" points="274,-321 180,-321 180,-249 274,-249 274,-321"/>
<text text-anchor="middle" x="227" y="-281.9" font-family="Times,serif" font-size="12.00">Sequence::Slice</text>
</g>
<!-- Block1244&#45;&gt;Block1286 -->
<g id="edge3" class="edge"><title>Block1244&#45;&gt;Block1286</title>
<path fill="none" stroke="black" d="M199.134,-248.685C187.101,-233.435 172.907,-215.446 160.24,-199.393"/>
<polygon fill="black" stroke="black" points="162.717,-196.882 153.775,-191.2 157.222,-201.219 162.717,-196.882"/>
<text text-anchor="middle" x="228.5" y="-223" font-family="Times,serif" font-size="10.00">Block1244_Output_0</text>
<text text-anchor="middle" x="228.5" y="-212" font-family="Times,serif" font-size="10.00">[#](512,)</text>
</g>
<!-- Plus1223 -->
<g id="node6" class="node"><title>Plus1223</title>
<ellipse fill="lightgray" stroke="black" stroke-width="4" cx="227" cy="-393.5" rx="14.5" ry="14.5"/>
<text text-anchor="middle" x="227" y="-388.5" font-family="Times,serif" font-size="20.00">+</text>
</g>
<!-- Plus1223&#45;&gt;Block1244 -->
<g id="edge5" class="edge"><title>Plus1223&#45;&gt;Block1244</title>
<path fill="none" stroke="black" d="M227,-378.577C227,-366.53 227,-348.417 227,-331.397"/>
<polygon fill="black" stroke="black" points="230.5,-331.006 227,-321.006 223.5,-331.006 230.5,-331.006"/>
<text text-anchor="middle" x="269" y="-353" font-family="Times,serif" font-size="10.00">Plus1223_Output_0</text>
<text text-anchor="middle" x="269" y="-342" font-family="Times,serif" font-size="10.00">[#,*](512,)</text>
</g>
<!-- ElementTimes1220 -->
<g id="node7" class="node"><title>ElementTimes1220</title>
<ellipse fill="lightgray" stroke="black" stroke-width="4" cx="157" cy="-480.5" rx="14.5" ry="14.5"/>
<text text-anchor="middle" x="157" y="-475.5" font-family="Times,serif" font-size="20.00">*</text>
</g>
<!-- ElementTimes1220&#45;&gt;Plus1223 -->
<g id="edge6" class="edge"><title>ElementTimes1220&#45;&gt;Plus1223</title>
<path fill="none" stroke="black" d="M153.526,-466.031C151.354,-454.454 150.254,-437.807 158,-426 167.919,-410.881 187.048,-402.919 202.654,-398.785"/>
<polygon fill="black" stroke="black" points="203.763,-402.122 212.739,-396.494 202.212,-395.296 203.763,-402.122"/>
<text text-anchor="middle" x="220.5" y="-440" font-family="Times,serif" font-size="10.00">ElementTimes1220_Output_0</text>
<text text-anchor="middle" x="220.5" y="-429" font-family="Times,serif" font-size="10.00">[#,*](512,)</text>
</g>
<!-- NoOp546 -->
<g id="node8" class="node"><title>NoOp546</title>
<ellipse fill="lightgray" stroke="black" stroke-width="4" cx="387" cy="-805.5" rx="14.5" ry="14.5"/>
<text text-anchor="middle" x="387" y="-802.4" font-family="Times,serif" font-size="12.00">NoOp</text>
</g>
<!-- NoOp546&#45;&gt;Plus1223 -->
<g id="edge7" class="edge"><title>NoOp546&#45;&gt;Plus1223</title>
<path fill="none" stroke="black" d="M374.862,-797.087C350.296,-781.048 297,-740.542 297,-691 297,-691 297,-691 297,-479.5 297,-454.922 298.015,-445.459 283,-426 274.673,-415.208 261.535,-407.541 250.077,-402.475"/>
<polygon fill="black" stroke="black" points="251.188,-399.15 240.603,-398.68 248.584,-405.648 251.188,-399.15"/>
<text text-anchor="middle" x="319" y="-577.5" font-family="Times,serif" font-size="10.00">basic_lstm</text>
<text text-anchor="middle" x="319" y="-566.5" font-family="Times,serif" font-size="10.00">[#,*](512,)</text>
</g>
<!-- Block1109 -->
<g id="node11" class="node"><title>Block1109</title>
<polygon fill="lightgray" stroke="black" stroke-width="4" points="593,-726 499,-726 499,-654 593,-654 593,-726"/>
<text text-anchor="middle" x="546" y="-686.9" font-family="Times,serif" font-size="12.00">LSTM</text>
</g>
<!-- NoOp546&#45;&gt;Block1109 -->
<g id="edge16" class="edge"><title>NoOp546&#45;&gt;Block1109</title>
<path fill="none" stroke="black" d="M394.9,-793.051C404.409,-779.912 421.432,-758.337 440,-744 454.977,-732.435 472.874,-722.34 489.66,-714.15"/>
<polygon fill="black" stroke="black" points="491.306,-717.243 498.845,-709.799 488.309,-710.917 491.306,-717.243"/>
<text text-anchor="middle" x="462" y="-758" font-family="Times,serif" font-size="10.00">basic_lstm</text>
<text text-anchor="middle" x="462" y="-747" font-family="Times,serif" font-size="10.00">[#,*](512,)</text>
</g>
<!-- Constant1219 -->
<g id="node9" class="node"><title>Constant1219</title>
<polygon fill="white" stroke="white" points="173,-585.5 141,-585.5 141,-563.5 173,-563.5 173,-585.5"/>
<text text-anchor="middle" x="157" y="-571.4" font-family="Times,serif" font-size="12.00">0.3</text>
</g>
<!-- Constant1219&#45;&gt;ElementTimes1220 -->
<g id="edge8" class="edge"><title>Constant1219&#45;&gt;ElementTimes1220</title>
<path fill="none" stroke="black" d="M157,-563.303C157,-549.38 157,-524.006 157,-505.196"/>
<polygon fill="black" stroke="black" points="160.5,-505.016 157,-495.016 153.5,-505.016 160.5,-505.016"/>
<text text-anchor="middle" x="186" y="-527" font-family="Times,serif" font-size="10.00">Constant1219</text>
<text text-anchor="middle" x="186" y="-516" font-family="Times,serif" font-size="10.00">()</text>
</g>
<!-- NoOp1132 -->
<g id="node10" class="node"><title>NoOp1132</title>
<ellipse fill="lightgray" stroke="black" stroke-width="4" cx="374" cy="-574.5" rx="14.5" ry="14.5"/>
<text text-anchor="middle" x="374" y="-571.4" font-family="Times,serif" font-size="12.00">NoOp</text>
</g>
<!-- NoOp1132&#45;&gt;ElementTimes1220 -->
<g id="edge9" class="edge"><title>NoOp1132&#45;&gt;ElementTimes1220</title>
<path fill="none" stroke="black" d="M363.131,-564.829C357.859,-560.886 351.313,-556.362 345,-553 288.616,-522.97 216.811,-499.347 180.419,-488.309"/>
<polygon fill="black" stroke="black" points="181.309,-484.922 170.726,-485.414 179.306,-491.629 181.309,-484.922"/>
<text text-anchor="middle" x="328" y="-527" font-family="Times,serif" font-size="10.00">basic_lstm</text>
<text text-anchor="middle" x="328" y="-516" font-family="Times,serif" font-size="10.00">[#,*](512,)</text>
</g>
<!-- Block1109&#45;&gt;NoOp1132 -->
<g id="edge10" class="edge"><title>Block1109&#45;&gt;NoOp1132</title>
<path fill="none" stroke="black" d="M498.813,-681.439C451.576,-672.793 383.708,-657.067 368,-636 359.916,-625.158 361.427,-610.014 364.953,-597.59"/>
<polygon fill="black" stroke="black" points="368.326,-598.542 368.223,-587.948 361.697,-596.294 368.326,-598.542"/>
<text text-anchor="middle" x="413.5" y="-628" font-family="Times,serif" font-size="10.00">Block1109_Output_0</text>
<text text-anchor="middle" x="413.5" y="-617" font-family="Times,serif" font-size="10.00">[#,*](512,)</text>
</g>
<!-- PastValue1044 -->
<g id="node15" class="node"><title>PastValue1044</title>
<polygon fill="lightgray" stroke="black" stroke-width="4" points="933.5,-596 868.5,-596 868.5,-553 933.5,-553 933.5,-596"/>
<text text-anchor="middle" x="901" y="-571.4" font-family="Times,serif" font-size="12.00">PastValue</text>
</g>
<!-- Block1109&#45;&gt;PastValue1044 -->
<g id="edge17" class="edge"><title>Block1109&#45;&gt;PastValue1044</title>
<path fill="none" stroke="black" d="M593.26,-674.481C619.952,-665.305 653.392,-652.135 681,-636 694.364,-628.189 693.997,-620.597 708,-614 756.479,-591.159 818.002,-581.855 858.387,-578.073"/>
<polygon fill="black" stroke="black" points="858.768,-581.554 868.43,-577.206 858.166,-574.579 858.768,-581.554"/>
<text text-anchor="middle" x="753.5" y="-628" font-family="Times,serif" font-size="10.00">Block1109_Output_0</text>
<text text-anchor="middle" x="753.5" y="-617" font-family="Times,serif" font-size="10.00">[#,*](512,)</text>
</g>
<!-- PastValue1047 -->
<g id="node16" class="node"><title>PastValue1047</title>
<polygon fill="lightgray" stroke="black" stroke-width="4" points="612.5,-596 547.5,-596 547.5,-553 612.5,-553 612.5,-596"/>
<text text-anchor="middle" x="580" y="-571.4" font-family="Times,serif" font-size="12.00">PastValue</text>
</g>
<!-- Block1109&#45;&gt;PastValue1047 -->
<g id="edge19" class="edge"><title>Block1109&#45;&gt;PastValue1047</title>
<path fill="none" stroke="black" d="M498.95,-668.018C474.421,-654.044 452.306,-634.53 467,-614 482.956,-591.707 512.592,-582.173 537.511,-578.164"/>
<polygon fill="black" stroke="black" points="538.058,-581.622 547.494,-576.803 537.112,-574.686 538.058,-581.622"/>
<text text-anchor="middle" x="512.5" y="-628" font-family="Times,serif" font-size="10.00">Block1109_Output_1</text>
<text text-anchor="middle" x="512.5" y="-617" font-family="Times,serif" font-size="10.00">[#,*](512,)</text>
</g>
<!-- Parameter591 -->
<g id="node12" class="node"><title>Parameter591</title>
<polygon fill="lightgray" stroke="black" points="492,-827 420,-827 420,-784 492,-784 492,-827"/>
<text text-anchor="middle" x="456" y="-808.9" font-family="Times,serif" font-size="12.00">b</text>
<text text-anchor="middle" x="456" y="-795.9" font-family="Times,serif" font-size="12.00">(2048,)</text>
</g>
<!-- Parameter591&#45;&gt;Block1109 -->
<g id="edge11" class="edge"><title>Parameter591&#45;&gt;Block1109</title>
<path fill="none" stroke="black" d="M472.298,-783.946C483.268,-770.112 498.144,-751.352 511.659,-734.308"/>
<polygon fill="black" stroke="black" points="514.69,-736.118 518.161,-726.108 509.205,-731.769 514.69,-736.118"/>
<text text-anchor="middle" x="519" y="-758" font-family="Times,serif" font-size="10.00">b</text>
<text text-anchor="middle" x="519" y="-747" font-family="Times,serif" font-size="10.00">(2048,)</text>
</g>
<!-- Parameter592 -->
<g id="node13" class="node"><title>Parameter592</title>
<polygon fill="lightgray" stroke="black" points="582,-827 510,-827 510,-784 582,-784 582,-827"/>
<text text-anchor="middle" x="546" y="-808.9" font-family="Times,serif" font-size="12.00">W</text>
<text text-anchor="middle" x="546" y="-795.9" font-family="Times,serif" font-size="12.00">(512, 2048)</text>
</g>
<!-- Parameter592&#45;&gt;Block1109 -->
<g id="edge12" class="edge"><title>Parameter592&#45;&gt;Block1109</title>
<path fill="none" stroke="black" d="M546,-783.946C546,-770.615 546,-752.71 546,-736.174"/>
<polygon fill="black" stroke="black" points="549.5,-736.108 546,-726.108 542.5,-736.108 549.5,-736.108"/>
<text text-anchor="middle" x="570" y="-758" font-family="Times,serif" font-size="10.00">W</text>
<text text-anchor="middle" x="570" y="-747" font-family="Times,serif" font-size="10.00">(512, 2048)</text>
</g>
<!-- Parameter593 -->
<g id="node14" class="node"><title>Parameter593</title>
<polygon fill="lightgray" stroke="black" points="672,-827 600,-827 600,-784 672,-784 672,-827"/>
<text text-anchor="middle" x="636" y="-808.9" font-family="Times,serif" font-size="12.00">H</text>
<text text-anchor="middle" x="636" y="-795.9" font-family="Times,serif" font-size="12.00">(512, 2048)</text>
</g>
<!-- Parameter593&#45;&gt;Block1109 -->
<g id="edge13" class="edge"><title>Parameter593&#45;&gt;Block1109</title>
<path fill="none" stroke="black" d="M624.543,-783.876C617.487,-771.822 607.915,-756.558 598,-744 595.349,-740.642 592.511,-737.265 589.58,-733.928"/>
<polygon fill="black" stroke="black" points="591.925,-731.304 582.614,-726.248 586.74,-736.007 591.925,-731.304"/>
<text text-anchor="middle" x="637" y="-758" font-family="Times,serif" font-size="10.00">H</text>
<text text-anchor="middle" x="637" y="-747" font-family="Times,serif" font-size="10.00">(512, 2048)</text>
</g>
<!-- PastValue1044&#45;&gt;Block1109 -->
<g id="edge14" class="edge"><title>PastValue1044&#45;&gt;Block1109</title>
<path fill="none" stroke="black" d="M898.814,-596.247C896.28,-609.613 890.81,-626.254 879,-636 837.932,-669.89 687.082,-682.378 603.209,-686.768"/>
<polygon fill="black" stroke="black" points="602.889,-683.279 593.076,-687.276 603.239,-690.271 602.889,-683.279"/>
<text text-anchor="middle" x="947" y="-628" font-family="Times,serif" font-size="10.00">PastValue1044_Output_0</text>
<text text-anchor="middle" x="947" y="-617" font-family="Times,serif" font-size="10.00">[#,*](512,)</text>
</g>
<!-- PastValue1047&#45;&gt;Block1109 -->
<g id="edge15" class="edge"><title>PastValue1047&#45;&gt;Block1109</title>
<path fill="none" stroke="black" d="M573.794,-596.217C569.816,-609.497 564.492,-627.268 559.569,-643.702"/>
<polygon fill="black" stroke="black" points="556.088,-643.126 556.571,-653.71 562.794,-645.135 556.088,-643.126"/>
<text text-anchor="middle" x="623" y="-628" font-family="Times,serif" font-size="10.00">PastValue1047_Output_0</text>
<text text-anchor="middle" x="623" y="-617" font-family="Times,serif" font-size="10.00">[#,*](512,)</text>
</g>
<!-- Constant682 -->
<g id="node17" class="node"><title>Constant682</title>
<polygon fill="white" stroke="white" points="944.5,-701 911.5,-701 911.5,-679 944.5,-679 944.5,-701"/>
<text text-anchor="middle" x="928" y="-686.9" font-family="Times,serif" font-size="12.00">[0.]</text>
</g>
<!-- Constant682&#45;&gt;PastValue1044 -->
<g id="edge18" class="edge"><title>Constant682&#45;&gt;PastValue1044</title>
<path fill="none" stroke="black" d="M944.823,-682.952C974.57,-671.308 1031.39,-644.241 1010,-614 995.059,-592.876 967.522,-583.264 943.866,-578.927"/>
<polygon fill="black" stroke="black" points="944.094,-575.42 933.672,-577.327 943.009,-582.335 944.094,-575.42"/>
<text text-anchor="middle" x="1040.5" y="-628" font-family="Times,serif" font-size="10.00">Constant682</text>
<text text-anchor="middle" x="1040.5" y="-617" font-family="Times,serif" font-size="10.00">(1,)</text>
</g>
<!-- Constant682&#45;&gt;PastValue1047 -->
<g id="edge20" class="edge"><title>Constant682&#45;&gt;PastValue1047</title>
<path fill="none" stroke="black" d="M911.277,-682.078C890.362,-673.035 853.912,-655.977 826,-636 814.497,-627.767 815.631,-620.369 803,-614 745.274,-584.89 669.62,-577.296 622.938,-575.585"/>
<polygon fill="black" stroke="black" points="622.961,-572.084 612.863,-575.291 622.757,-579.081 622.961,-572.084"/>
<text text-anchor="middle" x="852.5" y="-628" font-family="Times,serif" font-size="10.00">Constant682</text>
<text text-anchor="middle" x="852.5" y="-617" font-family="Times,serif" font-size="10.00">(1,)</text>
</g>
<!-- Block523 -->
<g id="node18" class="node"><title>Block523</title>
<polygon fill="lightgray" stroke="black" stroke-width="4" points="740,-957 646,-957 646,-885 740,-885 740,-957"/>
<text text-anchor="middle" x="693" y="-917.9" font-family="Times,serif" font-size="12.00">LSTM</text>
</g>
<!-- Block523&#45;&gt;NoOp546 -->
<g id="edge21" class="edge"><title>Block523&#45;&gt;NoOp546</title>
<path fill="none" stroke="black" d="M645.931,-911.562C587.472,-899.55 486.269,-873.627 411,-827 409.032,-825.781 407.06,-824.406 405.138,-822.959"/>
<polygon fill="black" stroke="black" points="407.154,-820.085 397.212,-816.425 402.702,-825.486 407.154,-820.085"/>
<text text-anchor="middle" x="534" y="-859" font-family="Times,serif" font-size="10.00">Block523_Output_0</text>
<text text-anchor="middle" x="534" y="-848" font-family="Times,serif" font-size="10.00">[#,*](512,)</text>
</g>
<!-- PastValue458 -->
<g id="node22" class="node"><title>PastValue458</title>
<polygon fill="lightgray" stroke="black" stroke-width="4" points="1031.5,-827 966.5,-827 966.5,-784 1031.5,-784 1031.5,-827"/>
<text text-anchor="middle" x="999" y="-802.4" font-family="Times,serif" font-size="12.00">PastValue</text>
</g>
<!-- Block523&#45;&gt;PastValue458 -->
<g id="edge28" class="edge"><title>Block523&#45;&gt;PastValue458</title>
<path fill="none" stroke="black" d="M740.078,-900.756C758.771,-891.939 779.855,-880.44 797,-867 807.168,-859.029 804.872,-851.564 816,-845 859.199,-819.521 916.897,-810.772 955.867,-807.841"/>
<polygon fill="black" stroke="black" points="956.583,-811.302 966.334,-807.159 956.128,-804.317 956.583,-811.302"/>
<text text-anchor="middle" x="859" y="-859" font-family="Times,serif" font-size="10.00">Block523_Output_0</text>
<text text-anchor="middle" x="859" y="-848" font-family="Times,serif" font-size="10.00">[#,*](512,)</text>
</g>
<!-- PastValue461 -->
<g id="node23" class="node"><title>PastValue461</title>
<polygon fill="lightgray" stroke="black" stroke-width="4" points="755.5,-827 690.5,-827 690.5,-784 755.5,-784 755.5,-827"/>
<text text-anchor="middle" x="723" y="-802.4" font-family="Times,serif" font-size="12.00">PastValue</text>
</g>
<!-- Block523&#45;&gt;PastValue461 -->
<g id="edge30" class="edge"><title>Block523&#45;&gt;PastValue461</title>
<path fill="none" stroke="black" d="M645.748,-903.442C613.964,-889.695 581.051,-868.622 600,-845 621.273,-818.481 642.577,-835.904 680.335,-826.405"/>
<polygon fill="black" stroke="black" points="681.754,-829.631 690.299,-823.367 679.713,-822.936 681.754,-829.631"/>
<text text-anchor="middle" x="643" y="-859" font-family="Times,serif" font-size="10.00">Block523_Output_1</text>
<text text-anchor="middle" x="643" y="-848" font-family="Times,serif" font-size="10.00">[#,*](512,)</text>
</g>
<!-- Parameter5 -->
<g id="node19" class="node"><title>Parameter5</title>
<polygon fill="lightgray" stroke="black" points="594,-1072.5 522,-1072.5 522,-1029.5 594,-1029.5 594,-1072.5"/>
<text text-anchor="middle" x="558" y="-1054.4" font-family="Times,serif" font-size="12.00">b</text>
<text text-anchor="middle" x="558" y="-1041.4" font-family="Times,serif" font-size="12.00">(2048,)</text>
</g>
<!-- Parameter5&#45;&gt;Block523 -->
<g id="edge22" class="edge"><title>Parameter5&#45;&gt;Block523</title>
<path fill="none" stroke="black" d="M577.687,-1029.2C592.364,-1013.91 613.061,-992.776 632,-975 635.9,-971.34 639.991,-967.594 644.13,-963.87"/>
<polygon fill="black" stroke="black" points="646.464,-966.478 651.601,-957.212 641.807,-961.252 646.464,-966.478"/>
<text text-anchor="middle" x="647" y="-989" font-family="Times,serif" font-size="10.00">b</text>
<text text-anchor="middle" x="647" y="-978" font-family="Times,serif" font-size="10.00">(2048,)</text>
</g>
<!-- Parameter6 -->
<g id="node20" class="node"><title>Parameter6</title>
<polygon fill="lightgray" stroke="black" points="684,-1072.5 612,-1072.5 612,-1029.5 684,-1029.5 684,-1072.5"/>
<text text-anchor="middle" x="648" y="-1054.4" font-family="Times,serif" font-size="12.00">W</text>
<text text-anchor="middle" x="648" y="-1041.4" font-family="Times,serif" font-size="12.00">(69, 2048)</text>
</g>
<!-- Parameter6&#45;&gt;Block523 -->
<g id="edge23" class="edge"><title>Parameter6&#45;&gt;Block523</title>
<path fill="none" stroke="black" d="M654.681,-1029.23C659.596,-1014.14 666.523,-993.236 673,-975 673.957,-972.307 674.954,-969.542 675.97,-966.756"/>
<polygon fill="black" stroke="black" points="679.288,-967.874 679.467,-957.281 672.721,-965.45 679.288,-967.874"/>
<text text-anchor="middle" x="694.5" y="-989" font-family="Times,serif" font-size="10.00">W</text>
<text text-anchor="middle" x="694.5" y="-978" font-family="Times,serif" font-size="10.00">(69, 2048)</text>
</g>
<!-- Parameter7 -->
<g id="node21" class="node"><title>Parameter7</title>
<polygon fill="lightgray" stroke="black" points="774,-1072.5 702,-1072.5 702,-1029.5 774,-1029.5 774,-1072.5"/>
<text text-anchor="middle" x="738" y="-1054.4" font-family="Times,serif" font-size="12.00">H</text>
<text text-anchor="middle" x="738" y="-1041.4" font-family="Times,serif" font-size="12.00">(512, 2048)</text>
</g>
<!-- Parameter7&#45;&gt;Block523 -->
<g id="edge24" class="edge"><title>Parameter7&#45;&gt;Block523</title>
<path fill="none" stroke="black" d="M732.7,-1029.41C728.611,-1014.21 722.56,-993.118 716,-975 715.008,-972.259 713.944,-969.457 712.838,-966.644"/>
<polygon fill="black" stroke="black" points="715.969,-965.05 708.959,-957.106 709.484,-967.687 715.969,-965.05"/>
<text text-anchor="middle" x="747" y="-989" font-family="Times,serif" font-size="10.00">H</text>
<text text-anchor="middle" x="747" y="-978" font-family="Times,serif" font-size="10.00">(512, 2048)</text>
</g>
<!-- PastValue458&#45;&gt;Block523 -->
<g id="edge25" class="edge"><title>PastValue458&#45;&gt;Block523</title>
<path fill="none" stroke="black" d="M996.729,-827.146C994.158,-840.467 988.679,-857.098 977,-867 943.591,-895.327 823.571,-909.672 750.675,-915.928"/>
<polygon fill="black" stroke="black" points="749.953,-912.475 740.278,-916.793 750.534,-919.451 749.953,-912.475"/>
<text text-anchor="middle" x="1042.5" y="-859" font-family="Times,serif" font-size="10.00">PastValue458_Output_0</text>
<text text-anchor="middle" x="1042.5" y="-848" font-family="Times,serif" font-size="10.00">[#,*](512,)</text>
</g>
<!-- PastValue461&#45;&gt;Block523 -->
<g id="edge26" class="edge"><title>PastValue461&#45;&gt;Block523</title>
<path fill="none" stroke="black" d="M703.797,-827.089C699.81,-832.53 696.166,-838.666 694,-845 690.811,-854.328 689.42,-864.698 689.043,-874.677"/>
<polygon fill="black" stroke="black" points="685.542,-874.856 688.985,-884.876 692.542,-874.896 685.542,-874.856"/>
<text text-anchor="middle" x="745.5" y="-859" font-family="Times,serif" font-size="10.00">PastValue461_Output_0</text>
<text text-anchor="middle" x="745.5" y="-848" font-family="Times,serif" font-size="10.00">[#,*](512,)</text>
</g>
<!-- Input3 -->
<g id="node24" class="node"><title>Input3</title>
<polygon fill="lightgray" stroke="black" stroke-width="4" points="846.633,-1015.1 849.701,-1015.3 852.737,-1015.59 855.729,-1015.98 858.664,-1016.47 861.532,-1017.05 864.32,-1017.73 867.018,-1018.5 869.615,-1019.35 872.103,-1020.29 874.471,-1021.32 876.713,-1022.43 878.819,-1023.62 880.784,-1024.88 882.602,-1026.21 884.268,-1027.61 885.777,-1029.08 887.126,-1030.6 888.314,-1032.18 889.338,-1033.82 890.198,-1035.5 890.895,-1037.22 891.428,-1038.98 891.799,-1040.77 892.012,-1042.59 892.07,-1044.44 891.975,-1046.3 891.733,-1048.17 891.348,-1050.06 890.826,-1051.94 890.172,-1053.83 889.392,-1055.7 888.493,-1057.56 887.481,-1059.41 886.364,-1061.23 885.147,-1063.02 883.837,-1064.78 882.442,-1066.5 880.968,-1068.18 879.421,-1069.82 877.809,-1071.4 876.136,-1072.92 874.41,-1074.39 872.635,-1075.79 870.817,-1077.12 868.961,-1078.38 867.072,-1079.57 865.154,-1080.68 863.21,-1081.71 861.245,-1082.65 859.261,-1083.5 857.262,-1084.27 855.251,-1084.95 853.228,-1085.53 851.197,-1086.02 849.16,-1086.41 847.118,-1086.7 845.072,-1086.9 843.024,-1087 840.976,-1087 838.928,-1086.9 836.882,-1086.7 834.84,-1086.41 832.803,-1086.02 830.772,-1085.53 828.749,-1084.95 826.738,-1084.27 824.739,-1083.5 822.755,-1082.65 820.79,-1081.71 818.846,-1080.68 816.928,-1079.57 815.039,-1078.38 813.183,-1077.12 811.365,-1075.79 809.59,-1074.39 807.864,-1072.92 806.191,-1071.4 804.579,-1069.82 803.032,-1068.18 801.558,-1066.5 800.163,-1064.78 798.853,-1063.02 797.636,-1061.23 796.519,-1059.41 795.507,-1057.56 794.608,-1055.7 793.828,-1053.83 793.174,-1051.94 792.652,-1050.06 792.267,-1048.17 792.025,-1046.3 791.93,-1044.44 791.988,-1042.59 792.201,-1040.77 792.572,-1038.98 793.105,-1037.22 793.802,-1035.5 794.662,-1033.82 795.686,-1032.18 796.874,-1030.6 798.223,-1029.08 799.732,-1027.61 801.398,-1026.21 803.216,-1024.88 805.181,-1023.62 807.287,-1022.43 809.529,-1021.32 811.897,-1020.29 814.385,-1019.35 816.982,-1018.5 819.68,-1017.73 822.468,-1017.05 825.336,-1016.47 828.271,-1015.98 831.263,-1015.59 834.299,-1015.3 837.367,-1015.1 840.453,-1015 843.547,-1015 846.633,-1015.1"/>
<text text-anchor="middle" x="842" y="-1060.9" font-family="Times,serif" font-size="12.00">Input</text>
<text text-anchor="middle" x="842" y="-1047.9" font-family="Times,serif" font-size="12.00">inputs</text>
<text text-anchor="middle" x="842" y="-1034.9" font-family="Times,serif" font-size="12.00">[#,*](69,)</text>
</g>
<!-- Input3&#45;&gt;Block523 -->
<g id="edge27" class="edge"><title>Input3&#45;&gt;Block523</title>
<path fill="none" stroke="black" d="M816.986,-1018.32C805.064,-1004.23 790.124,-987.94 775,-975 766.815,-967.997 757.641,-961.205 748.473,-954.951"/>
<polygon fill="black" stroke="black" points="750.348,-951.994 740.084,-949.368 746.47,-957.822 750.348,-951.994"/>
<text text-anchor="middle" x="815" y="-989" font-family="Times,serif" font-size="10.00">inputs</text>
<text text-anchor="middle" x="815" y="-978" font-family="Times,serif" font-size="10.00">[#,*](69,)</text>
</g>
<!-- Constant96 -->
<g id="node25" class="node"><title>Constant96</title>
<polygon fill="white" stroke="white" points="1042.5,-932 1009.5,-932 1009.5,-910 1042.5,-910 1042.5,-932"/>
<text text-anchor="middle" x="1026" y="-917.9" font-family="Times,serif" font-size="12.00">[0.]</text>
</g>
<!-- Constant96&#45;&gt;PastValue458 -->
<g id="edge29" class="edge"><title>Constant96&#45;&gt;PastValue458</title>
<path fill="none" stroke="black" d="M1042.75,-913.418C1071.03,-901.318 1123.26,-874.1 1103,-845 1089.17,-825.131 1063.83,-815.492 1041.63,-810.827"/>
<polygon fill="black" stroke="black" points="1042.17,-807.368 1031.71,-809.015 1040.91,-814.254 1042.17,-807.368"/>
<text text-anchor="middle" x="1131" y="-859" font-family="Times,serif" font-size="10.00">Constant96</text>
<text text-anchor="middle" x="1131" y="-848" font-family="Times,serif" font-size="10.00">(1,)</text>
</g>
<!-- Constant96&#45;&gt;PastValue461 -->
<g id="edge31" class="edge"><title>Constant96&#45;&gt;PastValue461</title>
<path fill="none" stroke="black" d="M1009.43,-912.596C989.465,-903.314 955.329,-886.263 929,-867 917.583,-858.648 918.513,-851.598 906,-845 861.769,-821.676 804.519,-812.481 765.927,-808.857"/>
<polygon fill="black" stroke="black" points="765.824,-805.336 755.563,-807.975 765.23,-812.311 765.824,-805.336"/>
<text text-anchor="middle" x="953" y="-859" font-family="Times,serif" font-size="10.00">Constant96</text>
<text text-anchor="middle" x="953" y="-848" font-family="Times,serif" font-size="10.00">(1,)</text>
</g>
</g>
</svg>
